<svg width="131" height="119" viewBox="0 0 131 119" fill="none" xmlns="http://www.w3.org/2000/svg">
<path d="M95.5554 115.965C95.0946 115.571 94.0658 114.319 94.8599 112.861C95.1497 112.328 95.767 112.064 96.3235 111.83C96.8988 111.636 97.4412 111.355 97.9319 110.998C98.8014 110.256 99.0448 109.024 99.6216 108.036C100.288 106.9 101.526 106.048 102.836 106.109C104.337 106.175 105.586 107.401 106.154 108.798C106.722 110.195 106.734 111.745 106.754 113.253C106.754 114.087 106.722 115.029 106.111 115.591C105.545 116.11 104.696 116.116 103.931 116.093L95.7351 115.841" fill="#F5F5F5"/>
<path d="M111.232 93.4258H89.675L93.5586 116.579C93.639 117.062 93.8547 117.511 94.1804 117.876C94.5062 118.241 94.9287 118.506 95.3989 118.64L95.4743 118.66C95.5381 118.678 95.6018 118.698 95.6656 118.709C95.8108 118.739 95.9581 118.756 96.1061 118.762V118.782H96.2104H105.818C105.995 118.781 106.172 118.763 106.345 118.727C106.905 118.638 107.421 118.37 107.815 117.962C108.209 117.554 108.459 117.029 108.528 116.466L110.403 100.497L110.487 99.8626L111.217 93.5417L111.232 93.4258ZM107.174 108.206H104.96L105.186 101.486H107.748L107.174 108.206ZM107.963 101.486H110.081L109.293 108.206H107.392L107.963 101.486ZM101.642 115.655L101.508 109.818H104.696L104.493 115.643L101.642 115.655ZM98.1986 109.818H101.294L101.427 115.655H98.6536L98.1986 109.818ZM98.4391 115.655H95.8308C95.5844 114.078 95.2511 112.032 94.915 109.818H97.9725L98.4391 115.655ZM98.074 108.206L97.5378 101.474H101.088L101.242 108.195L98.074 108.206ZM101.471 108.206L101.305 101.474H104.96L104.737 108.195L101.471 108.206ZM101.279 99.8742L101.134 93.6518H105.23L105.024 99.8742H101.279ZM101.065 99.8742H97.4161L96.935 93.6518H100.914L101.065 99.8742ZM97.2103 99.8742H93.3528L92.9703 97.4716C92.5674 94.9531 92.4167 94.0083 92.3327 93.6518H96.7205L97.2103 99.8742ZM97.3378 101.486L97.8595 108.206H94.6715C94.5643 107.525 94.457 106.836 94.3469 106.146C94.0977 104.558 93.8484 102.972 93.6137 101.486H97.3378ZM94.457 108.206H92.3791L91.2517 101.486H93.3992C93.718 103.552 94.0832 105.862 94.4483 108.195L94.457 108.206ZM94.7121 109.818C95.028 111.847 95.341 113.829 95.625 115.655H93.6282L92.6486 109.818H94.7121ZM104.714 115.655L104.908 109.818H107.035L106.522 115.643L104.714 115.655ZM105.238 99.8742L105.444 93.6518H108.418L107.884 99.8742H105.238ZM92.1385 93.6518C92.2254 94.1011 92.6167 96.55 93.1442 99.8742H90.9821L89.9359 93.6518H92.1385ZM108.418 115.655H106.751L107.25 109.818H109.102L108.418 115.655ZM110.269 99.8742H108.099L108.632 93.6518H111L110.269 99.8742Z" fill="#E0E0E0"/>
<path d="M26.3125 44.378C26.3125 44.378 26.2633 44.2881 26.1792 44.12L25.8053 43.3723L24.3968 40.5263C23.1854 38.0715 21.4552 34.559 19.354 30.2957L19.4381 30.3247L0.136214 39.7815L0.170992 39.68L7.06575 53.7912L6.97301 53.7594L20.9074 46.9805L24.8808 45.0561L25.9532 44.5635L26.2256 44.4359L26.3241 44.3925L26.2372 44.4388L25.9532 44.5635L24.9127 45.0822L20.9712 47.0298L7.03387 53.884L6.97301 53.9159L6.94113 53.8521L0.0347778 39.7496L0 39.68L0.0695561 39.6481L19.383 30.2175L19.4381 30.1914L19.4641 30.2465L24.4664 40.5379L25.8401 43.3839L26.1966 44.1287L26.3125 44.378Z" fill="#E0E0E0"/>
<path d="M19.4095 30.2695C19.4076 30.2954 19.4017 30.3208 19.3922 30.3449C19.3748 30.4029 19.3516 30.4753 19.3226 30.5622C19.2559 30.7651 19.1632 31.0433 19.0328 31.394C18.7806 32.1273 18.4213 33.1648 17.9778 34.4429L14.4595 44.4851L14.3609 44.5315H14.3435H14.3203L14.274 44.517L14.1812 44.4851L13.9958 44.4242L13.6306 44.3025L12.9118 44.0475L11.4946 43.5751L8.81382 42.6795L4.27817 41.1551L1.2235 40.1146L0.397515 39.8248L0.18305 39.7466C0.157338 39.7399 0.132871 39.7291 0.110596 39.7147C0.136451 39.7166 0.161861 39.7225 0.185948 39.7321L0.40621 39.7958L1.24378 40.0596L4.31295 41.0536L8.85439 42.5346L11.5381 43.4215L12.9582 43.8939L13.6828 44.1344L14.0508 44.2561L14.2334 44.317L14.3261 44.346L14.3725 44.3634H14.3957H14.4131C14.3725 44.3836 14.5116 44.3199 14.3232 44.4126C15.7173 40.5001 16.978 36.9614 17.8938 34.3849L18.998 31.3737C19.1255 31.026 19.2299 30.7506 19.2878 30.5536L19.3719 30.3391L19.4095 30.2695Z" fill="#E0E0E0"/>
<path d="M9.61527 42.877C9.65585 42.877 9.10519 45.3607 8.38355 48.4038C7.6619 51.4469 7.04169 53.9103 7.00112 53.8959C6.96054 53.8814 7.5141 51.4121 8.23574 48.369C8.95739 45.326 9.5747 42.8654 9.61527 42.877Z" fill="#E0E0E0"/>
<path d="M26.5152 44.4814C26.4978 44.5161 24.1793 43.3801 21.3361 41.9426C18.493 40.5051 16.2035 39.3081 16.2238 39.2704C16.2441 39.2328 18.5626 40.3688 21.4057 41.8092C24.2488 43.2496 26.5326 44.4437 26.5152 44.4814Z" fill="#E0E0E0"/>
<path d="M121.805 46.0353C121.805 46.0353 121.848 45.9657 121.935 45.8411L122.323 45.2933L123.801 43.224L129.154 35.7699V35.8569L114.258 25.096L114.365 25.0786L106.96 35.3033L106.946 35.2077L117.646 42.9922L120.7 45.2238L121.515 45.8208L121.723 45.9773C121.77 46.015 121.796 46.0324 121.796 46.0353L121.726 45.9889L121.518 45.844L120.706 45.2644L117.643 43.0704L106.873 35.3178L106.812 35.2888L106.853 35.2309L114.246 25.0003L114.292 24.9395L114.353 24.9829L129.235 35.767L129.285 35.8018L129.247 35.8511L123.827 43.2878C123.181 44.1573 122.668 44.8557 122.329 45.331C122.161 45.56 122.039 45.7368 121.938 45.8585C121.836 45.9802 121.805 46.0353 121.805 46.0353Z" fill="#E0E0E0"/>
<path d="M129.204 35.8067C129.121 35.8264 129.037 35.8409 128.952 35.8502L128.231 35.9516L125.573 36.2907L116.8 37.3601C116.635 37.2384 116.754 37.3225 116.716 37.2935V37.2645V37.2239L116.702 37.1457L116.67 36.9863L116.606 36.6733C116.563 36.4646 116.522 36.2559 116.479 36.0502C116.397 35.6386 116.313 35.2329 116.235 34.8329C116.076 34.0359 115.919 33.265 115.774 32.5318C115.484 31.0827 115.221 29.7495 115 28.6366C114.78 27.5237 114.615 26.6398 114.493 26.0051L114.363 25.2893C114.346 25.206 114.333 25.1218 114.325 25.0371C114.355 25.1171 114.377 25.1995 114.392 25.2835C114.43 25.4573 114.485 25.695 114.551 25.9935L115.105 28.6019C115.334 29.7148 115.606 31.0305 115.91 32.4941C116.058 33.2274 116.218 33.9954 116.38 34.7924C116.461 35.1923 116.542 35.5981 116.626 36.0096C116.67 36.2154 116.71 36.4211 116.754 36.6298L116.818 36.9457L116.85 37.1022L116.864 37.1834V37.221V37.2558C116.829 37.2297 116.948 37.3196 116.783 37.2008L125.561 36.1777L128.225 35.8879L128.949 35.8154C129.034 35.8054 129.119 35.8025 129.204 35.8067Z" fill="#E0E0E0"/>
<path d="M115.961 33.194C115.961 33.2346 113.933 33.736 111.429 34.3156C108.925 34.8953 106.87 35.33 106.858 35.2894C106.847 35.2488 108.887 34.7475 111.394 34.1678C113.901 33.5882 115.953 33.1535 115.961 33.194Z" fill="#E0E0E0"/>
<path d="M121.812 46.2241C121.771 46.2241 121.627 44.1055 121.493 41.4885C121.36 38.8714 121.285 36.747 121.328 36.7441C121.371 36.7412 121.511 38.8627 121.644 41.4798C121.777 44.0968 121.853 46.2212 121.812 46.2241Z" fill="#E0E0E0"/>
<path d="M92.5876 99.1184L92.8137 99.2053L93.4571 99.472L95.9003 100.492L104.688 104.187L104.609 104.219L112.058 86.6359L112.098 86.7374L100.027 81.6018L100.117 81.5641L94.7091 94.2089C94.0454 95.7536 93.5209 96.9795 93.1557 97.8229C92.976 98.2373 92.8369 98.559 92.7383 98.7822L92.6311 99.0314L92.5876 99.1184C92.5876 99.1184 92.5876 99.0894 92.6195 99.0343C92.6514 98.9793 92.6775 98.8952 92.7181 98.7909L93.1151 97.8374L94.6396 94.2234C95.9524 91.1136 97.8102 86.7084 100.001 81.5091L100.027 81.4453L100.091 81.4743L112.159 86.5867L112.229 86.6157L112.197 86.6852C109.388 93.2901 106.792 99.3879 104.719 104.26L104.696 104.315L104.641 104.292L95.8423 100.524L93.4252 99.4806L92.7992 99.2082L92.5876 99.1184Z" fill="#E0E0E0"/>
<path d="M104.664 104.244C104.652 104.225 104.642 104.205 104.635 104.184C104.615 104.134 104.592 104.073 104.56 104.001C104.496 103.827 104.406 103.589 104.293 103.291C104.062 102.662 103.734 101.772 103.334 100.683L100.221 92.0402C100.303 91.8518 100.248 91.988 100.265 91.9446H100.285L100.323 91.9272L100.398 91.8924L100.552 91.8228L100.856 91.6866L101.456 91.4142L102.633 90.8838L104.856 89.884L108.623 88.1972L111.168 87.0727L111.863 86.7829L112.046 86.7105C112.089 86.6931 112.11 86.6873 112.11 86.6902L112.052 86.725L111.878 86.8119L111.194 87.1365L108.667 88.2958L104.899 90.0115L102.679 91.02L101.52 91.5504L100.917 91.8228L100.627 91.9619L100.476 92.0286L100.398 92.0634L100.361 92.0808H100.343C100.358 92.0402 100.3 92.1764 100.378 91.9909C101.575 95.3644 102.659 98.4191 103.447 100.645C103.83 101.746 104.143 102.642 104.363 103.274C104.464 103.578 104.546 103.815 104.603 103.992C104.627 104.068 104.647 104.128 104.664 104.181C104.667 104.202 104.667 104.223 104.664 104.244Z" fill="#E0E0E0"/>
<path d="M104.248 90.2263C104.21 90.2437 103.231 88.3019 102.063 85.879C100.895 83.4562 99.9791 81.497 100.017 81.4767C100.054 81.4564 101.031 83.4011 102.199 85.824C103.367 88.2469 104.283 90.2089 104.248 90.2263Z" fill="#E0E0E0"/>
<path d="M92.3989 99.1694C92.3989 99.1288 94.503 98.4941 97.123 97.7522C99.7429 97.0103 101.885 96.4393 101.885 96.4828C101.885 96.5263 99.7806 97.1581 97.1606 97.9C94.5407 98.6419 92.4105 99.21 92.3989 99.1694Z" fill="#E0E0E0"/>
<path d="M111.32 5.3418H24.667V78.1874H111.32V5.3418Z" fill="#EBEBEB"/>
<path d="M24.8337 10.3644C24.8337 10.3238 44.1588 10.2891 67.9905 10.2891C91.8222 10.2891 111.159 10.3325 111.159 10.3644C111.159 10.3963 91.8395 10.4398 67.9992 10.4398C44.1588 10.4398 24.8337 10.4137 24.8337 10.3644Z" fill="#E0E0E0"/>
<path d="M27.4709 8.69272C27.9831 8.69272 28.3983 8.2775 28.3983 7.76531C28.3983 7.25311 27.9831 6.83789 27.4709 6.83789C26.9587 6.83789 26.5435 7.25311 26.5435 7.76531C26.5435 8.2775 26.9587 8.69272 27.4709 8.69272Z" fill="#E0E0E0"/>
<path d="M30.0485 8.69272C30.5607 8.69272 30.9759 8.2775 30.9759 7.76531C30.9759 7.25311 30.5607 6.83789 30.0485 6.83789C29.5363 6.83789 29.1211 7.25311 29.1211 7.76531C29.1211 8.2775 29.5363 8.69272 30.0485 8.69272Z" fill="#E0E0E0"/>
<path d="M32.9084 8.69272C33.4206 8.69272 33.8358 8.2775 33.8358 7.76531C33.8358 7.25311 33.4206 6.83789 32.9084 6.83789C32.3962 6.83789 31.981 7.25311 31.981 7.76531C31.981 8.2775 32.3962 8.69272 32.9084 8.69272Z" fill="#E0E0E0"/>
<path d="M126.708 118.925C126.708 118.968 98.4247 119 63.5452 119C28.6657 119 0.36499 118.968 0.36499 118.925C0.36499 118.881 28.6425 118.85 63.5452 118.85C98.4479 118.85 126.708 118.884 126.708 118.925Z" fill="#313131"/>
<path d="M107.971 85.9236C107.971 85.3932 107.945 56.2086 107.907 11.1796L107.971 11.2347H19.0666L19.142 11.1593C19.142 38.2457 19.142 63.7931 19.142 85.9033L19.0724 85.8366L107.986 85.9033L19.0724 85.9699H18.9971V85.9033C18.9971 63.7931 18.9971 38.2457 18.9971 11.1593V11.084H19.0811H107.986H108.049V11.1477C108.009 56.2086 107.971 85.3932 107.971 85.9236Z" fill="#FAFAFA"/>
<path d="M107.983 11.1797H19.0703V85.9236H107.983V11.1797Z" fill="#FAFAFA"/>
<path d="M51.1699 16.3418H19.2437V23.6597H51.1699V16.3418Z" fill="#EBEBEB"/>
<path d="M27.2943 22.247C27.2943 22.247 27.2943 22.1514 27.2943 21.9775C27.2943 21.8036 27.2943 21.5457 27.2943 21.2414C27.2943 20.5922 27.2769 19.6937 27.2624 18.6098L27.3233 18.6707H22.0283L22.1037 18.5953V20.4821C22.1037 21.0907 22.1037 21.6732 22.1037 22.221L22.0341 22.1514L25.8336 22.1862L26.9292 22.2065H27.219H27.3262C27.2021 22.2203 27.0772 22.2261 26.9523 22.2239L25.8713 22.2412L22.0283 22.276H21.9617V22.247C21.9617 21.6935 21.9617 21.111 21.9617 20.5081V19.5749C21.9617 19.4184 21.9617 19.259 21.9617 19.0996V18.604C21.895 18.6707 22.0544 18.5113 22.0399 18.5287H27.3349H27.3958V18.5895C27.3958 19.6908 27.3726 20.6009 27.3639 21.2588C27.3639 21.5486 27.3639 21.7978 27.3639 21.9833C27.3492 22.0732 27.3259 22.1616 27.2943 22.247Z" fill="#313131"/>
<path d="M27.2942 18.5986C27.2942 18.5986 27.2333 18.6826 27.1058 18.8131C26.9783 18.9435 26.7899 19.1261 26.5552 19.3521C26.0857 19.8042 25.4278 20.4216 24.6974 21.091C24.4917 21.091 24.6395 21.091 24.5931 21.091H24.5757L24.5409 21.0592L24.4743 20.9954L24.3381 20.8708L24.0772 20.6273L23.5816 20.1665L22.7383 19.3492C22.5035 19.1232 22.3151 18.9406 22.1847 18.8102C22.1126 18.7474 22.0493 18.6753 21.9963 18.5957C21.9963 18.5957 22.0862 18.6479 22.2253 18.7667C22.3644 18.8855 22.5644 19.0565 22.8049 19.271L23.657 20.0361L24.1555 20.4911L24.4192 20.7317L24.5554 20.8563L24.6221 20.92L24.6569 20.949L24.6743 20.9664H24.5815C25.3118 20.294 25.9784 19.6883 26.4682 19.2565C26.7117 19.042 26.9116 18.8681 27.0479 18.7522C27.1222 18.6894 27.2051 18.6377 27.2942 18.5986Z" fill="#313131"/>
<path d="M23.7605 20.2188C23.5248 20.6031 23.2468 20.9599 22.9317 21.2824C22.6552 21.6386 22.3392 21.9624 21.9897 22.2475C22.226 21.8643 22.504 21.5086 22.8186 21.1867C23.0956 20.83 23.4115 20.5054 23.7605 20.2188Z" fill="#313131"/>
<path d="M27.329 22.2795C26.9872 21.9752 26.6801 21.634 26.4132 21.2623C26.1068 20.9206 25.8385 20.5464 25.6133 20.1465C25.9555 20.4514 26.2627 20.7936 26.5291 21.1666C26.8358 21.5071 27.1041 21.8803 27.329 22.2795Z" fill="#313131"/>
<path d="M47.5031 19.8703C47.5031 19.9137 43.7644 19.9456 39.1563 19.9456C34.5482 19.9456 30.8125 19.9137 30.8125 19.8703C30.8125 19.8268 34.5482 19.7949 39.1563 19.7949C43.7644 19.7949 47.5031 19.8297 47.5031 19.8703Z" fill="#313131"/>
<path d="M107.982 48.8477H50.7637V61.3852H107.982V48.8477Z" fill="#2BB673"/>
<g opacity="0.8">
<path d="M107.982 48.8477H50.7632V61.3852H107.982V48.8477Z" fill="white"/>
</g>
<path d="M58.4912 52.7656H55.0974C54.7373 52.7656 54.4453 53.0576 54.4453 53.4177V56.8115C54.4453 57.1716 54.7373 57.4636 55.0974 57.4636H58.4912C58.8513 57.4636 59.1433 57.1716 59.1433 56.8115V53.4177C59.1433 53.0576 58.8513 52.7656 58.4912 52.7656Z" fill="#2BB673"/>
<path d="M56.4384 56.1561C56.3756 56.1561 56.3146 56.1358 56.2645 56.0982L55.3168 55.3852C55.2826 55.3639 55.2533 55.3358 55.2306 55.3025C55.2079 55.2693 55.1924 55.2317 55.185 55.1921C55.1777 55.1526 55.1787 55.1119 55.1879 55.0727C55.1971 55.0336 55.2144 54.9967 55.2387 54.9646C55.2629 54.9325 55.2936 54.9058 55.3287 54.8862C55.3638 54.8665 55.4027 54.8545 55.4427 54.8507C55.4828 54.8469 55.5232 54.8515 55.5614 54.8642C55.5996 54.8769 55.6347 54.8974 55.6645 54.9244L56.4036 55.4779L57.8874 53.8666C57.9397 53.8101 58.0123 53.7766 58.0892 53.7737C58.1661 53.7707 58.241 53.7983 58.2975 53.8506C58.354 53.9029 58.3874 53.9755 58.3904 54.0524C58.3934 54.1293 58.3657 54.2042 58.3135 54.2607L56.6528 56.0634C56.6255 56.0929 56.5923 56.1163 56.5553 56.1323C56.5184 56.1483 56.4786 56.1564 56.4384 56.1561Z" fill="white"/>
<path d="M107.982 36.2461H50.7637V48.7836H107.982V36.2461Z" fill="#2BB673"/>
<path d="M107.638 48.8293C107.638 48.8727 94.9964 48.9046 79.4042 48.9046C63.812 48.9046 51.1702 48.8727 51.1702 48.8293C51.1702 48.7858 63.8091 48.7539 79.4042 48.7539C94.9993 48.7539 107.638 48.7887 107.638 48.8293Z" fill="#313131"/>
<path d="M108.015 73.9102H50.7959V85.9231H108.015V73.9102Z" fill="#2BB673"/>
<g opacity="0.8">
<path d="M108.015 73.9102H50.7966V85.9231H108.015V73.9102Z" fill="white"/>
</g>
<path d="M58.52 77.832H55.1262C54.7661 77.832 54.4741 78.124 54.4741 78.4841V81.8779C54.4741 82.238 54.7661 82.53 55.1262 82.53H58.52C58.8801 82.53 59.1721 82.238 59.1721 81.8779V78.4841C59.1721 78.124 58.8801 77.832 58.52 77.832Z" fill="#2BB673"/>
<path d="M56.467 81.2256C56.4043 81.2256 56.3433 81.2053 56.2931 81.1677L55.3454 80.4547C55.2839 80.4086 55.2433 80.3399 55.2324 80.2638C55.2215 80.1878 55.2413 80.1105 55.2875 80.049C55.3336 79.9875 55.4022 79.9468 55.4783 79.936C55.5544 79.9251 55.6317 79.9449 55.6932 79.991L56.4322 80.5475L57.9161 78.9361C57.941 78.9052 57.9719 78.8798 58.007 78.8614C58.0421 78.8429 58.0806 78.8319 58.1201 78.8289C58.1596 78.826 58.1993 78.8312 58.2368 78.8441C58.2742 78.8571 58.3086 78.8777 58.3378 78.9045C58.367 78.9313 58.3904 78.9638 58.4065 79C58.4226 79.0362 58.4311 79.0753 58.4316 79.115C58.432 79.1546 58.4242 79.1939 58.4089 79.2304C58.3935 79.2669 58.3708 79.2999 58.3421 79.3273L56.6728 81.1329C56.6464 81.1613 56.6146 81.1842 56.5793 81.2001C56.544 81.216 56.5058 81.2247 56.467 81.2256Z" fill="white"/>
<g opacity="0.8">
<path d="M107.982 36.2461H50.7632V48.7836H107.982V36.2461Z" fill="white"/>
</g>
<path d="M58.4912 40.1641H55.0974C54.7373 40.1641 54.4453 40.456 54.4453 40.8162V44.2099C54.4453 44.5701 54.7373 44.862 55.0974 44.862H58.4912C58.8513 44.862 59.1433 44.5701 59.1433 44.2099V40.8162C59.1433 40.456 58.8513 40.1641 58.4912 40.1641Z" fill="#2BB673"/>
<path d="M56.4384 43.5587C56.3756 43.5587 56.3146 43.5383 56.2645 43.5007L55.3168 42.7878C55.2826 42.7665 55.2533 42.7383 55.2306 42.7051C55.2079 42.6718 55.1924 42.6342 55.185 42.5947C55.1777 42.5551 55.1787 42.5145 55.1879 42.4753C55.1971 42.4361 55.2144 42.3993 55.2387 42.3672C55.2629 42.3351 55.2936 42.3083 55.3287 42.2887C55.3638 42.2691 55.4027 42.257 55.4427 42.2532C55.4828 42.2495 55.5232 42.2541 55.5614 42.2667C55.5996 42.2794 55.6347 42.2999 55.6645 42.327L56.4036 42.8805L57.8874 41.2691C57.9394 41.2128 58.0116 41.1793 58.0882 41.176C58.1648 41.1728 58.2395 41.2 58.2961 41.2517C58.3244 41.2775 58.3474 41.3086 58.3636 41.3433C58.3798 41.378 58.389 41.4156 58.3906 41.4539C58.3922 41.4921 58.3862 41.5304 58.373 41.5663C58.3598 41.6022 58.3395 41.6352 58.3135 41.6633L56.6528 43.4659C56.6255 43.4954 56.5923 43.5189 56.5553 43.5349C56.5184 43.5508 56.4786 43.559 56.4384 43.5587Z" fill="white"/>
<path d="M107.971 85.9236C107.971 85.3932 107.945 56.2086 107.907 11.1796L107.971 11.2347H19.0666L19.142 11.1593C19.142 38.2457 19.142 63.7931 19.142 85.9033L19.0724 85.8366L107.986 85.9033L19.0724 85.9699H18.9971V85.9033C18.9971 63.7931 18.9971 38.2457 18.9971 11.1593V11.084H19.0811H107.986H108.049V11.1477C108.009 56.2086 107.971 85.3932 107.971 85.9236Z" fill="#2BB673"/>
<path d="M19.2437 16.341C19.2437 16.2975 39.0701 16.2656 63.5249 16.2656C87.9797 16.2656 107.812 16.2975 107.812 16.341C107.812 16.3845 87.9884 16.4163 63.5249 16.4163C39.0614 16.4163 19.2437 16.3816 19.2437 16.341Z" fill="#2BB673"/>
<path d="M21.9501 14.6141C22.4751 14.6141 22.9007 14.1885 22.9007 13.6635C22.9007 13.1385 22.4751 12.7129 21.9501 12.7129C21.4251 12.7129 20.9995 13.1385 20.9995 13.6635C20.9995 14.1885 21.4251 14.6141 21.9501 14.6141Z" fill="#2BB673"/>
<path d="M24.5939 14.6141C25.1189 14.6141 25.5445 14.1885 25.5445 13.6635C25.5445 13.1385 25.1189 12.7129 24.5939 12.7129C24.0689 12.7129 23.6433 13.1385 23.6433 13.6635C23.6433 14.1885 24.0689 14.6141 24.5939 14.6141Z" fill="#2BB673"/>
<path d="M28.1994 12.9915C28.3323 13.1245 28.4228 13.2939 28.4594 13.4782C28.496 13.6626 28.4772 13.8537 28.4052 14.0274C28.3332 14.2011 28.2114 14.3495 28.0551 14.4539C27.8988 14.5584 27.715 14.6141 27.527 14.6141C27.339 14.6141 27.1553 14.5584 26.999 14.4539C26.8426 14.3495 26.7208 14.2011 26.6488 14.0274C26.5769 13.8537 26.558 13.6626 26.5946 13.4782C26.6313 13.2939 26.7218 13.1245 26.8546 12.9915C26.9429 12.9032 27.0477 12.8331 27.1631 12.7853C27.2785 12.7375 27.4021 12.7129 27.527 12.7129C27.6519 12.7129 27.7756 12.7375 27.8909 12.7853C28.0063 12.8331 28.1111 12.9032 28.1994 12.9915Z" fill="#2BB673"/>
<path d="M30.8803 26.5952C30.9486 26.5868 31.0177 26.5868 31.0861 26.5952L31.6889 26.5778L33.8973 26.5488H33.9263L33.9437 26.572L34.9174 27.853L34.9319 27.8733V27.8965C34.9319 28.4761 34.9319 29.1195 34.9319 29.7861V29.8614H33.9697H29.9934H29.9297V29.7832C29.9297 29.1282 29.9297 28.5457 29.9471 28.0443L30.6252 26.9807C30.7012 26.8464 30.7864 26.7176 30.8803 26.5952C30.8677 26.634 30.8502 26.671 30.8281 26.7053L30.6629 26.9951L30.0369 28.0646V28.0385C30.0369 28.5312 30.0369 29.1137 30.0514 29.7774L29.9877 29.7136H33.9639H34.8537L34.7783 29.789C34.7783 29.1224 34.7783 28.4848 34.7783 27.8994L34.7928 27.94L33.8364 26.6503L33.8857 26.6734L31.7005 26.6445H31.0919C31.02 26.6344 30.9492 26.6179 30.8803 26.5952Z" fill="#313131"/>
<path d="M34.8657 27.9811C34.7286 28.018 34.5874 28.0375 34.4454 28.0391C34.1788 28.0622 33.7962 28.0883 33.3412 28.1173L33.4021 28.0536C33.3911 28.2957 33.3117 28.5299 33.1731 28.7288C33.0975 28.8381 32.9985 28.9292 32.8833 28.9955C32.7559 29.0544 32.6179 29.0869 32.4776 29.0911C32.3282 29.0973 32.1792 29.0703 32.0414 29.0122C31.9037 28.9541 31.7804 28.8662 31.6806 28.7549C31.5144 28.5559 31.4026 28.3173 31.356 28.0622L31.4197 28.1144C30.9966 28.1144 30.643 28.0999 30.3967 28.0883C30.2668 28.0909 30.1372 28.0763 30.0112 28.0449C30.1378 28.0175 30.2673 28.0058 30.3967 28.0101C30.643 28.0101 30.9966 27.9898 31.4197 27.9811H31.4603V28.0362C31.5096 28.2629 31.6141 28.474 31.7646 28.6506C31.8501 28.7464 31.9558 28.8221 32.0741 28.8722C32.1924 28.9223 32.3203 28.9456 32.4486 28.9404C32.567 28.9399 32.6838 28.9132 32.7906 28.8621C32.8911 28.8102 32.9784 28.7358 33.0456 28.6448C33.1686 28.4693 33.2427 28.2642 33.2601 28.0507V27.9898H33.3151C33.7731 27.9753 34.1556 27.9666 34.4251 27.9637C34.5721 27.9508 34.7202 27.9566 34.8657 27.9811Z" fill="#313131"/>
<path d="M45.7581 26.755C45.8389 26.7368 45.9217 26.729 46.0044 26.7319V26.7782C45.4248 26.8072 43.6308 26.8304 41.5268 26.8304C40.2226 26.8304 39.0401 26.8304 38.1852 26.8072L37.1737 26.784C37.0494 26.7882 36.9249 26.7785 36.8027 26.755C36.9249 26.7316 37.0494 26.7219 37.1737 26.7261L38.1852 26.7029C39.0401 26.6884 40.2139 26.6797 41.5268 26.6797C43.6308 26.6797 45.4132 26.7029 46.0044 26.7319V26.7782C45.9216 26.783 45.8386 26.7752 45.7581 26.755Z" fill="#313131"/>
<path d="M45.7581 28.6535C45.8386 28.6333 45.9216 28.6255 46.0044 28.6303V28.6767C45.4248 28.7056 43.6308 28.7288 41.5268 28.7288C40.2226 28.7288 39.0401 28.7288 38.1852 28.7056L37.1737 28.6825C37.0494 28.6848 36.9252 28.6751 36.8027 28.6535C36.9249 28.6298 37.0493 28.6191 37.1737 28.6216L38.1852 28.5984C39.0401 28.5984 40.2139 28.5781 41.5268 28.5781C43.6308 28.5781 45.4132 28.5984 46.0044 28.6303V28.6767C45.9217 28.6776 45.8392 28.6698 45.7581 28.6535Z" fill="#313131"/>
<path d="M45.7581 30.548C45.8389 30.5298 45.9217 30.522 46.0044 30.5248V30.5712C45.4248 30.6031 43.6308 30.6234 41.5268 30.6234C40.2226 30.6234 39.0401 30.6234 38.1852 30.6031L37.1737 30.577C37.0494 30.5812 36.9249 30.5714 36.8027 30.548C36.9252 30.5264 37.0494 30.5167 37.1737 30.519L38.1852 30.4958C39.0401 30.4814 40.2139 30.4727 41.5268 30.4727C43.6308 30.4727 45.4132 30.4958 46.0044 30.5248V30.5712C45.9216 30.576 45.8386 30.5681 45.7581 30.548Z" fill="#313131"/>
<path d="M30.8803 40.178C30.948 40.1645 31.017 40.1586 31.0861 40.1607L31.6889 40.1462L33.8973 40.1172H33.9263L33.9437 40.1404L34.9174 41.4214L34.9319 41.4417V41.4648C34.9319 42.0445 34.9319 42.6879 34.9319 43.3544V43.4298H33.9697H29.9934H29.9297V43.366C29.9297 42.7111 29.9297 42.1285 29.9471 41.6271V41.6126L30.6252 40.549C30.6994 40.424 30.7817 40.3039 30.8716 40.1896C30.859 40.2285 30.8415 40.2655 30.8194 40.2998L30.6542 40.5896L30.0398 41.6648V41.6387C30.0398 42.1314 30.0398 42.714 30.0543 43.3776L29.9905 43.3139H33.9668H34.8566L34.7812 43.3892C34.7812 42.7226 34.7812 42.085 34.7812 41.4996L34.7957 41.5402L33.8393 40.2505L33.8886 40.2737L31.7034 40.2447H31.0948C31.0214 40.2292 30.9496 40.2068 30.8803 40.178Z" fill="#313131"/>
<path d="M34.8657 41.5556C34.7286 41.5925 34.5874 41.6119 34.4454 41.6135C34.1788 41.6367 33.7962 41.6628 33.3412 41.6918L33.4021 41.628C33.3911 41.8702 33.3117 42.1043 33.1731 42.3033C33.0975 42.4126 32.9985 42.5037 32.8833 42.5699C32.7559 42.6289 32.6179 42.6614 32.4776 42.6656C32.3282 42.6717 32.1792 42.6448 32.0414 42.5867C31.9037 42.5286 31.7804 42.4407 31.6806 42.3294C31.5144 42.1304 31.4026 41.8918 31.356 41.6367L31.4197 41.6889C30.9966 41.6889 30.643 41.6744 30.3967 41.6628C30.2671 41.6672 30.1375 41.6546 30.0112 41.6251C30.1378 41.5975 30.2672 41.5848 30.3967 41.5874L31.4197 41.5614H31.4603V41.6164C31.5096 41.8432 31.6141 42.0542 31.7646 42.2308C31.8501 42.3267 31.9558 42.4024 32.0741 42.4525C32.1924 42.5026 32.3203 42.5259 32.4486 42.5207C32.567 42.5202 32.6838 42.4935 32.7906 42.4424C32.8911 42.3904 32.9784 42.3161 33.0456 42.225C33.1686 42.0496 33.2427 41.8445 33.2601 41.6309V41.5701H33.3151C33.7731 41.5701 34.1556 41.5469 34.4251 41.544C34.5719 41.5291 34.7199 41.533 34.8657 41.5556Z" fill="#313131"/>
<path d="M45.7581 40.3293C45.8389 40.311 45.9217 40.3032 46.0044 40.3061V40.3524C45.4248 40.3814 43.6308 40.4046 41.5268 40.4046C40.2226 40.4046 39.0401 40.4046 38.1852 40.3814L37.1737 40.3582C37.0494 40.3624 36.9249 40.3527 36.8027 40.3293C36.9249 40.3058 37.0494 40.2961 37.1737 40.3003L38.1852 40.2771C39.0401 40.2626 40.2139 40.2539 41.5268 40.2539C43.6308 40.2539 45.4132 40.2771 46.0044 40.3061V40.3524C45.9217 40.3553 45.8389 40.3475 45.7581 40.3293Z" fill="#313131"/>
<path d="M45.7581 42.2276C45.8386 42.2075 45.9216 42.1997 46.0044 42.2044V42.245C45.4248 42.274 43.6308 42.2972 41.5268 42.2972C40.2226 42.2972 39.0401 42.2972 38.1852 42.274L37.1737 42.2508C37.0494 42.2531 36.9252 42.2434 36.8027 42.2218C36.9249 42.1981 37.0493 42.1874 37.1737 42.19L38.1852 42.1668C39.0401 42.1523 40.2139 42.1465 41.5268 42.1465C43.6308 42.1465 45.4132 42.1668 46.0044 42.1986V42.245C45.9219 42.2479 45.8394 42.242 45.7581 42.2276Z" fill="#313131"/>
<path d="M45.7581 44.1222C45.8389 44.104 45.9217 44.0962 46.0044 44.099V44.1454C45.4248 44.1773 43.6308 44.1976 41.5268 44.1976C40.2226 44.1976 39.0401 44.1976 38.1852 44.1773L37.1737 44.1512C37.0494 44.1554 36.9249 44.1457 36.8027 44.1222C36.9252 44.1006 37.0494 44.0909 37.1737 44.0932L38.1852 44.0701C39.0401 44.0556 40.2139 44.0469 41.5268 44.0469C43.6308 44.0469 45.4132 44.0701 46.0044 44.099V44.1454C45.9216 44.1502 45.8386 44.1424 45.7581 44.1222Z" fill="#313131"/>
<path d="M30.8803 53.7542C30.948 53.7406 31.017 53.7348 31.0861 53.7368L31.6889 53.7223L33.8973 53.6934H33.9263L33.9437 53.7165L34.9174 54.9975L34.9319 55.0178V55.041C34.9319 55.6206 34.9319 56.264 34.9319 56.9306V57.006H33.9697H29.9934H29.9297V56.9422C29.9297 56.2872 29.9297 55.7047 29.9471 55.2033L30.6252 54.1397C30.6994 54.0146 30.7817 53.8946 30.8716 53.7803C30.859 53.8191 30.8415 53.8561 30.8194 53.8904L30.6542 54.1803L30.0282 55.2497V55.2236C30.0282 55.7163 30.0282 56.2988 30.0427 56.9625L29.979 56.8987H33.9553H34.845L34.7696 56.9741C34.7696 56.3075 34.7696 55.6699 34.7696 55.0845L34.7841 55.1251L33.8277 53.8354L33.877 53.8586L31.6918 53.8296H31.0832C31.0134 53.8105 30.9455 53.7853 30.8803 53.7542Z" fill="#313131"/>
<path d="M34.8657 55.1298C34.7286 55.1667 34.5874 55.1862 34.4454 55.1877C34.1788 55.2109 33.7962 55.237 33.3412 55.266L33.4021 55.2022C33.3911 55.4444 33.3117 55.6786 33.1731 55.8775C33.0975 55.9868 32.9985 56.0779 32.8833 56.1441C32.7562 56.2035 32.6179 56.2351 32.4776 56.2369C32.3283 56.2442 32.1792 56.2181 32.0413 56.1605C31.9034 56.1028 31.7802 56.015 31.6806 55.9036C31.5144 55.7046 31.4026 55.466 31.356 55.2109L31.4197 55.2631C30.9966 55.2631 30.643 55.2631 30.3967 55.237C30.2671 55.2415 30.1375 55.2288 30.0112 55.1993C30.1378 55.1717 30.2672 55.1591 30.3967 55.1617L31.4197 55.1356H31.4603V55.1906C31.5096 55.4174 31.6141 55.6284 31.7646 55.8051C31.8501 55.9009 31.9558 55.9766 32.0741 56.0267C32.1924 56.0768 32.3203 56.1001 32.4486 56.0949C32.567 56.0944 32.6838 56.0677 32.7906 56.0166C32.8911 55.9647 32.9784 55.8903 33.0456 55.7993C33.1686 55.6238 33.2427 55.4187 33.2601 55.2051V55.1443H33.3151C33.7731 55.1269 34.1556 55.1211 34.4251 55.1182C34.5719 55.1034 34.7199 55.1073 34.8657 55.1298Z" fill="#313131"/>
<path d="M45.7581 53.9054C45.8389 53.8872 45.9217 53.8794 46.0044 53.8822V53.9286C45.4248 53.9576 43.6308 53.9808 41.5268 53.9808C40.2226 53.9808 39.0401 53.9808 38.1852 53.9576L37.1737 53.9344C37.0494 53.9386 36.9249 53.9289 36.8027 53.9054C36.9249 53.882 37.0494 53.8723 37.1737 53.8764L38.1852 53.8533C39.0401 53.8388 40.2139 53.8301 41.5268 53.8301C43.6308 53.8301 45.4132 53.8533 46.0044 53.8822V53.9286C45.9217 53.9315 45.8389 53.9237 45.7581 53.9054Z" fill="#313131"/>
<path d="M45.7581 55.8019C45.8386 55.7818 45.9216 55.774 46.0044 55.7787V55.8251C45.4248 55.8541 43.6308 55.8773 41.5268 55.8773C40.2226 55.8773 39.0401 55.8773 38.1852 55.8541L37.1737 55.8309C37.0494 55.8332 36.9252 55.8235 36.8027 55.8019C36.9249 55.7782 37.0493 55.7675 37.1737 55.77L38.1852 55.7468C39.0401 55.7324 40.2139 55.7266 41.5268 55.7266C43.6308 55.7266 45.4132 55.7468 46.0044 55.7787V55.8251C45.9217 55.826 45.8392 55.8183 45.7581 55.8019Z" fill="#313131"/>
<path d="M45.7581 57.6984C45.8389 57.6802 45.9217 57.6724 46.0044 57.6752V57.7216C45.4248 57.7535 43.6308 57.7738 41.5268 57.7738C40.2226 57.7738 39.0401 57.7738 38.1852 57.7535L37.1737 57.7274C37.0494 57.7316 36.9249 57.7218 36.8027 57.6984C36.9252 57.6768 37.0494 57.6671 37.1737 57.6694L38.1852 57.6462C39.0401 57.6462 40.2139 57.623 41.5268 57.623C43.6308 57.623 45.4132 57.6462 46.0044 57.6752V57.7216C45.9216 57.7264 45.8386 57.7185 45.7581 57.6984Z" fill="#313131"/>
<path d="M103.369 45.013H101.16C101.045 45.0149 100.93 44.9939 100.823 44.951C100.716 44.9082 100.618 44.8445 100.536 44.7635C100.454 44.6826 100.389 44.5861 100.344 44.4797C100.299 44.3732 100.276 44.259 100.276 44.1436V40.4629H100.566V44.132C100.566 44.2093 100.582 44.2859 100.612 44.3572C100.642 44.4285 100.686 44.493 100.741 44.5471C100.796 44.6011 100.862 44.6435 100.934 44.6717C101.006 44.7 101.083 44.7135 101.16 44.7116H103.369C103.522 44.7116 103.67 44.6505 103.779 44.5418C103.887 44.4331 103.948 44.2857 103.948 44.132V40.5904H104.238V44.132C104.24 44.2471 104.218 44.3614 104.175 44.4683C104.132 44.5751 104.069 44.6723 103.988 44.7543C103.907 44.8362 103.81 44.9013 103.704 44.9457C103.598 44.9902 103.484 45.013 103.369 45.013Z" fill="#2BB673"/>
<path d="M104.615 40.4824H99.9141V40.7722H104.615V40.4824Z" fill="#2BB673"/>
<path d="M101.408 40.6279H101.118V40.3062C101.118 40.1525 101.179 40.005 101.288 39.8963C101.397 39.7876 101.544 39.7266 101.698 39.7266H102.857C103.011 39.7266 103.158 39.7876 103.267 39.8963C103.376 40.005 103.437 40.1525 103.437 40.3062V40.5641H103.147V40.3062C103.147 40.2293 103.117 40.1556 103.062 40.1013C103.008 40.0469 102.934 40.0164 102.857 40.0164H101.698C101.621 40.0164 101.547 40.0469 101.493 40.1013C101.439 40.1556 101.408 40.2293 101.408 40.3062V40.6279Z" fill="#2BB673"/>
<path d="M101.596 43.929C101.521 43.518 101.496 43.0997 101.52 42.6828C101.496 42.2668 101.521 41.8494 101.596 41.4395C101.672 41.8492 101.697 42.2668 101.671 42.6828C101.697 43.0997 101.672 43.5182 101.596 43.929Z" fill="#2BB673"/>
<path d="M102.276 43.929C102.202 43.518 102.177 43.0997 102.201 42.6828C102.177 42.2668 102.202 41.8494 102.276 41.4395C102.352 41.8492 102.378 42.2668 102.352 42.6828C102.378 43.0997 102.352 43.5182 102.276 43.929Z" fill="#2BB673"/>
<path d="M102.964 43.929C102.889 43.518 102.864 43.0997 102.888 42.6828C102.864 42.2668 102.889 41.8494 102.964 41.4395C103.04 41.8492 103.065 42.2668 103.039 42.6828C103.065 43.0997 103.04 43.5182 102.964 43.929Z" fill="#2BB673"/>
<path d="M103.369 56.8948H101.16C100.926 56.8941 100.702 56.8007 100.536 56.6351C100.37 56.4695 100.277 56.2451 100.276 56.0109V52.3418H100.566V56.0109C100.566 56.1685 100.629 56.3196 100.74 56.431C100.852 56.5424 101.003 56.605 101.16 56.605H103.369C103.524 56.6012 103.671 56.537 103.779 56.426C103.888 56.3149 103.948 56.166 103.948 56.0109V52.4693H104.238V56.0109C104.24 56.1263 104.219 56.2409 104.176 56.3481C104.133 56.4552 104.07 56.5528 103.989 56.6351C103.908 56.7173 103.811 56.7827 103.705 56.8273C103.598 56.8719 103.484 56.8948 103.369 56.8948Z" fill="#2BB673"/>
<path d="M104.615 52.3633H99.9141V52.6531H104.615V52.3633Z" fill="#2BB673"/>
<path d="M101.408 52.5068H101.118V52.1851C101.118 52.0314 101.179 51.8839 101.288 51.7752C101.397 51.6665 101.544 51.6055 101.698 51.6055H102.857C103.011 51.6055 103.158 51.6665 103.267 51.7752C103.376 51.8839 103.437 52.0314 103.437 52.1851V52.443H103.147V52.1851C103.147 52.1082 103.117 52.0345 103.062 51.9802C103.008 51.9258 102.934 51.8953 102.857 51.8953H101.698C101.621 51.8953 101.547 51.9258 101.493 51.9802C101.439 52.0345 101.408 52.1082 101.408 52.1851V52.5068Z" fill="#2BB673"/>
<path d="M101.595 55.8079C101.495 54.9811 101.495 54.1452 101.595 53.3184C101.696 54.1452 101.696 54.9811 101.595 55.8079Z" fill="#2BB673"/>
<path d="M102.276 55.8079C102.175 54.9811 102.175 54.1452 102.276 53.3184C102.376 54.1452 102.376 54.9811 102.276 55.8079Z" fill="#2BB673"/>
<path d="M102.963 55.8079C102.863 54.9811 102.863 54.1452 102.963 53.3184C103.064 54.1452 103.064 54.9811 102.963 55.8079Z" fill="#2BB673"/>
<path d="M103.369 83.0112H101.16C101.045 83.0131 100.93 82.992 100.823 82.9492C100.716 82.9064 100.618 82.8427 100.536 82.7617C100.454 82.6808 100.389 82.5843 100.344 82.4779C100.299 82.3714 100.276 82.2572 100.276 82.1417V78.4727H100.566V82.1417C100.566 82.2191 100.582 82.2957 100.612 82.367C100.642 82.4383 100.686 82.5028 100.741 82.5568C100.796 82.6108 100.862 82.6532 100.934 82.6815C101.006 82.7097 101.083 82.7233 101.16 82.7214H103.369C103.522 82.7214 103.67 82.6603 103.779 82.5516C103.887 82.4429 103.948 82.2955 103.948 82.1417V78.5886H104.238V82.1302C104.24 82.2453 104.218 82.3596 104.175 82.4664C104.132 82.5733 104.069 82.6705 103.988 82.7525C103.907 82.8344 103.81 82.8995 103.704 82.9439C103.598 82.9883 103.484 83.0112 103.369 83.0112Z" fill="#2BB673"/>
<path d="M104.615 78.4805H99.9141V78.7703H104.615V78.4805Z" fill="#2BB673"/>
<path d="M101.408 78.6269H101.118V78.3023C101.118 78.1486 101.179 78.0011 101.288 77.8924C101.397 77.7837 101.544 77.7227 101.698 77.7227H102.857C103.011 77.7227 103.158 77.7837 103.267 77.8924C103.376 78.0011 103.437 78.1486 103.437 78.3023V78.5631H103.147V78.3023C103.147 78.2254 103.117 78.1517 103.062 78.0974C103.008 78.043 102.934 78.0125 102.857 78.0125H101.698C101.621 78.0125 101.547 78.043 101.493 78.0974C101.439 78.1517 101.408 78.2254 101.408 78.3023V78.6269Z" fill="#2BB673"/>
<path d="M101.595 81.927C101.495 81.1002 101.495 80.2643 101.595 79.4375C101.696 80.2643 101.696 81.1002 101.595 81.927Z" fill="#2BB673"/>
<path d="M102.276 81.927C102.175 81.1002 102.175 80.2643 102.276 79.4375C102.376 80.2643 102.376 81.1002 102.276 81.927Z" fill="#2BB673"/>
<path d="M102.963 81.927C102.863 81.1002 102.863 80.2643 102.963 79.4375C103.064 80.2643 103.064 81.1002 102.963 81.927Z" fill="#2BB673"/>
<path d="M104.567 31.3195C104.557 31.2301 104.552 31.1401 104.553 31.05C104.553 30.8616 104.553 30.6182 104.553 30.311C104.553 29.6647 104.532 28.7662 104.521 27.6794L104.582 27.7403L99.2751 27.7548L99.3505 27.6794V28.6329C99.3505 28.9488 99.3505 29.2589 99.3505 29.5632C99.3505 30.1719 99.3505 30.7573 99.3505 31.3021L99.2809 31.2326L103.078 31.2674L104.176 31.2848H104.466H104.573C104.448 31.2912 104.324 31.2912 104.199 31.2848L103.118 31.305L99.2751 31.3398H99.2056V31.2703C99.2056 30.7167 99.2056 30.1313 99.2056 29.5314V27.6475C99.1389 27.7142 99.2983 27.5548 99.2809 27.5693L104.579 27.5867H104.64V27.6446C104.64 28.746 104.616 29.6589 104.611 30.3139C104.611 30.6037 104.611 30.8558 104.593 31.0384C104.592 31.1326 104.583 31.2266 104.567 31.3195Z" fill="#313131"/>
<path d="M104.568 27.6797C104.515 27.7593 104.451 27.8314 104.379 27.8941C104.249 28.0246 104.061 28.2101 103.826 28.4361C103.356 28.8882 102.701 29.5026 101.968 30.175H101.864L101.846 30.1576L101.815 30.1257L101.745 30.0649L101.612 29.9403L101.348 29.6968L100.855 29.236L100.023 28.4477C99.7887 28.2216 99.6003 28.0362 99.4728 27.9057C99.4007 27.843 99.3374 27.7708 99.2844 27.6913C99.3667 27.7398 99.4435 27.7971 99.5134 27.8623C99.6525 27.9811 99.8525 28.1521 100.093 28.3695L100.945 29.1317L101.446 29.5867L101.71 29.8301L101.844 29.9519L101.913 30.0156L101.948 30.0475H101.965C101.919 30.0475 102.07 30.0475 101.864 30.0475C102.594 29.3722 103.264 28.7694 103.751 28.3376C103.997 28.1202 104.197 27.9492 104.33 27.8304C104.403 27.7702 104.482 27.7196 104.568 27.6797Z" fill="#313131"/>
<path d="M101.036 29.3086C100.797 29.6885 100.518 30.0422 100.204 30.3635C99.9281 30.72 99.6121 31.0438 99.2625 31.3286C99.4973 30.9436 99.7754 30.5868 100.091 30.265C100.369 29.9113 100.686 29.5904 101.036 29.3086Z" fill="#313131"/>
<path d="M104.601 31.3587C104.26 31.0534 103.953 30.7124 103.685 30.3414C103.38 30.0005 103.112 29.6273 102.888 29.2285C103.229 29.5338 103.536 29.8748 103.804 30.2458C104.11 30.5858 104.378 30.9591 104.601 31.3587Z" fill="#313131"/>
<path d="M107.638 23.6593C107.638 23.6999 94.9959 23.7347 79.4037 23.7347C63.8115 23.7347 51.1667 23.697 51.1667 23.6593C51.1667 23.6217 63.8057 23.584 79.4008 23.584C94.9959 23.584 107.638 23.6188 107.638 23.6593Z" fill="#313131"/>
<path d="M107.638 36.2453C107.638 36.2859 94.9959 36.3206 79.4037 36.3206C63.8115 36.3206 51.1667 36.2859 51.1667 36.2453C51.1667 36.2047 63.8057 36.1699 79.4008 36.1699C94.9959 36.1699 107.638 36.2018 107.638 36.2453Z" fill="#313131"/>
<path d="M107.638 61.1593C107.638 61.1999 94.9959 61.2347 79.4037 61.2347C63.8115 61.2347 51.1667 61.1999 51.1667 61.1593C51.1667 61.1188 63.8057 61.084 79.4008 61.084C94.9959 61.084 107.638 61.1159 107.638 61.1593Z" fill="#313131"/>
<path d="M107.638 73.9113C107.638 73.9548 94.9964 73.9866 79.4042 73.9866C63.812 73.9866 51.1702 73.9548 51.1702 73.9113C51.1702 73.8678 63.8091 73.8359 79.4042 73.8359C94.9993 73.8359 107.638 73.8707 107.638 73.9113Z" fill="#313131"/>
<path d="M58.4939 32.3916C58.4939 32.3916 58.5577 32.3916 58.6678 32.351C58.8274 32.3003 58.9606 32.1889 59.0388 32.0409C59.1518 31.8525 59.0938 31.5714 59.1025 31.2526C59.1112 30.9338 59.1025 30.5715 59.1025 30.1745C59.1025 29.7774 59.1025 29.334 59.1025 28.8674C59.1025 28.7485 59.1025 28.6297 59.1025 28.508C59.1125 28.3922 59.1027 28.2756 59.0735 28.1631C59.037 28.0525 58.968 27.9554 58.8754 27.8845C58.7829 27.8137 58.6711 27.7724 58.5548 27.7661H55.0972C54.9629 27.7671 54.8331 27.8148 54.73 27.901C54.6269 27.9871 54.5569 28.1064 54.5321 28.2385C54.5118 28.5051 54.5321 28.8181 54.5321 29.1079C54.5321 29.6876 54.5321 30.2382 54.5321 30.7686C54.5321 31.0323 54.5321 31.2902 54.5321 31.5424C54.5243 31.6596 54.5301 31.7772 54.5495 31.8931C54.5743 32.0028 54.6295 32.1032 54.7089 32.1829C54.7853 32.2556 54.8791 32.3075 54.9813 32.3336C55.0856 32.3513 55.1916 32.3572 55.2972 32.351H55.9261L57.8186 32.3742L58.3345 32.3887C58.3947 32.3872 58.455 32.3921 58.5142 32.4031C58.4546 32.4113 58.3941 32.4113 58.3345 32.4031L57.8186 32.4176L55.9261 32.4437H55.2972C55.182 32.4519 55.0662 32.4461 54.9523 32.4263C54.8257 32.3978 54.7094 32.3347 54.6163 32.2442C54.5232 32.1537 54.4569 32.0392 54.4249 31.9134C54.4002 31.7874 54.3924 31.6588 54.4017 31.5308C54.4017 31.2787 54.4017 31.0207 54.4017 30.757C54.4017 30.2266 54.4017 29.6731 54.4017 29.0963V28.6616C54.3918 28.5101 54.3918 28.3581 54.4017 28.2066C54.4357 28.0427 54.5252 27.8955 54.655 27.79C54.7849 27.6844 54.9472 27.6268 55.1146 27.627H58.5577C58.7004 27.6369 58.8369 27.6891 58.9499 27.7768C59.0629 27.8645 59.1473 27.9839 59.1924 28.1196C59.2258 28.2462 59.2376 28.3775 59.2271 28.508C59.2271 28.6297 59.2271 28.7485 59.2271 28.8674C59.2271 29.334 59.2271 29.7716 59.2271 30.1745C59.2271 30.5773 59.2271 30.9338 59.2271 31.2526C59.2271 31.412 59.2271 31.5598 59.2271 31.696C59.2308 31.8264 59.1998 31.9554 59.1373 32.0699C59.0459 32.2248 58.8969 32.3374 58.7229 32.3829C58.6488 32.4069 58.5695 32.4099 58.4939 32.3916Z" fill="#313131"/>
<path d="M58.4939 70.0007C58.4939 70.0007 58.5577 70.0007 58.6678 69.9602C58.8274 69.9095 58.9606 69.7981 59.0388 69.6501C59.1518 69.4617 59.0938 69.1806 59.1025 68.8618C59.1112 68.543 59.1025 68.1807 59.1025 67.7836C59.1025 67.3866 59.1025 66.9432 59.1025 66.4766C59.1025 66.3577 59.1025 66.2389 59.1025 66.1172C59.1125 66.0014 59.1027 65.8848 59.0735 65.7723C59.037 65.6616 58.968 65.5646 58.8754 65.4937C58.7829 65.4229 58.6711 65.3816 58.5548 65.3753H55.0972C54.9633 65.3762 54.8338 65.4234 54.7308 65.509C54.6277 65.5946 54.5575 65.7133 54.5321 65.8448C54.5118 66.1143 54.5321 66.4244 54.5321 66.7142C54.5321 67.2938 54.5321 67.8445 54.5321 68.3749C54.5321 68.6386 54.5321 68.8965 54.5321 69.1458C54.5242 69.2639 54.53 69.3826 54.5495 69.4994C54.5733 69.6094 54.6287 69.7101 54.7089 69.7892C54.7842 69.8633 54.8785 69.9154 54.9813 69.9399C55.0853 69.9601 55.1915 69.9669 55.2972 69.9602H55.9261L57.8186 69.9834L58.3345 69.9978C58.3942 69.9916 58.4545 69.9916 58.5142 69.9978C58.4552 70.0108 58.3948 70.0157 58.3345 70.0123L57.8186 70.0268L55.9261 70.05H55.2972C55.182 70.0582 55.0662 70.0524 54.9523 70.0326C54.8257 70.0041 54.7094 69.941 54.6163 69.8505C54.5232 69.76 54.4569 69.6455 54.4249 69.5196C54.4 69.3928 54.3922 69.2631 54.4017 69.1342C54.4017 68.8849 54.4017 68.627 54.4017 68.3633C54.4017 67.8329 54.4017 67.2794 54.4017 66.7026V66.2679C54.3918 66.1164 54.3918 65.9644 54.4017 65.8129C54.4327 65.6463 54.5209 65.4958 54.6511 65.3874C54.7813 65.2789 54.9452 65.2193 55.1146 65.2188H58.5577C58.7004 65.2287 58.8369 65.2809 58.9499 65.3686C59.0629 65.4563 59.1473 65.5757 59.1924 65.7114C59.2258 65.838 59.2376 65.9693 59.2271 66.0998C59.2271 66.2215 59.2271 66.3403 59.2271 66.4592C59.2271 66.9258 59.2271 67.3634 59.2271 67.7662C59.2271 68.1691 59.2271 68.5256 59.2271 68.8444C59.2271 69.0038 59.2271 69.1516 59.2271 69.2878C59.2308 69.4182 59.1998 69.5472 59.1373 69.6617C59.0925 69.7385 59.0327 69.8055 58.9616 69.8588C58.8904 69.912 58.8092 69.9505 58.7229 69.9718C58.6502 70.0007 58.5714 70.0107 58.4939 70.0007Z" fill="#313131"/>
<path d="M50.7483 84.849C50.7483 84.849 50.7483 84.7881 50.7483 84.6722C50.7483 84.5563 50.7483 84.3824 50.7483 84.1534C50.7483 83.6897 50.7483 83.0173 50.7483 82.1566C50.7483 80.4177 50.7483 77.9108 50.7483 74.8155C50.7483 68.6192 50.8236 60.058 50.9106 50.6013C50.9975 41.1445 51.0642 32.5862 51.1193 26.3841C51.1395 23.2888 51.154 20.7819 51.1656 19.043C51.1656 18.1736 51.1656 17.5099 51.183 17.0491C51.183 16.823 51.183 16.652 51.183 16.5303C51.183 16.4086 51.183 16.3535 51.183 16.3535C51.183 16.3535 51.183 16.4115 51.183 16.5303C51.183 16.6491 51.183 16.8201 51.183 17.0491C51.183 17.5099 51.183 18.1823 51.183 19.043C51.183 20.7819 51.183 23.2888 51.183 26.3841C51.1685 32.5804 51.1077 41.1445 51.0178 50.6013C50.928 60.058 50.8642 68.6134 50.8121 74.8155C50.7918 77.9108 50.7773 80.4177 50.7657 82.1566C50.7657 83.026 50.7657 83.6897 50.7483 84.1534C50.7483 84.3766 50.7483 84.5476 50.7483 84.6722C50.7483 84.7968 50.7483 84.849 50.7483 84.849Z" fill="#313131"/>
<path d="M83.0202 41.2941C83.0202 41.3347 78.6729 41.3695 73.2939 41.3695C67.9149 41.3695 63.5676 41.3347 63.5676 41.2941C63.5676 41.2535 67.9149 41.2188 73.2939 41.2188C78.6729 41.2188 83.0202 41.2506 83.0202 41.2941Z" fill="#313131"/>
<path d="M95.178 43.4386C95.178 43.4821 88.1007 43.514 79.3743 43.514C70.6479 43.514 63.5676 43.4821 63.5676 43.4386C63.5676 43.3952 70.645 43.3633 79.3743 43.3633C88.1036 43.3633 95.178 43.4039 95.178 43.4386Z" fill="#313131"/>
<path d="M83.0202 66.5402C83.0202 66.5808 78.6729 66.6155 73.2939 66.6155C67.9149 66.6155 63.5676 66.5808 63.5676 66.5402C63.5676 66.4996 67.9149 66.4648 73.2939 66.4648C78.6729 66.4648 83.0202 66.4967 83.0202 66.5402Z" fill="#313131"/>
<path d="M95.178 68.6847C95.178 68.7253 88.1007 68.7601 79.3743 68.7601C70.6479 68.7601 63.5676 68.7253 63.5676 68.6847C63.5676 68.6442 70.645 68.6094 79.3743 68.6094C88.1036 68.6094 95.178 68.6442 95.178 68.6847Z" fill="#313131"/>
<path d="M83.0202 29.1632C83.0202 29.2067 78.6729 29.2415 73.2939 29.2415C67.9149 29.2415 63.5676 29.2067 63.5676 29.1632C63.5676 29.1198 67.9149 29.0879 73.2939 29.0879C78.6729 29.0879 83.0202 29.1227 83.0202 29.1632Z" fill="#313131"/>
<path d="M95.178 31.3097C95.178 31.3503 88.1007 31.3851 79.3743 31.3851C70.6479 31.3851 63.5676 31.3503 63.5676 31.3097C63.5676 31.2692 70.645 31.2344 79.3743 31.2344C88.1036 31.2344 95.178 31.2692 95.178 31.3097Z" fill="#313131"/>
<path d="M83.0202 53.6632C83.0202 53.7038 78.6729 53.7386 73.2939 53.7386C67.9149 53.7386 63.5676 53.7038 63.5676 53.6632C63.5676 53.6227 67.9149 53.5879 73.2939 53.5879C78.6729 53.5879 83.0202 53.6227 83.0202 53.6632Z" fill="#313131"/>
<path d="M95.178 55.8078C95.178 55.8512 88.1007 55.8831 79.3743 55.8831C70.6479 55.8831 63.5676 55.8512 63.5676 55.8078C63.5676 55.7643 70.645 55.7324 79.3743 55.7324C88.1036 55.7324 95.178 55.7672 95.178 55.8078Z" fill="#313131"/>
<path d="M83.0202 78.5187C83.0202 78.5593 78.6729 78.5941 73.2939 78.5941C67.9149 78.5941 63.5676 78.5593 63.5676 78.5187C63.5676 78.4781 67.9149 78.4434 73.2939 78.4434C78.6729 78.4434 83.0202 78.4723 83.0202 78.5187Z" fill="#313131"/>
<path d="M95.178 80.6632C95.178 80.7038 88.1007 80.7386 79.3743 80.7386C70.6479 80.7386 63.5676 80.7038 63.5676 80.6632C63.5676 80.6227 70.645 80.5879 79.3743 80.5879C88.1036 80.5879 95.178 80.6227 95.178 80.6632Z" fill="#313131"/>
<path d="M105.093 17.9199H101.265V21.7484H105.093V17.9199Z" fill="#E0E0E0"/>
<path d="M98.8597 17.9199H95.0312V21.7484H98.8597V17.9199Z" fill="#E0E0E0"/>
<path d="M92.6261 17.9199H88.7976V21.7484H92.6261V17.9199Z" fill="#E0E0E0"/>
<path d="M23.1379 27.9453L24.7638 30.0668L26.1549 27.9453H23.1379Z" fill="#313131"/>
<path d="M19.6145 55.4624C23.3821 50.4891 27.37 51.1905 30.1319 52.3932C31.5095 53.0208 32.6678 54.0461 33.458 55.3372C34.2482 56.6284 34.6341 58.1264 34.5662 59.6387C34.5198 60.4328 34.3488 61.2674 34.6734 61.9949C35.1922 63.1541 36.7021 63.4932 37.5716 64.4264C38.7685 65.7045 38.5048 67.7246 38.099 69.4287C37.6933 71.1328 37.2702 73.0746 38.27 74.5092C39.1887 75.8221 40.9363 76.1756 42.3796 76.877C43.3373 77.3342 44.1875 77.9885 44.8748 78.7971C45.562 79.6057 46.0707 80.5503 46.3675 81.5692C46.6479 82.5943 46.67 83.6729 46.4318 84.7086C46.1936 85.7444 45.7025 86.705 45.0025 87.5046C43.5998 89.0291 41.4957 89.7072 39.4467 90.0086C36.4507 90.4507 33.394 90.2226 30.4968 89.3406C27.5997 88.4586 24.9344 86.9448 22.693 84.9083C20.4516 82.8718 18.69 80.3633 17.5352 77.5637C16.3804 74.7641 15.8612 71.7431 16.0149 68.7186" fill="#313131"/>
<path d="M30.3282 52.6055C29.8798 52.603 29.4317 52.6282 28.9864 52.6809C27.9217 52.8874 26.8779 53.1901 25.8679 53.5851C24.6652 54.0053 23.503 54.2401 22.6567 54.185C22.3239 54.1727 21.9939 54.1192 21.6743 54.0256C21.5546 53.9958 21.4396 53.95 21.3323 53.8894C21.7671 53.9978 22.2119 54.0619 22.6596 54.0807C23.7421 54.0487 24.8113 53.8331 25.8216 53.4431C27.0185 53.0228 28.1401 52.6606 28.9719 52.5736C29.3026 52.5334 29.6364 52.5247 29.9688 52.5475C30.0907 52.5509 30.2115 52.5704 30.3282 52.6055Z" fill="#455A64"/>
<path d="M39.0127 92.1621C39.1576 92.5968 42.163 106.798 42.163 106.798L65.0267 115.588L63.7399 118.924L44.1367 117.199C32.6947 115.492 32.06 109.879 32.7497 103.604L33.9351 92.849L39.0127 92.1621Z" fill="#FFBE9D"/>
<path d="M6.1499 84.5046C8.50612 80.9369 12.0825 78.8792 15.3574 77.7402L27.3848 78.6097C28.7298 78.4933 30.0839 78.6753 31.3504 79.1427C32.6169 79.6101 33.7645 80.3514 34.7114 81.3137L35.8301 111.116L38.5921 118.941H9.97839L6.1499 84.5046Z" fill="#2BB673"/>
<path d="M35.1519 93.5412C35.1519 93.5412 35.1258 93.5267 35.0823 93.4948L34.8882 93.3499C34.7871 93.2661 34.6816 93.1878 34.5723 93.1151L34.1231 92.8253C33.9434 92.7297 33.7463 92.6224 33.5289 92.5152C32.6972 92.1343 31.806 91.9 30.8945 91.8226C30.113 91.7539 29.3256 91.8028 28.5586 91.9675C27.6777 92.1525 26.8405 92.5047 26.0922 93.005C25.249 93.5311 24.5749 94.2886 24.1504 95.1873C23.9383 95.6609 23.8476 96.1799 23.8867 96.6973C23.9383 97.23 24.1392 97.7373 24.4663 98.1609C24.7868 98.5859 25.2614 98.868 25.7879 98.9463C26.0358 98.9917 26.2916 98.9629 26.5231 98.8633C26.7546 98.7638 26.9516 98.5981 27.0892 98.3869C27.1966 98.1663 27.2544 97.9248 27.2584 97.6794C27.2624 97.4341 27.2126 97.1908 27.1124 96.9668C27.0275 96.7399 26.9125 96.5254 26.7704 96.3292C26.6277 96.1398 26.4666 95.965 26.2893 95.8075C25.6147 95.2126 24.7966 94.804 23.9157 94.6222C23.1491 94.4532 22.3603 94.4092 21.5797 94.4918C20.4448 94.6299 19.3289 94.8943 18.2526 95.2801L17.3687 95.5699L17.1397 95.6452C17.1141 95.6568 17.0866 95.6636 17.0586 95.6655L17.1339 95.6307L17.36 95.5409C17.5571 95.4656 17.8527 95.3525 18.2295 95.2163C19.3029 94.809 20.4206 94.5298 21.5595 94.3845C22.3516 94.2944 23.1531 94.3326 23.9331 94.4976C24.8361 94.6821 25.6758 95.0974 26.3704 95.7032C26.4632 95.7844 26.5501 95.8713 26.6342 95.9611C26.7212 96.0518 26.8016 96.1487 26.8747 96.251C27.0242 96.4563 27.146 96.6804 27.237 96.9175C27.345 97.1622 27.3981 97.4275 27.3926 97.6949C27.3871 97.9623 27.3231 98.2252 27.2051 98.4652C27.0633 98.708 26.8438 98.8959 26.582 98.9984C26.3204 99.1006 26.0372 99.1345 25.7589 99.097C25.1921 99.016 24.6804 98.7138 24.3359 98.2565C23.9937 97.8099 23.7856 97.2751 23.736 96.7147C23.6971 96.1712 23.7969 95.6267 24.0258 95.1323C24.4621 94.2081 25.1566 93.43 26.0255 92.892C26.7913 92.387 27.6459 92.0319 28.5441 91.8457C29.3235 91.685 30.1226 91.642 30.9148 91.7182C31.5681 91.7754 32.2111 91.9177 32.8276 92.1414C33.0799 92.2322 33.3276 92.3357 33.5695 92.4515C33.7898 92.5645 33.9868 92.6775 34.1491 92.776L34.5955 93.0804C34.7029 93.1582 34.8064 93.2414 34.9056 93.3296L35.0881 93.4861L35.1519 93.5412Z" fill="#FAFAFA"/>
<path d="M34.7123 81.2988L41.8128 94.0682L33.9355 96.4882L34.7123 81.2988Z" fill="#2BB673"/>
<path d="M35.6649 111.2C35.6509 111.127 35.6431 111.052 35.6417 110.977C35.6417 110.818 35.6214 110.606 35.604 110.339C35.5779 109.76 35.5431 108.966 35.4968 107.98C35.4156 105.992 35.3142 103.242 35.2243 100.205C35.1345 97.1672 35.0794 94.4082 35.062 92.42C35.062 91.4231 35.062 90.6174 35.062 90.0609C35.062 89.7943 35.062 89.5798 35.062 89.4204C35.0605 89.3458 35.0654 89.2711 35.0765 89.1973C35.0899 89.2709 35.0957 89.3456 35.0939 89.4204L35.1113 90.0609C35.1113 90.6406 35.1403 91.4347 35.1635 92.4171C35.2156 94.4227 35.2881 97.1672 35.3692 100.199C35.4504 103.23 35.5402 105.972 35.5982 107.977C35.6214 108.96 35.6417 109.763 35.6562 110.337C35.6562 110.603 35.6562 110.818 35.6562 110.977C35.6667 111.051 35.6696 111.126 35.6649 111.2Z" fill="#313131"/>
<path d="M36.8071 85.1884C36.7579 85.2326 36.7034 85.2705 36.6448 85.3015C36.4847 85.4028 36.3182 85.4938 36.1464 85.5739C35.3437 85.9265 34.4655 86.0728 33.5918 85.9994C32.7182 85.926 31.8767 85.6353 31.1441 85.1537C30.8878 84.9931 30.6547 84.798 30.4514 84.574C30.2276 84.3317 30.0786 84.0297 30.0225 83.7046C29.9908 83.5346 29.9976 83.3598 30.0422 83.1928C30.0868 83.0258 30.1682 82.8709 30.2805 82.7395C30.4048 82.6098 30.5609 82.5149 30.7332 82.464C30.9055 82.4132 31.0881 82.4082 31.2629 82.4497C31.437 82.482 31.6023 82.5503 31.7485 82.6501C31.8947 82.7499 32.0185 82.879 32.1121 83.0293C32.279 83.3301 32.3334 83.6804 32.2657 84.0176C32.2057 84.3363 32.0672 84.6352 31.8629 84.887C31.6663 85.1248 31.4251 85.3217 31.1528 85.4667C30.65 85.7177 30.1042 85.8711 29.5443 85.9188C29.0631 85.9734 28.5776 85.9793 28.0952 85.9362C27.3986 85.8737 26.7149 85.7086 26.0665 85.4464C25.8903 85.3756 25.7181 85.2953 25.5506 85.2058C25.4894 85.1797 25.4319 85.1456 25.3796 85.1044C25.4419 85.1261 25.5028 85.1512 25.5622 85.1797C25.6811 85.2319 25.852 85.3073 26.0868 85.3913C26.7395 85.6304 27.4223 85.7777 28.1155 85.8289C28.5908 85.8643 29.0684 85.8526 29.5414 85.7941C30.0837 85.7428 30.6115 85.5905 31.0977 85.3449C31.3527 85.2075 31.5789 85.0226 31.7643 84.8001C31.9511 84.5657 32.0775 84.289 32.1324 83.9944C32.192 83.6926 32.1427 83.3794 31.9933 83.1104C31.9115 82.9777 31.8026 82.8636 31.6738 82.7757C31.5449 82.6878 31.399 82.6281 31.2455 82.6004C31.0964 82.5635 30.9403 82.5661 30.7925 82.6078C30.6446 82.6494 30.5101 82.7288 30.4022 82.838C30.3051 82.9534 30.2349 83.0889 30.1968 83.2348C30.1587 83.3807 30.1536 83.5333 30.1819 83.6814C30.2337 83.9757 30.3685 84.2492 30.5703 84.4697C30.7642 84.6921 30.9875 84.8871 31.234 85.0493C32.0849 85.6224 33.0889 85.9254 34.1147 85.9188C34.8098 85.9229 35.499 85.7909 36.1435 85.5304C36.5724 85.3275 36.7984 85.1739 36.8071 85.1884Z" fill="#FAFAFA"/>
<path d="M35.2946 110.951L35.2134 110.896L34.9816 110.728C34.6793 110.517 34.3626 110.328 34.0339 110.163C32.8185 109.562 31.4764 109.264 30.1213 109.293C28.4143 109.293 26.3943 109.873 24.438 110.997C23.9362 111.281 23.4659 111.617 23.0353 112C22.5829 112.391 22.2074 112.863 21.9282 113.391C21.6442 113.937 21.5513 114.563 21.6645 115.168C21.7324 115.469 21.8877 115.743 22.1108 115.956C22.2201 116.06 22.3546 116.133 22.5009 116.169C22.6472 116.205 22.8004 116.203 22.9455 116.162C23.2351 116.062 23.475 115.855 23.6149 115.582C23.7625 115.309 23.8448 115.005 23.8555 114.695C23.8504 114.074 23.6586 113.468 23.3048 112.956C22.9682 112.462 22.5307 112.044 22.0209 111.73C21.5305 111.433 20.9922 111.222 20.4298 111.107C19.3771 110.911 18.2983 110.9 17.2418 111.075C16.3175 111.207 15.404 111.407 14.5089 111.672C13.2125 112.068 11.9606 112.596 10.7731 113.249C10.3529 113.478 10.0341 113.669 9.81672 113.8L9.57327 113.95L9.48633 113.997C9.48633 113.997 9.50951 113.974 9.56458 113.936L9.80223 113.774C10.0109 113.635 10.3297 113.437 10.747 113.194C11.931 112.528 13.1835 111.991 14.4828 111.594C15.3815 111.319 16.3 111.112 17.2303 110.977C18.299 110.792 19.3921 110.797 20.4588 110.994C21.0378 111.109 21.592 111.325 22.0963 111.632C22.6246 111.954 23.0781 112.384 23.4265 112.896C23.7972 113.427 23.9992 114.059 24.0062 114.707C23.995 115.042 23.9057 115.369 23.7453 115.663C23.5889 115.975 23.3163 116.214 22.986 116.327C22.8166 116.375 22.6375 116.378 22.4664 116.337C22.2952 116.295 22.1378 116.21 22.0093 116.089C21.7646 115.854 21.5944 115.551 21.5196 115.22C21.401 114.579 21.5031 113.917 21.8094 113.342C22.0969 112.796 22.4842 112.31 22.9512 111.907C23.3921 111.52 23.8719 111.179 24.3829 110.89C26.3595 109.754 28.4056 109.2 30.1358 109.2C31.5049 109.178 32.8584 109.492 34.0773 110.116C34.5182 110.339 34.9275 110.62 35.2946 110.951Z" fill="#FAFAFA"/>
<path d="M14.8763 87.8026C14.0068 83.3481 7.70328 83.1829 6.59908 87.5853C6.58169 87.6519 6.5643 87.7215 6.54981 87.791C4.92393 94.7264 10.416 115.219 11.8911 116.402C13.3663 117.584 14.8299 118.923 17.3513 117.877C18.8265 117.265 34.1433 103.728 34.1433 103.728C34.1433 103.728 37.6849 107.122 38.8674 106.826C40.0498 106.531 42.3046 103.059 42.3046 103.059C42.3046 103.059 44.4956 106.342 44.7709 106.392C44.9205 106.416 45.0739 106.399 45.2142 106.342C45.3546 106.284 45.4764 106.19 45.5663 106.068C45.6562 105.946 45.7107 105.801 45.7238 105.65C45.7369 105.499 45.708 105.348 45.6404 105.212C45.3506 104.769 42.5567 98.6621 42.5567 98.6621C42.5567 98.6621 44.7565 98.4244 44.313 97.6854C44.313 97.6854 44.258 97.0072 42.7712 97.1377C41.2844 97.2681 41.3134 95.5697 38.5457 95.732C35.7779 95.8943 30.0627 96.6015 22.0261 102.769L18.3019 105.395L14.8763 87.8026Z" fill="#FFBE9D"/>
<path d="M22.0163 102.769L22.1091 102.694L22.3989 102.482L23.4857 101.668C24.8666 100.68 26.3047 99.7739 27.7924 98.9552C30.0679 97.6946 32.5059 96.7526 35.0378 96.1556C35.7682 96.002 36.5246 95.8658 37.31 95.7759C37.7042 95.7324 38.1012 95.6977 38.507 95.6687C38.9202 95.638 39.3356 95.6565 39.7445 95.7237C40.1661 95.7978 40.5689 95.9544 40.9298 96.1846C41.2979 96.4077 41.608 96.7178 41.979 96.9091C42.1585 97.0024 42.3564 97.0549 42.5586 97.0627C42.7644 97.0627 42.9904 97.0366 43.2165 97.0453C43.4465 97.0454 43.6749 97.0846 43.8918 97.1612C44.0122 97.1953 44.1216 97.2603 44.2091 97.3498C44.2965 97.4393 44.359 97.5501 44.3903 97.6713V97.6423C44.4493 97.7353 44.4701 97.8474 44.4482 97.9553C44.4162 98.0585 44.3523 98.1488 44.2656 98.2133C44.106 98.331 43.9277 98.4212 43.7382 98.4799C43.3606 98.5994 42.9724 98.6819 42.5789 98.7263L42.6398 98.6248L44.6047 102.876C44.9496 103.601 45.2916 104.346 45.6654 105.067C45.7257 105.157 45.7735 105.255 45.8075 105.357C45.8277 105.468 45.8277 105.582 45.8075 105.693C45.7702 105.92 45.653 106.126 45.4771 106.273C45.3899 106.347 45.2887 106.402 45.1796 106.435C45.0705 106.469 44.9558 106.48 44.8424 106.467H44.7583C44.7371 106.464 44.7166 106.457 44.6975 106.447L44.6569 106.418C44.6135 106.381 44.5728 106.342 44.5352 106.299C44.4627 106.221 44.3932 106.14 44.3294 106.056C43.573 105.088 42.9035 104.085 42.2369 103.1H42.3615C41.8374 103.898 41.2685 104.667 40.6574 105.401C40.3581 105.764 40.0316 106.104 39.6807 106.418C39.5909 106.493 39.4952 106.563 39.4054 106.638C39.3064 106.705 39.2038 106.766 39.0982 106.821C38.9893 106.879 38.8695 106.915 38.7463 106.925C38.6231 106.935 38.4992 106.919 38.3823 106.879C37.9431 106.739 37.5271 106.535 37.1477 106.273C36.7681 106.027 36.4087 105.763 36.058 105.491C35.3624 104.943 34.7103 104.372 34.0901 103.786H34.1829C29.3255 108.058 25.1667 111.646 22.1931 114.133C20.7064 115.376 19.5152 116.341 18.6805 116.979C18.2632 117.298 17.9357 117.535 17.7068 117.683C17.5936 117.763 17.4721 117.83 17.3445 117.883C17.3445 117.883 17.472 117.819 17.6952 117.663C17.9183 117.506 18.2429 117.269 18.6545 116.944C19.4775 116.298 20.66 115.321 22.1323 114.069C25.0913 111.565 29.2386 107.963 34.0872 103.682L34.1336 103.642L34.18 103.685C34.7944 104.265 35.4494 104.844 36.142 105.375C36.4869 105.644 36.8463 105.908 37.2202 106.148C37.5865 106.399 37.9879 106.595 38.4113 106.728C38.846 106.89 39.2344 106.583 39.5706 106.296C39.9142 105.987 40.2349 105.653 40.5299 105.296C41.1364 104.566 41.7015 103.803 42.2224 103.01L42.2833 102.914L42.347 103.007C43.0107 103.989 43.686 104.995 44.4308 105.954C44.4965 106.035 44.5632 106.114 44.6308 106.189C44.6656 106.224 44.7004 106.262 44.7351 106.29L44.7583 106.308C44.7583 106.308 44.7583 106.308 44.7583 106.334C44.7583 106.36 44.7583 106.38 44.7583 106.311H44.8279C44.922 106.322 45.0174 106.313 45.1081 106.286C45.1989 106.258 45.283 106.213 45.3553 106.151C45.5061 106.033 45.6054 105.861 45.6324 105.672C45.6594 105.482 45.6121 105.29 45.5003 105.134C45.1148 104.395 44.7786 103.659 44.4337 102.932L42.4717 98.6741L42.4311 98.5842H42.5296C42.9123 98.5405 43.2898 98.4599 43.657 98.3437C43.8306 98.2923 43.9942 98.212 44.141 98.106C44.2031 98.0603 44.2496 97.9965 44.2743 97.9235C44.287 97.8522 44.2725 97.7788 44.2338 97.7177V97.6974C44.2033 97.6035 44.15 97.5186 44.0787 97.4503C44.0074 97.382 43.9203 97.3325 43.8251 97.3061C43.6239 97.2361 43.4122 97.2008 43.1991 97.2018C42.9817 97.2018 42.7731 97.2221 42.5412 97.2192C42.3127 97.2102 42.0891 97.1509 41.8862 97.0453C41.4863 96.8395 41.182 96.5294 40.8284 96.3121C40.4818 96.0925 40.096 95.942 39.6923 95.8687C38.8895 95.7237 38.0751 95.8484 37.2955 95.9179C36.5159 95.9875 35.7624 96.1382 35.0349 96.2889C32.5057 96.8752 30.0681 97.8034 27.7895 99.048C26.301 99.8583 24.8584 100.75 23.4683 101.72L22.3728 102.517L22.083 102.72L22.0163 102.769Z" fill="#2BB673"/>
<path d="M16.9257 110.381C16.9257 110.381 16.8939 110.305 16.8649 110.166C16.8251 109.966 16.8008 109.764 16.7924 109.56C16.7173 108.205 17.0911 106.862 17.8561 105.741C17.9705 105.572 18.0964 105.411 18.2328 105.259C18.3314 105.155 18.3893 105.1 18.3951 105.106C18.4009 105.112 18.2125 105.367 17.9459 105.799C17.2453 106.929 16.8814 108.236 16.8968 109.566C16.9026 110.062 16.9518 110.378 16.9257 110.381Z" fill="#2BB673"/>
<path d="M10.5936 80.0977C10.4516 80.1933 5.35085 81.7177 4.54806 86.946C3.74526 92.1744 4.21766 101.28 4.21766 101.28L18.0536 100.33L14.086 81.9496L10.5936 80.0977Z" fill="#2BB673"/>
<path d="M39.9918 106.106C39.9686 106.106 40.0063 105.917 39.9918 105.631C39.9772 105.255 39.8782 104.887 39.702 104.555C39.525 104.223 39.2766 103.934 38.9745 103.709C38.7427 103.541 38.5717 103.471 38.5804 103.445C38.7446 103.465 38.9012 103.525 39.0354 103.622C39.3745 103.836 39.6506 104.136 39.8353 104.492C40.0252 104.847 40.1144 105.248 40.0932 105.651C40.0967 105.808 40.0618 105.965 39.9918 106.106Z" fill="#2BB673"/>
<path d="M41.2634 104.554C41.1973 104.106 41.0371 103.677 40.7933 103.296C40.5496 102.914 40.2278 102.588 39.8491 102.34C39.9859 102.363 40.1145 102.421 40.223 102.508C40.5021 102.692 40.7391 102.933 40.9185 103.215C41.1005 103.497 41.2201 103.814 41.2692 104.145C41.3028 104.28 41.3008 104.421 41.2634 104.554Z" fill="#2BB673"/>
<path d="M41.2646 101.25C41.2646 101.236 41.3951 101.294 41.5545 101.436C41.7598 101.625 41.924 101.854 42.0367 102.109C42.1494 102.365 42.2082 102.64 42.2095 102.92C42.2095 103.131 42.1718 103.259 42.1544 103.256C42.1125 102.884 42.0259 102.519 41.8964 102.169C41.7224 101.839 41.5103 101.531 41.2646 101.25Z" fill="#2BB673"/>
<path d="M16.3661 91.6481C16.3421 91.6527 16.3176 91.6527 16.2936 91.6481L16.085 91.625C15.8176 91.5919 15.5486 91.5735 15.2793 91.5699C14.2876 91.5597 13.3034 91.7418 12.3811 92.1061C11.0101 92.6412 9.83168 93.5763 8.99893 94.7898C8.50345 95.491 8.24918 96.3341 8.27438 97.1924C8.29403 97.6434 8.42764 98.0821 8.66274 98.4676C8.90852 98.8581 9.2841 99.1495 9.72347 99.2906C10.1603 99.4358 10.6356 99.4131 11.0566 99.2269C11.2548 99.1321 11.43 98.9955 11.5701 98.8263C11.7102 98.6572 11.8119 98.4596 11.8681 98.2473C11.9641 97.8241 11.9461 97.3831 11.816 96.9692C11.6976 96.5685 11.5114 96.1911 11.2653 95.8534C10.8278 95.2676 10.2786 94.7744 9.64929 94.4023C9.02 94.0302 8.32316 93.7866 7.59911 93.6856C6.6157 93.5567 5.61572 93.6907 4.70093 94.0739C4.4531 94.1796 4.21209 94.3006 3.97929 94.4362L3.7996 94.5463L3.73584 94.5782C4.02378 94.3518 4.34052 94.1647 4.67775 94.0218C5.59696 93.6103 6.61117 93.458 7.6107 93.5812C8.35301 93.6758 9.06885 93.9182 9.71595 94.294C10.363 94.6698 10.9283 95.1715 11.3783 95.7694C11.6379 96.1189 11.8341 96.5113 11.958 96.9286C12.0968 97.3678 12.1158 97.836 12.013 98.285C11.952 98.5185 11.8408 98.736 11.6871 98.9222C11.5335 99.1084 11.341 99.2589 11.1233 99.3631C10.6657 99.565 10.1496 99.5908 9.6742 99.4355C9.20291 99.278 8.80186 98.9601 8.54101 98.5371C8.28898 98.1348 8.14337 97.6751 8.11788 97.2011C8.09773 96.3082 8.36942 95.4331 8.89169 94.7086C9.74426 93.4772 10.9511 92.5342 12.3521 92.0046C13.2861 91.6463 14.2824 91.4787 15.2822 91.5119C15.6471 91.5213 16.0102 91.5669 16.3661 91.6481Z" fill="#FAFAFA"/>
<path d="M15.8942 84.1426C15.7834 84.209 15.6658 84.2634 15.5436 84.3049C15.4044 84.3662 15.261 84.4175 15.1146 84.4585C14.9249 84.5245 14.7314 84.5787 14.535 84.6208C14.2992 84.68 14.0602 84.7255 13.8191 84.757C13.5583 84.8005 13.2801 84.815 12.9845 84.8353C12.3441 84.8555 11.7033 84.8118 11.0717 84.7049C10.4423 84.5861 9.82663 84.4035 9.23422 84.16C8.96469 84.0383 8.70676 83.9282 8.4807 83.7977C8.265 83.6842 8.05599 83.5584 7.85469 83.421C7.68607 83.3121 7.52353 83.194 7.3678 83.0674C7.24638 82.9787 7.13116 82.8819 7.02292 82.7776C6.92287 82.6965 6.83156 82.6052 6.75049 82.5052C6.77078 82.4791 7.16783 82.8645 7.90976 83.334C8.11356 83.4637 8.32449 83.5817 8.54156 83.6876C8.78482 83.816 9.03437 83.9321 9.28929 84.0354C10.4604 84.5112 11.718 84.7373 12.9816 84.6991C13.2714 84.6817 13.5612 84.673 13.8046 84.6353C14.0481 84.5976 14.2973 84.5629 14.5147 84.5194C15.3755 84.3368 15.8826 84.1136 15.8942 84.1426Z" fill="#FAFAFA"/>
<path d="M17.0342 93.0078C17.049 93.0531 17.0597 93.0997 17.0661 93.1469C17.0835 93.2513 17.1067 93.3846 17.1327 93.5498C17.1907 93.9207 17.269 94.4192 17.3646 95.0655C17.553 96.3784 17.8167 98.2013 18.121 100.317V100.395H18.0457L14.8113 100.621L7.31083 101.114L5.03866 101.247L4.41845 101.276H4.21558C4.28557 101.257 4.35755 101.247 4.43004 101.244L5.04445 101.189L7.31662 101.01L14.8142 100.471L18.0457 100.253L17.979 100.334C17.6892 98.2158 17.4515 96.39 17.2777 95.0771C17.1965 94.4395 17.1327 93.9178 17.0864 93.5556C17.0661 93.3875 17.0516 93.2658 17.04 93.1469C17.0314 93.1011 17.0294 93.0542 17.0342 93.0078Z" fill="#313131"/>
<g opacity="0.2">
<path d="M10.3247 79.951C10.1856 80.4408 10.5739 80.8987 10.8261 81.3393C11.313 82.1855 11.339 83.2086 11.3825 84.1853C11.415 85.9802 11.6909 87.7624 12.2027 89.4831C12.7591 91.1815 13.7155 92.79 15.1299 93.8855C16.5442 94.981 18.4425 95.5171 20.1727 95.0679C21.9029 94.6187 23.3607 93.0827 23.5085 91.3003C23.6563 89.5179 22.5811 87.9297 21.9666 86.2662C21.4913 84.9852 21.2798 83.623 21.0074 82.2812C20.7349 80.9393 20.3871 79.5917 19.6771 78.4237C18.967 77.2557 17.8396 76.2791 16.4891 76.0327C15.1385 75.7864 13.6083 76.424 13.0635 77.676" fill="black"/>
</g>
<path d="M17.0104 56.5529V58.0919L16.9089 81.1642C16.9089 83.8421 19.1927 85.9868 22.059 85.9781C24.9572 85.9781 27.3482 83.7697 27.4032 81.0512C27.4641 78.211 27.5771 75.223 27.5771 75.223C27.5771 75.223 31.2462 74.681 32.0896 69.9193C32.5098 67.5544 32.4576 63.6592 32.3156 60.4742C32.2854 59.7945 32.1179 59.1281 31.8232 58.5149C31.5285 57.9018 31.1127 57.3546 30.6009 56.9064C30.0891 56.4583 29.4919 56.1184 28.8452 55.9072C28.1985 55.696 27.5158 55.6179 26.8381 55.6777L17.0104 56.5529Z" fill="#FFBE9D"/>
<path d="M31.1962 63.3998C31.1947 63.5598 31.1309 63.7129 31.0183 63.8265C30.9057 63.9402 30.7533 64.0054 30.5934 64.0085C30.5151 64.014 30.4365 64.0035 30.3624 63.9778C30.2883 63.952 30.2202 63.9115 30.1622 63.8587C30.1042 63.8058 30.0576 63.7418 30.0251 63.6704C29.9926 63.599 29.9749 63.5217 29.9731 63.4433C29.9746 63.2841 30.0381 63.1318 30.1502 63.0187C30.2622 62.9056 30.4139 62.8406 30.5731 62.8376C30.6513 62.8317 30.73 62.8417 30.8042 62.8671C30.8785 62.8925 30.9468 62.9327 31.0051 62.9852C31.0633 63.0378 31.1103 63.1017 31.1432 63.1729C31.176 63.2442 31.194 63.3214 31.1962 63.3998Z" fill="#313131"/>
<path d="M31.4361 62.4969C31.3579 62.5751 30.9029 62.2215 30.2421 62.2071C29.5813 62.1926 29.0828 62.5172 29.0249 62.436C28.9901 62.3983 29.0712 62.2563 29.2828 62.1085C29.5705 61.913 29.9118 61.8117 30.2595 61.8187C30.6016 61.8246 30.9332 61.9382 31.2072 62.1433C31.4072 62.3143 31.4738 62.4592 31.4361 62.4969Z" fill="#313131"/>
<path d="M24.9576 63.2797C24.9562 63.4394 24.8923 63.5921 24.7796 63.7053C24.667 63.8185 24.5145 63.8831 24.3548 63.8854C24.2768 63.8909 24.1985 63.8806 24.1246 63.855C24.0507 63.8294 23.9827 63.7892 23.9247 63.7366C23.8668 63.6841 23.8201 63.6204 23.7874 63.5493C23.7547 63.4783 23.7368 63.4013 23.7346 63.3231C23.7361 63.1637 23.7995 63.011 23.9114 62.8975C24.0234 62.7839 24.1751 62.7183 24.3345 62.7145C24.413 62.7086 24.4919 62.7187 24.5664 62.7443C24.6408 62.7698 24.7093 62.8103 24.7676 62.8632C24.8259 62.9161 24.8728 62.9803 24.9055 63.0519C24.9382 63.1235 24.9559 63.201 24.9576 63.2797Z" fill="#313131"/>
<path d="M24.9593 62.5016C24.8811 62.5798 24.4232 62.2292 23.7653 62.2118C23.1074 62.1944 22.606 62.5219 22.5481 62.4407C22.5133 62.4031 22.5944 62.261 22.806 62.1103C23.0943 61.9162 23.4352 61.8151 23.7827 61.8205C24.1261 61.8243 24.4593 61.938 24.7333 62.1451C24.9304 62.3219 24.997 62.4668 24.9593 62.5016Z" fill="#313131"/>
<path d="M27.2644 67.4328C27.6132 67.3296 27.9734 67.2702 28.3368 67.256C28.5078 67.256 28.6672 67.2125 28.6961 67.0995C28.7134 66.926 28.678 66.7513 28.5947 66.5981C28.4411 66.1866 28.2846 65.7576 28.1194 65.3084C27.4615 63.471 26.9862 61.9639 27.0616 61.9378C27.1369 61.9118 27.7281 63.3869 28.386 65.2157L28.841 66.5112C28.9431 66.7167 28.9698 66.9516 28.9164 67.1748C28.8898 67.2345 28.8498 67.2872 28.7995 67.3289C28.7493 67.3706 28.6901 67.4002 28.6266 67.4154C28.5315 67.4372 28.4343 67.4489 28.3368 67.4502C27.9799 67.4869 27.6199 67.481 27.2644 67.4328Z" fill="#313131"/>
<path d="M27.5791 75.2341C25.326 75.2314 23.1181 74.6012 21.2031 73.4141C21.2031 73.4141 22.6957 76.7209 27.4806 76.3586L27.5791 75.2341Z" fill="#2BB673"/>
<path d="M26.9566 69.0151C26.8346 68.8548 26.6736 68.7283 26.489 68.6477C26.3044 68.5671 26.1022 68.5349 25.9017 68.5543C25.756 68.5649 25.6139 68.6047 25.4839 68.6715C25.3539 68.7382 25.2388 68.8304 25.1452 68.9427C25.0555 69.0507 25.001 69.1836 24.9891 69.3235C24.9771 69.4634 25.0084 69.6036 25.0786 69.7252C25.1827 69.8478 25.3216 69.9358 25.4768 69.9777C25.6321 70.0197 25.7964 70.0135 25.948 69.96C26.2611 69.8548 26.5505 69.6894 26.8001 69.4731C26.8749 69.4214 26.9397 69.3566 26.9914 69.2818C27.0149 69.245 27.0273 69.2022 27.0273 69.1586C27.0273 69.115 27.0149 69.0722 26.9914 69.0354" fill="#2BB673"/>
<path d="M25.3155 67.8517C25.4228 67.8517 25.4112 68.5617 26.0169 69.0805C26.6226 69.5993 27.3819 69.5326 27.3848 69.6341C27.3848 69.6775 27.2138 69.7703 26.8922 69.7732C26.4725 69.7723 26.0668 69.6223 25.7474 69.3501C25.4399 69.0909 25.2464 68.7215 25.2083 68.3212C25.1851 68.0372 25.2692 67.8459 25.3155 67.8517Z" fill="#313131"/>
<path d="M25.1761 59.9233C25.1065 60.1 24.4515 60.0044 23.6777 60.0827C22.9039 60.1609 22.2721 60.3725 22.1736 60.1986C22.1301 60.1203 22.2402 59.9551 22.4953 59.787C22.8329 59.5752 23.2166 59.448 23.614 59.4161C24.0075 59.378 24.4045 59.4326 24.7732 59.5755C25.063 59.6972 25.2051 59.8392 25.1761 59.9233Z" fill="#313131"/>
<path d="M31.2269 60.5825C31.1081 60.7303 30.6473 60.568 30.1111 60.5506C29.5749 60.5332 29.1025 60.6318 28.9982 60.4753C28.9547 60.397 29.0301 60.2492 29.233 60.1101C29.5074 59.9447 29.825 59.8649 30.1451 59.8809C30.4652 59.8969 30.7732 60.008 31.0298 60.2C31.2182 60.3565 31.2791 60.5014 31.2269 60.5825Z" fill="#313131"/>
<path d="M22.9936 54.996C24.2862 56.6799 22.9936 59.0912 21.5272 60.6388C20.0607 62.1864 18.3015 63.9775 18.7217 66.0555C19.2115 68.4668 22.5299 69.9825 22.0633 72.3967C21.8923 73.2661 21.1939 74.0342 21.2113 74.9326C21.2113 76.5527 23.3269 77.3207 23.9442 78.8161C24.7905 80.8709 22.5386 82.9489 22.5241 85.1689C22.5241 86.4296 23.2429 87.5976 23.2951 88.8583C23.3965 91.4406 20.3621 93.3592 17.8523 92.7506C15.3425 92.1419 13.6007 89.6959 13.0326 87.1658C12.4646 84.6357 12.8384 82.0186 13.2181 79.4653C12.9775 80.555 11.3256 80.7753 10.5112 80.0131C9.69681 79.2509 9.58668 77.9844 9.75767 76.886C10.1866 74.1182 11.9777 71.762 12.8152 69.0928C13.5485 66.7568 13.5282 64.2644 13.8354 61.8473C14.1426 59.4302 14.8672 56.8856 16.7046 55.2685C18.542 53.6513 21.7416 53.4223 23.2574 55.3438" fill="#313131"/>
<path d="M16.4495 91.8017C16.4681 91.7687 16.4884 91.7368 16.5104 91.706C16.5538 91.6394 16.6147 91.5466 16.6929 91.4336C17.2729 90.5131 17.597 89.4547 17.6319 88.3673C17.6674 87.49 17.507 86.6158 17.1624 85.8082C16.7828 84.9098 16.1133 84.0693 15.4061 83.1535C15.0328 82.686 14.691 82.1942 14.3831 81.6812C14.0626 81.1347 13.8335 80.5395 13.7049 79.9191C13.5637 79.2519 13.6201 78.558 13.8672 77.9223C14.0049 77.5991 14.2014 77.3042 14.4469 77.0528C14.7014 76.8067 14.9757 76.5818 15.267 76.3805C15.8467 75.9689 16.4263 75.5545 16.7538 74.9111C17.0459 74.2446 17.0931 73.4963 16.8871 72.7983C16.5393 71.3492 15.5308 70.2189 14.8845 68.9582C14.5412 68.3423 14.3364 67.6588 14.2846 66.9556C14.2552 66.2786 14.3832 65.604 14.6584 64.9848C15.189 63.8679 15.9553 62.8792 16.9045 62.0867C17.774 61.3129 18.6144 60.655 19.3129 59.971C19.9582 59.3751 20.4955 58.6721 20.9011 57.893C21.2051 57.303 21.3902 56.659 21.4459 55.9976C21.4787 55.58 21.4365 55.1599 21.3213 54.7572C21.2402 54.4674 21.1706 54.3456 21.1822 54.3398C21.2513 54.4703 21.3076 54.6072 21.3503 54.7485C21.4797 55.1525 21.5318 55.5772 21.5039 56.0005C21.461 56.6721 21.2815 57.3279 20.9764 57.9278C20.5739 58.7207 20.0365 59.4376 19.3882 60.0463C18.6898 60.7419 17.8406 61.4056 16.9886 62.1794C16.0569 62.9689 15.3058 63.9494 14.7859 65.0544C14.522 65.6543 14.3991 66.3066 14.4266 66.9614C14.4781 67.6428 14.6758 68.305 15.0062 68.9032C15.3308 69.5234 15.7336 70.1175 16.1162 70.7406C16.5238 71.3651 16.8308 72.0497 17.0262 72.7693C17.2407 73.5023 17.1894 74.2876 16.8813 74.9864C16.5422 75.6733 15.9075 76.1022 15.3453 76.508C15.0604 76.7042 14.7919 76.9232 14.5425 77.163C14.3069 77.4001 14.1164 77.678 13.9802 77.9832C13.7444 78.5933 13.69 79.2586 13.8237 79.8988C13.9475 80.5098 14.1687 81.0969 14.4787 81.6378C14.784 82.1423 15.1219 82.6263 15.4902 83.0868C16.1887 83.9969 16.861 84.8576 17.2436 85.7763C17.5898 86.6004 17.7454 87.4921 17.6986 88.3847C17.6552 89.4827 17.3102 90.5476 16.7016 91.4626C16.6176 91.5814 16.548 91.6654 16.5046 91.7263C16.4883 91.7529 16.4698 91.7781 16.4495 91.8017Z" fill="#455A64"/>
<path d="M51.9898 97.2809L41.0057 116.461L25.4512 117V118.71H70.8917L83.2582 98.4518C83.3591 98.2771 83.4126 98.0792 83.4136 97.8775C83.4146 97.6758 83.3629 97.4773 83.2637 97.3017C83.1644 97.1261 83.0211 96.9794 82.8478 96.8761C82.6746 96.7729 82.4774 96.7166 82.2757 96.7129H52.9867C52.7856 96.7129 52.5878 96.7653 52.413 96.8649C52.2382 96.9645 52.0924 97.1079 51.9898 97.2809Z" fill="#313131"/>
<path d="M65.7492 107.519C65.0594 108.591 64.0103 109.139 63.3785 108.739C62.7467 108.339 62.8134 107.148 63.5031 106.076C64.1929 105.003 65.242 104.456 65.8738 104.855C66.5056 105.255 66.439 106.447 65.7492 107.519Z" fill="#E0E0E0"/>
<path d="M120.549 110.063C120.532 110.012 120.511 109.962 120.485 109.915L120.285 109.486C120.045 108.932 119.851 108.359 119.706 107.773C119.317 106.249 119.181 103.919 119.758 101.154C120.069 99.6467 120.478 98.1615 120.984 96.708C121.505 95.1285 122.108 93.4534 122.601 91.6449C123.158 89.7562 123.426 87.7943 123.398 85.8254C123.325 83.7676 122.714 81.7128 122.044 79.6667C121.375 77.6206 120.685 75.6093 120.476 73.6008C120.247 71.6615 120.638 69.6994 121.592 67.9958C122.479 66.3612 123.595 64.9643 124.43 63.5152C125.21 62.1728 125.786 60.7212 126.137 59.2085C126.64 57.0187 126.676 54.7475 126.244 52.5427C126.091 51.7351 125.858 50.9448 125.548 50.1836C125.558 50.2367 125.571 50.289 125.589 50.3401C125.624 50.4531 125.67 50.6038 125.731 50.7922C125.905 51.3727 126.049 51.9618 126.163 52.5572C126.562 54.753 126.502 57.0076 125.989 59.1795C125.632 60.6734 125.056 62.1061 124.279 63.4312C123.444 64.8629 122.323 66.254 121.418 67.9088C120.438 69.6436 120.032 71.6443 120.259 73.624C120.468 75.673 121.163 77.6815 121.83 79.7363C122.496 81.7911 123.102 83.8111 123.18 85.8369C123.209 87.7846 122.946 89.7256 122.401 91.5956C121.917 93.3983 121.32 95.0734 120.807 96.6558C120.306 98.1183 119.902 99.6121 119.598 101.128C119.036 103.913 119.195 106.266 119.616 107.794C119.772 108.382 119.984 108.954 120.247 109.503L120.468 109.924C120.489 109.973 120.516 110.02 120.549 110.063Z" fill="#313131"/>
<path d="M123.282 64.9444C123.282 64.9444 124.978 59.522 121.935 56.3456C121.911 56.3194 121.881 56.3003 121.848 56.2905C121.814 56.2808 121.778 56.2808 121.745 56.2905C121.711 56.3002 121.681 56.3192 121.657 56.3454C121.634 56.3715 121.619 56.4037 121.613 56.4383C121.451 57.3338 121.248 60.061 123.282 64.9444Z" fill="#2BB673"/>
<path d="M122.266 58.1504C122.27 58.4877 122.309 58.8237 122.382 59.1532C122.492 59.84 122.622 60.6515 122.767 61.5442C122.912 62.4368 123.037 63.2483 123.147 63.938C123.175 64.2724 123.235 64.6033 123.326 64.9263C123.359 64.5902 123.349 64.2514 123.297 63.9178C123.239 63.2975 123.132 62.4455 122.976 61.5094C122.819 60.5733 122.66 59.7328 122.529 59.1242C122.478 58.7908 122.389 58.4642 122.266 58.1504Z" fill="#313131"/>
<path d="M121.305 77.7367C121.305 77.7367 120.267 72.149 116.088 70.781C116.055 70.7689 116.02 70.7663 115.986 70.7735C115.951 70.7806 115.92 70.7973 115.895 70.8215C115.87 70.8457 115.852 70.8765 115.844 70.9103C115.835 70.9442 115.837 70.9798 115.847 71.0129C116.114 71.865 117.21 74.3719 121.305 77.7367Z" fill="#2BB673"/>
<path d="M117.215 72.209C117.38 72.5036 117.574 72.7812 117.794 73.0379C118.214 73.5972 118.707 74.2493 119.243 74.9709L120.692 76.9098C120.876 77.1919 121.084 77.4568 121.316 77.701C121.185 77.3922 121.018 77.1002 120.817 76.8316C120.478 76.3099 119.982 75.6085 119.409 74.8521C118.835 74.0957 118.299 73.4291 117.896 72.9538C117.699 72.6795 117.47 72.4294 117.215 72.209Z" fill="#313131"/>
<path d="M122.419 91.7552C122.419 91.7552 123.048 86.1067 119.454 83.5708C119.426 83.5529 119.394 83.5427 119.361 83.5412C119.328 83.5397 119.295 83.547 119.265 83.5623C119.236 83.5776 119.211 83.6003 119.193 83.6283C119.176 83.6562 119.165 83.6884 119.164 83.7215C119.167 84.6344 119.489 87.35 122.419 91.7552Z" fill="#2BB673"/>
<path d="M120.124 85.2812C120.194 85.6107 120.298 85.9321 120.434 86.2405C120.674 86.8984 120.956 87.6664 121.269 88.5156C121.582 89.3648 121.848 90.1357 122.097 90.7936C122.191 91.1159 122.313 91.4292 122.463 91.7297C122.43 91.3943 122.356 91.0643 122.242 90.7472C122.068 90.1473 121.799 89.3329 121.469 88.4287C121.138 87.5244 120.819 86.7419 120.573 86.171C120.457 85.8586 120.306 85.5601 120.124 85.2812Z" fill="#313131"/>
<path d="M119.274 105.854C119.274 105.854 119.703 100.185 116.023 97.7797C115.994 97.7613 115.961 97.7511 115.927 97.7501C115.892 97.7491 115.859 97.7574 115.829 97.774C115.799 97.7907 115.775 97.8151 115.758 97.8447C115.741 97.8742 115.732 97.9079 115.733 97.942C115.77 98.852 116.188 101.556 119.274 105.854Z" fill="#2BB673"/>
<path d="M116.75 99.4668C116.828 99.7939 116.94 100.112 117.086 100.414L118.002 102.658C118.344 103.498 118.651 104.257 118.912 104.904C119.017 105.223 119.151 105.533 119.312 105.828C119.266 105.494 119.179 105.166 119.054 104.852C118.86 104.272 118.561 103.455 118.199 102.577C117.837 101.698 117.489 100.916 117.225 100.357C117.1 100.043 116.941 99.7451 116.75 99.4668Z" fill="#313131"/>
<path d="M125.719 60.179C125.719 60.179 130.756 57.5475 130.855 53.1509C130.855 53.1169 130.847 53.0832 130.83 53.0537C130.813 53.0241 130.788 52.9997 130.759 52.983C130.729 52.9663 130.695 52.9581 130.661 52.9591C130.627 52.9601 130.594 52.9703 130.565 52.9886C129.811 53.5045 127.739 55.2869 125.719 60.179Z" fill="#2BB673"/>
<path d="M129.81 54.6621C129.575 54.9025 129.365 55.1667 129.184 55.4504C128.772 56.0156 128.294 56.6792 127.764 57.4125C127.233 58.1457 126.749 58.8094 126.338 59.3716C126.12 59.6287 125.926 59.9051 125.758 60.1976C126.019 59.9832 126.252 59.7368 126.451 59.4644C126.848 58.9862 127.375 58.3051 127.929 57.5371C128.483 56.7691 128.964 56.059 129.3 55.5345C129.503 55.2644 129.674 54.9716 129.81 54.6621Z" fill="#313131"/>
<path d="M120.309 71.8277C120.309 71.8277 125.497 69.5091 125.865 65.1242C125.869 65.0887 125.863 65.0527 125.847 65.0205C125.832 64.9883 125.807 64.9612 125.777 64.9423C125.747 64.9235 125.711 64.9137 125.676 64.9141C125.64 64.9145 125.605 64.925 125.575 64.9445C124.801 65.4314 122.622 67.0718 120.309 71.8277Z" fill="#2BB673"/>
<path d="M124.728 66.5703C124.477 66.7947 124.25 67.0454 124.053 67.318L122.516 69.1903L120.975 71.0596C120.742 71.303 120.534 71.5679 120.352 71.8508C120.623 71.6493 120.87 71.4169 121.088 71.1581C121.514 70.706 122.082 70.0597 122.682 69.3265C123.282 68.5932 123.803 67.9122 124.171 67.4108C124.388 67.1522 124.574 66.8703 124.728 66.5703Z" fill="#313131"/>
<path d="M123.295 84.8199C123.295 84.8199 126.857 80.3915 125.187 76.3254C125.175 76.2933 125.153 76.2653 125.125 76.2446C125.098 76.2239 125.065 76.2112 125.03 76.2079C124.996 76.2046 124.961 76.2108 124.93 76.2259C124.899 76.241 124.873 76.2644 124.854 76.2935C124.376 77.0673 123.188 79.5336 123.295 84.8199Z" fill="#2BB673"/>
<path d="M124.832 78.127C124.714 78.4423 124.626 78.7684 124.571 79.1007C124.424 79.7818 124.25 80.5817 124.058 81.4685C123.867 82.3554 123.687 83.1524 123.537 83.8335C123.443 84.1555 123.378 84.4853 123.343 84.8188C123.494 84.518 123.608 84.1997 123.682 83.8711C123.856 83.2741 124.067 82.4394 124.261 81.512C124.455 80.5846 124.615 79.7412 124.713 79.1268C124.79 78.799 124.83 78.4636 124.832 78.127Z" fill="#313131"/>
<path d="M119.768 100.11C119.768 100.11 124.915 97.7042 125.208 93.3164C125.211 93.2811 125.205 93.2455 125.189 93.2138C125.173 93.182 125.149 93.1554 125.119 93.1369C125.088 93.1185 125.053 93.1089 125.018 93.1094C124.983 93.1099 124.948 93.1203 124.918 93.1396C124.15 93.6236 122 95.3161 119.768 100.11Z" fill="#2BB673"/>
<path d="M124.098 94.7773C123.852 95.0077 123.63 95.2621 123.434 95.5367L121.93 97.4379L120.435 99.3391C120.207 99.5871 120.003 99.8559 119.826 100.142C120.094 99.9365 120.336 99.7001 120.548 99.4376C120.968 98.9797 121.524 98.3218 122.113 97.577C122.701 96.8322 123.211 96.1453 123.562 95.6381C123.771 95.3714 123.951 95.0828 124.098 94.7773Z" fill="#313131"/>
<path d="M109.513 77.7676C109.513 77.7676 109.513 77.8082 109.513 77.8922C109.513 77.9762 109.513 78.1096 109.513 78.2545C109.527 78.5965 109.547 79.0573 109.574 79.634C109.637 80.8454 109.73 82.5322 109.843 84.5609C110.211 86.6157 111.257 88.9082 112.666 91.1079C113.698 92.7395 114.779 94.2205 115.712 95.6C116.56 96.8015 117.323 98.0604 117.996 99.3677C118.438 100.256 118.796 101.183 119.065 102.138C119.155 102.477 119.222 102.741 119.262 102.924C119.278 103.017 119.303 103.108 119.338 103.196C119.334 103.099 119.323 103.002 119.303 102.906C119.28 102.721 119.224 102.451 119.143 102.106C118.902 101.137 118.564 100.194 118.132 99.2923C117.474 97.9652 116.72 96.6885 115.874 95.4725C114.947 94.0843 113.872 92.6004 112.846 90.9775C111.446 88.7748 110.402 86.5317 110.023 84.5087C109.881 82.48 109.765 80.802 109.678 79.5818C109.632 79.0022 109.594 78.5501 109.568 78.2081C109.568 78.0632 109.542 77.9444 109.53 77.8458C109.526 77.8193 109.521 77.7932 109.513 77.7676Z" fill="#313131"/>
<path d="M112.576 90.6916C112.576 90.6916 110.397 85.446 113.139 81.9971C113.16 81.9695 113.189 81.9483 113.221 81.936C113.254 81.9237 113.289 81.9206 113.324 81.9272C113.358 81.9339 113.39 81.9498 113.415 81.9734C113.441 81.997 113.46 82.0273 113.469 82.0609C113.713 82.9477 114.162 85.6459 112.576 90.6916Z" fill="#2BB673"/>
<path d="M112.974 83.834C112.88 84.1579 112.823 84.4913 112.803 84.8281C112.725 85.4454 112.638 86.3003 112.572 87.2451C112.505 88.1899 112.473 89.0507 112.473 89.6709C112.451 90.0083 112.472 90.3471 112.534 90.6795C112.593 90.3485 112.622 90.0129 112.621 89.6767C112.667 88.9811 112.722 88.1639 112.783 87.2596C112.844 86.3554 112.905 85.5381 112.951 84.8426C112.994 84.5081 113.002 84.1701 112.974 83.834Z" fill="#313131"/>
<g opacity="0.3">
<path d="M112.578 90.6916C112.578 90.6916 110.399 85.446 113.141 81.9971C113.162 81.9695 113.191 81.9483 113.223 81.936C113.256 81.9237 113.291 81.9206 113.325 81.9272C113.36 81.9339 113.391 81.9498 113.417 81.9734C113.443 81.997 113.462 82.0273 113.471 82.0609C113.714 82.9477 114.164 85.6459 112.578 90.6916Z" fill="black"/>
</g>
<path d="M119.333 103.339C119.333 103.339 117.594 97.9306 120.597 94.7281C120.62 94.7022 120.651 94.6833 120.684 94.6735C120.718 94.6638 120.753 94.6635 120.787 94.6728C120.821 94.6822 120.851 94.7007 120.875 94.7263C120.899 94.7519 120.915 94.7837 120.922 94.8179C121.093 95.7106 121.319 98.4378 119.333 103.339Z" fill="#2BB673"/>
<path d="M120.284 96.5371C120.162 96.8519 120.078 97.1797 120.032 97.5138C119.904 98.1224 119.742 98.9629 119.605 99.9019C119.469 100.841 119.359 101.693 119.316 102.313C119.269 102.647 119.262 102.986 119.295 103.322C119.384 102.998 119.441 102.666 119.466 102.331C119.568 101.641 119.69 100.829 119.823 99.9367C119.956 99.044 120.084 98.2297 120.188 97.5399C120.253 97.2096 120.285 96.8737 120.284 96.5371Z" fill="#313131"/>
<g opacity="0.3">
<path d="M119.332 103.339C119.332 103.339 117.593 97.9306 120.595 94.7281C120.619 94.7022 120.649 94.6833 120.682 94.6735C120.716 94.6638 120.752 94.6635 120.785 94.6728C120.819 94.6822 120.849 94.7007 120.873 94.7263C120.897 94.7519 120.913 94.7837 120.92 94.8179C121.091 95.7106 121.317 98.4378 119.332 103.339Z" fill="black"/>
</g>
<path d="M109.799 84.2681C109.799 84.2681 105.145 81.0105 105.614 76.6372C105.617 76.6023 105.63 76.569 105.651 76.5409C105.672 76.5129 105.7 76.4911 105.732 76.4782C105.765 76.4653 105.8 76.4616 105.835 76.4677C105.869 76.4738 105.901 76.4893 105.927 76.5126C106.603 77.1328 108.428 79.1702 109.799 84.2681Z" fill="#2BB673"/>
<g opacity="0.3">
<path d="M109.8 84.2681C109.8 84.2681 105.145 81.0105 105.615 76.6372C105.618 76.6023 105.63 76.569 105.651 76.5409C105.672 76.5129 105.7 76.4911 105.733 76.4782C105.765 76.4653 105.801 76.4616 105.835 76.4677C105.87 76.4738 105.902 76.4893 105.928 76.5126C106.603 77.1328 108.429 79.1702 109.8 84.2681Z" fill="black"/>
</g>
<path d="M106.459 78.2793C106.551 78.6033 106.68 78.9155 106.844 79.2096C107.111 79.7719 107.497 80.5399 107.946 81.3746C108.395 82.2092 108.815 82.9512 109.163 83.4757C109.328 83.771 109.527 84.0453 109.757 84.293C109.63 83.9818 109.475 83.683 109.293 83.4004L108.134 81.2731L106.975 79.143C106.832 78.8386 106.659 78.5493 106.459 78.2793Z" fill="#313131"/>
<path d="M117.455 97.9777C117.455 97.9777 111.838 97.1082 110.334 92.9696C110.322 92.9372 110.319 92.9022 110.326 92.8684C110.333 92.8345 110.349 92.8032 110.372 92.7778C110.395 92.7524 110.425 92.7339 110.458 92.7243C110.492 92.7146 110.527 92.7143 110.56 92.7233C111.45 92.9638 113.974 93.9956 117.455 97.9777Z" fill="#2BB673"/>
<g opacity="0.3">
<path d="M117.453 97.9777C117.453 97.9777 111.836 97.1082 110.332 92.9696C110.32 92.9372 110.318 92.9022 110.324 92.8684C110.331 92.8345 110.347 92.8032 110.37 92.7778C110.394 92.7524 110.424 92.7339 110.457 92.7243C110.49 92.7146 110.525 92.7143 110.558 92.7233C111.448 92.9638 113.972 93.9956 117.453 97.9777Z" fill="black"/>
</g>
<path d="M111.81 94.0645C112.037 94.3132 112.292 94.5358 112.569 94.7281C113.053 95.1165 113.728 95.6353 114.511 96.1772C115.293 96.7192 115.997 97.2032 116.539 97.5278C116.816 97.7224 117.116 97.8811 117.432 98.0002C117.18 97.7779 116.91 97.5782 116.623 97.4032L114.638 96.0149L112.665 94.6093C112.399 94.3993 112.112 94.2167 111.81 94.0645Z" fill="#313131"/>
<path d="M124.098 108.312L122.489 118.876L116.055 118.865L113.89 108.312H124.098Z" fill="#455A64"/>
<path d="M114.833 112.381C114.833 112.381 114.847 112.399 114.885 112.422C114.923 112.445 114.978 112.48 115.056 112.518C115.282 112.628 115.525 112.701 115.775 112.732C116.172 112.786 116.576 112.748 116.957 112.622C117.47 112.46 117.917 112.135 118.229 111.698C118.402 111.433 118.502 111.129 118.519 110.814C118.537 110.637 118.505 110.458 118.428 110.298C118.351 110.138 118.231 110.003 118.082 109.906C117.911 109.822 117.72 109.785 117.53 109.8C117.341 109.816 117.158 109.882 117.003 109.993C116.683 110.228 116.464 110.575 116.389 110.964C116.304 111.356 116.276 111.758 116.308 112.158C116.33 112.576 116.418 112.988 116.569 113.378C116.727 113.788 116.983 114.153 117.314 114.442C117.657 114.747 118.093 114.928 118.551 114.958C119.009 114.968 119.459 114.837 119.841 114.584C120.207 114.35 120.531 114.056 120.8 113.715C121.076 113.387 121.246 112.982 121.287 112.555C121.303 112.346 121.27 112.136 121.191 111.942C121.111 111.747 120.987 111.574 120.829 111.437C120.666 111.316 120.472 111.245 120.27 111.233C120.068 111.221 119.866 111.267 119.69 111.367C119.521 111.451 119.373 111.574 119.259 111.725C119.145 111.876 119.067 112.051 119.032 112.237C118.984 112.565 119.036 112.9 119.181 113.198C119.326 113.497 119.558 113.744 119.847 113.909C120.321 114.166 120.872 114.246 121.4 114.135C121.79 114.053 122.163 113.906 122.504 113.7C122.719 113.574 122.927 113.435 123.124 113.283C123.197 113.234 123.264 113.176 123.324 113.112C123.248 113.154 123.174 113.202 123.104 113.254C122.962 113.347 122.753 113.489 122.472 113.642C122.133 113.832 121.765 113.966 121.383 114.036C120.88 114.134 120.358 114.051 119.91 113.802C119.649 113.647 119.44 113.419 119.309 113.145C119.179 112.872 119.133 112.565 119.177 112.266C119.209 112.104 119.278 111.952 119.379 111.822C119.479 111.692 119.609 111.587 119.757 111.515C119.906 111.427 120.077 111.386 120.25 111.396C120.422 111.407 120.587 111.468 120.725 111.573C120.862 111.695 120.968 111.848 121.036 112.018C121.104 112.189 121.131 112.373 121.116 112.555C121.076 112.948 120.918 113.319 120.661 113.619C120.404 113.944 120.095 114.223 119.745 114.445C119.393 114.677 118.979 114.798 118.557 114.793C118.138 114.762 117.741 114.595 117.427 114.317C117.115 114.048 116.874 113.707 116.725 113.323C116.582 112.952 116.497 112.561 116.473 112.164C116.442 111.781 116.465 111.396 116.543 111.019C116.609 110.672 116.804 110.361 117.088 110.15C117.218 110.053 117.372 109.993 117.534 109.977C117.696 109.961 117.859 109.99 118.006 110.06C118.134 110.142 118.236 110.258 118.302 110.394C118.368 110.531 118.395 110.683 118.38 110.834C118.364 111.127 118.272 111.41 118.113 111.657C117.819 112.076 117.399 112.391 116.914 112.555C116.554 112.674 116.174 112.713 115.798 112.671C115.462 112.629 115.136 112.531 114.833 112.381Z" fill="#313131"/>
</svg>
