<svg width="131" height="119" viewBox="0 0 131 119" fill="none" xmlns="http://www.w3.org/2000/svg">
<path d="M95.5552 115.965C95.0944 115.571 94.0655 114.319 94.8596 112.861C95.1495 112.328 95.7668 112.064 96.3232 111.83C96.8986 111.636 97.441 111.355 97.9317 110.998C98.8011 110.256 99.0446 109.024 99.6213 108.036C100.288 106.9 101.525 106.048 102.835 106.109C104.337 106.175 105.586 107.401 106.154 108.798C106.722 110.195 106.733 111.745 106.754 113.253C106.754 114.087 106.722 115.029 106.11 115.591C105.545 116.11 104.696 116.116 103.931 116.093L95.7349 115.841" fill="#F5F5F5"/>
<path d="M111.232 93.4258H89.6753L93.5588 116.579C93.6393 117.062 93.8549 117.511 94.1807 117.876C94.5064 118.241 94.9289 118.506 95.3992 118.64L95.4745 118.66C95.5383 118.678 95.6021 118.698 95.6658 118.709C95.811 118.739 95.9583 118.756 96.1063 118.762V118.782H96.2107H105.818C105.995 118.781 106.172 118.763 106.346 118.727C106.906 118.638 107.422 118.37 107.815 117.962C108.209 117.554 108.459 117.029 108.528 116.466L110.403 100.497L110.487 99.8626L111.217 93.5417L111.232 93.4258ZM107.174 108.206H104.96L105.186 101.486H107.748L107.174 108.206ZM107.963 101.486H110.081L109.293 108.206H107.392L107.963 101.486ZM101.642 115.655L101.509 109.818H104.697L104.494 115.643L101.642 115.655ZM98.1988 109.818H101.294L101.427 115.655H98.6538L98.1988 109.818ZM98.4394 115.655H95.831C95.5847 114.078 95.2514 112.032 94.9152 109.818H97.9728L98.4394 115.655ZM98.0742 108.206L97.538 101.474H101.088L101.242 108.195L98.0742 108.206ZM101.471 108.206L101.306 101.474H104.96L104.737 108.195L101.471 108.206ZM101.28 99.8742L101.135 93.6518H105.23L105.024 99.8742H101.28ZM101.065 99.8742H97.4163L96.9352 93.6518H100.914L101.065 99.8742ZM97.2105 99.8742H93.3531L92.9705 97.4716C92.5677 94.9531 92.417 94.0083 92.3329 93.6518H96.7208L97.2105 99.8742ZM97.3381 101.486L97.8597 108.206H94.6717C94.5645 107.525 94.4573 106.836 94.3472 106.146C94.0979 104.558 93.8487 102.972 93.6139 101.486H97.3381ZM94.4573 108.206H92.3793L91.2519 101.486H93.3995C93.7182 103.552 94.0834 105.862 94.4486 108.195L94.4573 108.206ZM94.7123 109.818C95.0282 111.847 95.3412 113.829 95.6252 115.655H93.6284L92.6488 109.818H94.7123ZM104.714 115.655L104.908 109.818H107.035L106.522 115.643L104.714 115.655ZM105.238 99.8742L105.444 93.6518H108.418L107.885 99.8742H105.238ZM92.1387 93.6518C92.2257 94.1011 92.6169 96.55 93.1444 99.8742H90.9824L89.9361 93.6518H92.1387ZM108.418 115.655H106.751L107.25 109.818H109.102L108.418 115.655ZM110.27 99.8742H108.099L108.632 93.6518H111L110.27 99.8742Z" fill="#E0E0E0"/>
<path d="M26.3125 44.377C26.3125 44.377 26.2633 44.2872 26.1792 44.1191L25.8053 43.3713L24.3968 40.5253C23.1854 38.0706 21.4552 34.558 19.354 30.2948L19.4381 30.3237L0.136214 39.7805L0.170992 39.6791L7.06575 53.7903L6.97301 53.7584L20.9074 46.9796L24.8808 45.0552L25.9532 44.5625L26.2256 44.435L26.3241 44.3915L26.2372 44.4379L25.9532 44.5625L24.9127 45.0813L20.9712 47.0288L7.03387 53.883L6.97301 53.9149L6.94113 53.8511L0.0347778 39.7486L0 39.6791L0.0695561 39.6472L19.383 30.2165L19.4381 30.1904L19.4641 30.2455L24.4664 40.5369L25.8401 43.3829L26.1966 44.1278L26.3125 44.377Z" fill="#E0E0E0"/>
<path d="M19.4093 30.2686C19.4074 30.2944 19.4015 30.3198 19.3919 30.3439C19.3745 30.4019 19.3513 30.4743 19.3224 30.5613C19.2557 30.7641 19.163 31.0424 19.0325 31.393C18.7804 32.1263 18.421 33.1638 17.9776 34.4419L14.4592 44.4841L14.3607 44.5305H14.3433H14.3201L14.2737 44.516L14.181 44.4841L13.9955 44.4232L13.6303 44.3015L12.9116 44.0465L11.4944 43.5741L8.81357 42.6785L4.27793 41.1541L1.22325 40.1137L0.397271 39.8238L0.182806 39.7456C0.157094 39.7389 0.132627 39.7282 0.110352 39.7137C0.136207 39.7156 0.161617 39.7215 0.185704 39.7311L0.405966 39.7949L1.24354 40.0586L4.31271 41.0527L8.85415 42.5336L11.5379 43.4205L12.958 43.8929L13.6825 44.1334L14.0506 44.2552L14.2332 44.316L14.3259 44.345L14.3723 44.3624H14.3955H14.4128C14.3723 44.3827 14.5114 44.3189 14.323 44.4116C15.717 40.4991 16.9777 36.9604 17.8936 34.384L18.9978 31.3728C19.1253 31.025 19.2296 30.7497 19.2876 30.5526L19.3716 30.3381L19.4093 30.2686Z" fill="#E0E0E0"/>
<path d="M9.61527 42.876C9.65585 42.876 9.10519 45.3598 8.38355 48.4028C7.6619 51.4459 7.04169 53.9094 7.00112 53.8949C6.96054 53.8804 7.5141 51.4111 8.23574 48.3681C8.95739 45.325 9.5747 42.8644 9.61527 42.876Z" fill="#E0E0E0"/>
<path d="M26.5152 44.4814C26.4978 44.5161 24.1793 43.3801 21.3361 41.9426C18.493 40.5051 16.2035 39.3081 16.2238 39.2704C16.2441 39.2328 18.5626 40.3688 21.4057 41.8092C24.2488 43.2496 26.5326 44.4437 26.5152 44.4814Z" fill="#E0E0E0"/>
<path d="M121.805 46.0353C121.805 46.0353 121.848 45.9657 121.935 45.8411L122.324 45.2933L123.802 43.224L129.155 35.7699V35.8569L114.258 25.096L114.365 25.0786L106.96 35.3033L106.946 35.2077L117.646 42.9922L120.701 45.2238L121.515 45.8208L121.724 45.9773C121.77 46.015 121.796 46.0324 121.796 46.0353L121.727 45.9889L121.518 45.844L120.706 45.2644L117.643 43.0704L106.873 35.3178L106.812 35.2888L106.853 35.2309L114.246 25.0003L114.293 24.9395L114.354 24.9829L129.236 35.767L129.285 35.8018L129.247 35.8511L123.828 43.2878C123.181 44.1573 122.668 44.8557 122.329 45.331C122.161 45.56 122.04 45.7368 121.938 45.8585C121.837 45.9802 121.805 46.0353 121.805 46.0353Z" fill="#E0E0E0"/>
<path d="M129.204 35.8077C129.121 35.8274 129.037 35.8419 128.952 35.8512L128.231 35.9526L125.573 36.2917L116.8 37.3611C116.635 37.2394 116.754 37.3235 116.716 37.2945V37.2655V37.2249L116.702 37.1467L116.67 36.9873L116.606 36.6743C116.563 36.4656 116.522 36.2569 116.479 36.0512C116.397 35.6396 116.313 35.2339 116.235 34.8339C116.076 34.0369 115.919 33.266 115.774 32.5328C115.484 31.0837 115.221 29.7505 115 28.6376C114.78 27.5247 114.615 26.6408 114.493 26.0061L114.363 25.2902C114.346 25.2069 114.333 25.1228 114.325 25.0381C114.355 25.1181 114.377 25.2005 114.392 25.2844C114.43 25.4583 114.485 25.696 114.551 25.9945L115.105 28.6028C115.334 29.7157 115.606 31.0315 115.91 32.4951C116.058 33.2283 116.218 33.9963 116.38 34.7933C116.461 35.1933 116.542 35.599 116.626 36.0106C116.67 36.2163 116.71 36.4221 116.754 36.6308L116.818 36.9467L116.85 37.1032L116.864 37.1843V37.222V37.2568C116.829 37.2307 116.948 37.3206 116.783 37.2017L125.561 36.1787L128.225 35.8889L128.949 35.8164C129.034 35.8064 129.119 35.8035 129.204 35.8077Z" fill="#E0E0E0"/>
<path d="M115.962 33.1931C115.962 33.2336 113.933 33.735 111.429 34.3146C108.925 34.8943 106.87 35.329 106.858 35.2884C106.847 35.2479 108.887 34.7465 111.394 34.1668C113.901 33.5872 115.953 33.1525 115.962 33.1931Z" fill="#E0E0E0"/>
<path d="M121.812 46.2231C121.772 46.2231 121.627 44.1045 121.493 41.4875C121.36 38.8704 121.285 36.7461 121.328 36.7432C121.372 36.7403 121.511 38.8617 121.644 41.4788C121.777 44.0958 121.853 46.2202 121.812 46.2231Z" fill="#E0E0E0"/>
<path d="M92.5879 99.1184L92.8139 99.2053L93.4573 99.472L95.9005 100.492L104.688 104.187L104.61 104.219L112.058 86.6359L112.098 86.7374L100.028 81.6018L100.117 81.5641L94.7093 94.2089C94.0457 95.7536 93.5211 96.9795 93.1559 97.8229C92.9762 98.2373 92.8371 98.559 92.7386 98.7822L92.6314 99.0314L92.5879 99.1184C92.5879 99.1184 92.5879 99.0894 92.6198 99.0343C92.6516 98.9793 92.6777 98.8952 92.7183 98.7909L93.1154 97.8374L94.6398 94.2234C95.9527 91.1136 97.8104 86.7084 100.001 81.5091L100.028 81.4453L100.091 81.4743L112.159 86.5867L112.229 86.6157L112.197 86.6852C109.389 93.2901 106.792 99.3879 104.72 104.26L104.696 104.315L104.641 104.292L95.8425 100.524L93.4255 99.4806L92.7995 99.2082L92.5879 99.1184Z" fill="#E0E0E0"/>
<path d="M104.665 104.245C104.652 104.226 104.643 104.206 104.636 104.185C104.615 104.135 104.592 104.074 104.56 104.002C104.496 103.828 104.407 103.59 104.294 103.292C104.062 102.663 103.734 101.773 103.334 100.684L100.222 92.0412C100.303 91.8528 100.248 91.989 100.265 91.9455H100.285L100.323 91.9281L100.398 91.8934L100.552 91.8238L100.856 91.6876L101.456 91.4152L102.633 90.8848L104.856 89.8849L108.623 88.1982L111.168 87.0737L111.864 86.7839L112.046 86.7114C112.09 86.694 112.11 86.6882 112.11 86.6911L112.052 86.7259L111.878 86.8129L111.194 87.1375L108.667 88.2967L104.899 90.0125L102.679 91.021L101.52 91.5514L100.917 91.8238L100.627 91.9629L100.477 92.0296L100.398 92.0644L100.361 92.0817H100.343C100.358 92.0412 100.3 92.1774 100.378 91.9919C101.575 95.3654 102.659 98.4201 103.447 100.646C103.83 101.747 104.143 102.643 104.363 103.275C104.465 103.579 104.546 103.816 104.604 103.993C104.627 104.069 104.647 104.129 104.665 104.182C104.668 104.203 104.668 104.224 104.665 104.245Z" fill="#E0E0E0"/>
<path d="M104.248 90.2263C104.21 90.2437 103.231 88.3019 102.063 85.879C100.895 83.4562 99.9791 81.497 100.017 81.4767C100.054 81.4564 101.031 83.4011 102.199 85.824C103.367 88.2469 104.283 90.2089 104.248 90.2263Z" fill="#E0E0E0"/>
<path d="M92.3989 99.1704C92.3989 99.1298 94.503 98.4951 97.123 97.7532C99.7429 97.0112 101.885 96.4403 101.885 96.4838C101.885 96.5272 99.7806 97.1591 97.1606 97.901C94.5407 98.6429 92.4105 99.211 92.3989 99.1704Z" fill="#E0E0E0"/>
<path d="M111.32 5.3418H24.667V78.1874H111.32V5.3418Z" fill="#EBEBEB"/>
<path d="M24.834 10.3644C24.834 10.3238 44.159 10.2891 67.9907 10.2891C91.8224 10.2891 111.159 10.3325 111.159 10.3644C111.159 10.3963 91.8398 10.4398 67.9994 10.4398C44.159 10.4398 24.834 10.4137 24.834 10.3644Z" fill="#E0E0E0"/>
<path d="M27.4709 8.69175C27.9831 8.69175 28.3983 8.27653 28.3983 7.76433C28.3983 7.25213 27.9831 6.83691 27.4709 6.83691C26.9587 6.83691 26.5435 7.25213 26.5435 7.76433C26.5435 8.27653 26.9587 8.69175 27.4709 8.69175Z" fill="#E0E0E0"/>
<path d="M30.0485 8.69175C30.5607 8.69175 30.9759 8.27653 30.9759 7.76433C30.9759 7.25213 30.5607 6.83691 30.0485 6.83691C29.5363 6.83691 29.1211 7.25213 29.1211 7.76433C29.1211 8.27653 29.5363 8.69175 30.0485 8.69175Z" fill="#E0E0E0"/>
<path d="M32.9084 8.69175C33.4206 8.69175 33.8358 8.27653 33.8358 7.76433C33.8358 7.25213 33.4206 6.83691 32.9084 6.83691C32.3962 6.83691 31.981 7.25213 31.981 7.76433C31.981 8.27653 32.3962 8.69175 32.9084 8.69175Z" fill="#E0E0E0"/>
<path d="M126.708 118.925C126.708 118.968 98.4245 119 63.545 119C28.6654 119 0.364746 118.968 0.364746 118.925C0.364746 118.881 28.6422 118.85 63.545 118.85C98.4477 118.85 126.708 118.884 126.708 118.925Z" fill="#313131"/>
<path d="M107.971 85.9236C107.971 85.3932 107.945 56.2086 107.907 11.1796L107.971 11.2347H19.0666L19.142 11.1593C19.142 38.2457 19.142 63.7931 19.142 85.9033L19.0724 85.8366L107.986 85.9033L19.0724 85.9699H18.9971V85.9033C18.9971 63.7931 18.9971 38.2457 18.9971 11.1593V11.084H19.0811H107.986H108.049V11.1477C108.009 56.2086 107.971 85.3932 107.971 85.9236Z" fill="#FAFAFA"/>
<path d="M107.983 11.1797H19.0703V85.9236H107.983V11.1797Z" fill="#FAFAFA"/>
<path d="M51.1699 16.3408H19.2437V23.6587H51.1699V16.3408Z" fill="#EBEBEB"/>
<path d="M27.2943 22.248C27.2943 22.248 27.2943 22.1524 27.2943 21.9785C27.2943 21.8046 27.2943 21.5467 27.2943 21.2423C27.2943 20.5932 27.2769 19.6947 27.2624 18.6108L27.3233 18.6717H22.0283L22.1037 18.5963V20.483C22.1037 21.0916 22.1037 21.6742 22.1037 22.2219L22.0341 22.1524L25.8336 22.1872L26.9292 22.2074H27.219H27.3262C27.2021 22.2212 27.0772 22.227 26.9523 22.2248L25.8713 22.2422L22.0283 22.277H21.9617V22.248C21.9617 21.6945 21.9617 21.1119 21.9617 20.5091V19.5759C21.9617 19.4194 21.9617 19.26 21.9617 19.1006V18.605C21.895 18.6717 22.0544 18.5123 22.0399 18.5297H27.3349H27.3958V18.5905C27.3958 19.6918 27.3726 20.6019 27.3639 21.2597C27.3639 21.5496 27.3639 21.7988 27.3639 21.9843C27.3492 22.0742 27.3259 22.1625 27.2943 22.248Z" fill="#313131"/>
<path d="M27.2944 18.5986C27.2944 18.5986 27.2336 18.6826 27.1061 18.8131C26.9785 18.9435 26.7902 19.1261 26.5554 19.3521C26.0859 19.8042 25.428 20.4216 24.6977 21.091C24.4919 21.091 24.6397 21.091 24.5933 21.091H24.576L24.5412 21.0592L24.4745 20.9954L24.3383 20.8708L24.0775 20.6273L23.5819 20.1665L22.7385 19.3492C22.5038 19.1232 22.3154 18.9406 22.185 18.8102C22.1129 18.7474 22.0495 18.6753 21.9966 18.5957C21.9966 18.5957 22.0864 18.6479 22.2255 18.7667C22.3647 18.8855 22.5646 19.0565 22.8052 19.271L23.6572 20.0361L24.1557 20.4911L24.4195 20.7317L24.5557 20.8563L24.6223 20.92L24.6571 20.949L24.6745 20.9664H24.5818C25.3121 20.294 25.9787 19.6883 26.4685 19.2565C26.7119 19.042 26.9119 18.8681 27.0481 18.7522C27.1224 18.6894 27.2054 18.6377 27.2944 18.5986Z" fill="#313131"/>
<path d="M23.7605 20.2188C23.5248 20.6031 23.2468 20.9599 22.9317 21.2824C22.6552 21.6386 22.3392 21.9624 21.9897 22.2475C22.226 21.8643 22.504 21.5086 22.8186 21.1867C23.0956 20.83 23.4115 20.5054 23.7605 20.2188Z" fill="#313131"/>
<path d="M27.329 22.2795C26.9872 21.9752 26.6801 21.634 26.4132 21.2623C26.1068 20.9206 25.8385 20.5464 25.6133 20.1465C25.9555 20.4514 26.2627 20.7936 26.5291 21.1666C26.8358 21.5071 27.1041 21.8803 27.329 22.2795Z" fill="#313131"/>
<path d="M47.5031 19.8713C47.5031 19.9147 43.7644 19.9466 39.1563 19.9466C34.5482 19.9466 30.8125 19.9147 30.8125 19.8713C30.8125 19.8278 34.5482 19.7959 39.1563 19.7959C43.7644 19.7959 47.5031 19.8307 47.5031 19.8713Z" fill="#313131"/>
<path d="M107.982 48.8477H50.7637V61.3852H107.982V48.8477Z" fill="#E25D41"/>
<g opacity="0.8">
<path d="M107.982 48.8477H50.7632V61.3852H107.982V48.8477Z" fill="white"/>
</g>
<path d="M58.4912 52.7656H55.0974C54.7373 52.7656 54.4453 53.0576 54.4453 53.4177V56.8115C54.4453 57.1716 54.7373 57.4636 55.0974 57.4636H58.4912C58.8513 57.4636 59.1433 57.1716 59.1433 56.8115V53.4177C59.1433 53.0576 58.8513 52.7656 58.4912 52.7656Z" fill="#E25D41"/>
<path d="M56.4384 56.1561C56.3756 56.1561 56.3146 56.1358 56.2645 56.0982L55.3168 55.3852C55.2826 55.3639 55.2533 55.3358 55.2306 55.3025C55.2079 55.2693 55.1924 55.2317 55.185 55.1921C55.1777 55.1526 55.1787 55.1119 55.1879 55.0727C55.1971 55.0336 55.2144 54.9967 55.2387 54.9646C55.2629 54.9325 55.2936 54.9058 55.3287 54.8862C55.3638 54.8665 55.4027 54.8545 55.4427 54.8507C55.4828 54.8469 55.5232 54.8515 55.5614 54.8642C55.5996 54.8769 55.6347 54.8974 55.6645 54.9244L56.4036 55.4779L57.8874 53.8666C57.9397 53.8101 58.0123 53.7766 58.0892 53.7737C58.1661 53.7707 58.241 53.7983 58.2975 53.8506C58.354 53.9029 58.3874 53.9755 58.3904 54.0524C58.3934 54.1293 58.3657 54.2042 58.3135 54.2607L56.6528 56.0634C56.6255 56.0929 56.5923 56.1163 56.5553 56.1323C56.5184 56.1483 56.4786 56.1564 56.4384 56.1561Z" fill="white"/>
<path d="M107.982 36.2461H50.7637V48.7836H107.982V36.2461Z" fill="#E25D41"/>
<path d="M107.638 48.8302C107.638 48.8737 94.9966 48.9056 79.4044 48.9056C63.8123 48.9056 51.1704 48.8737 51.1704 48.8302C51.1704 48.7868 63.8094 48.7549 79.4044 48.7549C94.9995 48.7549 107.638 48.7897 107.638 48.8302Z" fill="#313131"/>
<path d="M108.015 73.9102H50.7959V85.9231H108.015V73.9102Z" fill="#E25D41"/>
<g opacity="0.8">
<path d="M108.015 73.9102H50.7964V85.9231H108.015V73.9102Z" fill="white"/>
</g>
<path d="M58.52 77.832H55.1262C54.7661 77.832 54.4741 78.124 54.4741 78.4841V81.8779C54.4741 82.238 54.7661 82.53 55.1262 82.53H58.52C58.8801 82.53 59.1721 82.238 59.1721 81.8779V78.4841C59.1721 78.124 58.8801 77.832 58.52 77.832Z" fill="#E25D41"/>
<path d="M56.467 81.2256C56.4043 81.2256 56.3433 81.2053 56.2931 81.1677L55.3454 80.4547C55.2839 80.4086 55.2433 80.3399 55.2324 80.2638C55.2215 80.1878 55.2413 80.1105 55.2875 80.049C55.3336 79.9875 55.4022 79.9468 55.4783 79.936C55.5544 79.9251 55.6317 79.9449 55.6932 79.991L56.4322 80.5475L57.9161 78.9361C57.941 78.9052 57.9719 78.8798 58.007 78.8614C58.0421 78.8429 58.0806 78.8319 58.1201 78.8289C58.1596 78.826 58.1993 78.8312 58.2368 78.8441C58.2742 78.8571 58.3086 78.8777 58.3378 78.9045C58.367 78.9313 58.3904 78.9638 58.4065 79C58.4226 79.0362 58.4311 79.0753 58.4316 79.115C58.432 79.1546 58.4242 79.1939 58.4089 79.2304C58.3935 79.2669 58.3708 79.2999 58.3421 79.3273L56.6728 81.1329C56.6464 81.1613 56.6146 81.1842 56.5793 81.2001C56.544 81.216 56.5058 81.2247 56.467 81.2256Z" fill="white"/>
<g opacity="0.8">
<path d="M107.982 36.2461H50.7632V48.7836H107.982V36.2461Z" fill="white"/>
</g>
<path d="M58.4912 40.1641H55.0974C54.7373 40.1641 54.4453 40.456 54.4453 40.8162V44.2099C54.4453 44.5701 54.7373 44.862 55.0974 44.862H58.4912C58.8513 44.862 59.1433 44.5701 59.1433 44.2099V40.8162C59.1433 40.456 58.8513 40.1641 58.4912 40.1641Z" fill="#E25D41"/>
<path d="M56.4384 43.5577C56.3756 43.5577 56.3146 43.5374 56.2645 43.4997L55.3168 42.7868C55.2826 42.7655 55.2533 42.7374 55.2306 42.7041C55.2079 42.6709 55.1924 42.6333 55.185 42.5937C55.1777 42.5541 55.1787 42.5135 55.1879 42.4743C55.1971 42.4351 55.2144 42.3983 55.2387 42.3662C55.2629 42.3341 55.2936 42.3074 55.3287 42.2877C55.3638 42.2681 55.4027 42.256 55.4427 42.2523C55.4828 42.2485 55.5232 42.2531 55.5614 42.2658C55.5996 42.2785 55.6347 42.299 55.6645 42.326L56.4036 42.8795L57.8874 41.2681C57.9394 41.2118 58.0116 41.1783 58.0882 41.1751C58.1648 41.1718 58.2395 41.199 58.2961 41.2508C58.3244 41.2765 58.3474 41.3077 58.3636 41.3424C58.3798 41.3771 58.389 41.4146 58.3906 41.4529C58.3922 41.4912 58.3862 41.5294 58.373 41.5653C58.3598 41.6013 58.3395 41.6342 58.3135 41.6623L56.6528 43.465C56.6255 43.4945 56.5923 43.5179 56.5553 43.5339C56.5184 43.5499 56.4786 43.558 56.4384 43.5577Z" fill="white"/>
<path d="M107.971 85.9236C107.971 85.3932 107.945 56.2086 107.907 11.1796L107.971 11.2347H19.0666L19.142 11.1593C19.142 38.2457 19.142 63.7931 19.142 85.9033L19.0724 85.8366L107.986 85.9033L19.0724 85.9699H18.9971V85.9033C18.9971 63.7931 18.9971 38.2457 18.9971 11.1593V11.084H19.0811H107.986H108.049V11.1477C108.009 56.2086 107.971 85.3932 107.971 85.9236Z" fill="#E25D41"/>
<path d="M19.2437 16.341C19.2437 16.2975 39.0701 16.2656 63.5249 16.2656C87.9797 16.2656 107.812 16.2975 107.812 16.341C107.812 16.3845 87.9884 16.4163 63.5249 16.4163C39.0614 16.4163 19.2437 16.3816 19.2437 16.341Z" fill="#E25D41"/>
<path d="M21.9501 14.6141C22.4751 14.6141 22.9007 14.1885 22.9007 13.6635C22.9007 13.1385 22.4751 12.7129 21.9501 12.7129C21.4251 12.7129 20.9995 13.1385 20.9995 13.6635C20.9995 14.1885 21.4251 14.6141 21.9501 14.6141Z" fill="#E25D41"/>
<path d="M24.5937 14.6141C25.1187 14.6141 25.5443 14.1885 25.5443 13.6635C25.5443 13.1385 25.1187 12.7129 24.5937 12.7129C24.0687 12.7129 23.6431 13.1385 23.6431 13.6635C23.6431 14.1885 24.0687 14.6141 24.5937 14.6141Z" fill="#E25D41"/>
<path d="M28.1991 12.9905C28.332 13.1235 28.4225 13.2929 28.4592 13.4773C28.4958 13.6617 28.4769 13.8528 28.405 14.0264C28.333 14.2001 28.2112 14.3485 28.0548 14.453C27.8985 14.5574 27.7148 14.6131 27.5268 14.6131C27.3388 14.6131 27.155 14.5574 26.9987 14.453C26.8424 14.3485 26.7206 14.2001 26.6486 14.0264C26.5766 13.8528 26.5578 13.6617 26.5944 13.4773C26.631 13.2929 26.7215 13.1235 26.8544 12.9905C26.9427 12.9022 27.0475 12.8321 27.1629 12.7843C27.2782 12.7365 27.4019 12.7119 27.5268 12.7119C27.6517 12.7119 27.7753 12.7365 27.8907 12.7843C28.0061 12.8321 28.1109 12.9022 28.1991 12.9905Z" fill="#E25D41"/>
<path d="M30.8803 26.5952C30.9486 26.5868 31.0177 26.5868 31.0861 26.5952L31.6889 26.5778L33.8973 26.5488H33.9263L33.9437 26.572L34.9174 27.853L34.9319 27.8733V27.8965C34.9319 28.4761 34.9319 29.1195 34.9319 29.7861V29.8614H33.9697H29.9934H29.9297V29.7832C29.9297 29.1282 29.9297 28.5457 29.9471 28.0443L30.6252 26.9807C30.7012 26.8464 30.7864 26.7176 30.8803 26.5952C30.8677 26.634 30.8502 26.671 30.8281 26.7053L30.6629 26.9951L30.0369 28.0646V28.0385C30.0369 28.5312 30.0369 29.1137 30.0514 29.7774L29.9877 29.7136H33.9639H34.8537L34.7783 29.789C34.7783 29.1224 34.7783 28.4848 34.7783 27.8994L34.7928 27.94L33.8364 26.6503L33.8857 26.6734L31.7005 26.6445H31.0919C31.02 26.6344 30.9492 26.6179 30.8803 26.5952Z" fill="#313131"/>
<path d="M34.8657 27.9801C34.7286 28.017 34.5874 28.0365 34.4454 28.0381C34.1788 28.0613 33.7962 28.0874 33.3412 28.1163L33.4021 28.0526C33.3911 28.2948 33.3117 28.5289 33.1731 28.7278C33.0975 28.8371 32.9985 28.9282 32.8833 28.9945C32.7559 29.0534 32.6179 29.0859 32.4776 29.0901C32.3282 29.0963 32.1792 29.0694 32.0414 29.0112C31.9037 28.9531 31.7804 28.8653 31.6806 28.7539C31.5144 28.5549 31.4026 28.3163 31.356 28.0613L31.4197 28.1134C30.9966 28.1134 30.643 28.0989 30.3967 28.0874C30.2668 28.0899 30.1372 28.0753 30.0112 28.0439C30.1378 28.0165 30.2673 28.0049 30.3967 28.0091C30.643 28.0091 30.9966 27.9888 31.4197 27.9801H31.4603V28.0352C31.5096 28.2619 31.6141 28.473 31.7646 28.6496C31.8501 28.7454 31.9558 28.8211 32.0741 28.8712C32.1924 28.9213 32.3203 28.9446 32.4486 28.9394C32.567 28.939 32.6838 28.9122 32.7906 28.8612C32.8911 28.8092 32.9784 28.7348 33.0456 28.6438C33.1686 28.4683 33.2427 28.2633 33.2601 28.0497V27.9888H33.3151C33.7731 27.9743 34.1556 27.9656 34.4251 27.9627C34.5721 27.9498 34.7202 27.9557 34.8657 27.9801Z" fill="#313131"/>
<path d="M45.7581 26.7541C45.8389 26.7358 45.9217 26.728 46.0044 26.7309V26.7772C45.4248 26.8062 43.6308 26.8294 41.5268 26.8294C40.2226 26.8294 39.0401 26.8294 38.1852 26.8062L37.1737 26.783C37.0494 26.7872 36.9249 26.7775 36.8027 26.7541C36.9249 26.7306 37.0494 26.7209 37.1737 26.7251L38.1852 26.7019C39.0401 26.6874 40.2139 26.6787 41.5268 26.6787C43.6308 26.6787 45.4132 26.7019 46.0044 26.7309V26.7772C45.9216 26.782 45.8386 26.7742 45.7581 26.7541Z" fill="#313131"/>
<path d="M45.7581 28.6525C45.8386 28.6324 45.9216 28.6245 46.0044 28.6293V28.6757C45.4248 28.7047 43.6308 28.7279 41.5268 28.7279C40.2226 28.7279 39.0401 28.7279 38.1852 28.7047L37.1737 28.6815C37.0494 28.6838 36.9252 28.6741 36.8027 28.6525C36.9249 28.6288 37.0493 28.6181 37.1737 28.6206L38.1852 28.5974C39.0401 28.5974 40.2139 28.5771 41.5268 28.5771C43.6308 28.5771 45.4132 28.5974 46.0044 28.6293V28.6757C45.9217 28.6766 45.8392 28.6688 45.7581 28.6525Z" fill="#313131"/>
<path d="M45.7581 30.548C45.8389 30.5298 45.9217 30.522 46.0044 30.5248V30.5712C45.4248 30.6031 43.6308 30.6234 41.5268 30.6234C40.2226 30.6234 39.0401 30.6234 38.1852 30.6031L37.1737 30.577C37.0494 30.5812 36.9249 30.5714 36.8027 30.548C36.9252 30.5264 37.0494 30.5167 37.1737 30.519L38.1852 30.4958C39.0401 30.4814 40.2139 30.4727 41.5268 30.4727C43.6308 30.4727 45.4132 30.4958 46.0044 30.5248V30.5712C45.9216 30.576 45.8386 30.5681 45.7581 30.548Z" fill="#313131"/>
<path d="M30.8803 40.179C30.948 40.1654 31.017 40.1596 31.0861 40.1616L31.6889 40.1471L33.8973 40.1182H33.9263L33.9437 40.1413L34.9174 41.4223L34.9319 41.4426V41.4658C34.9319 42.0454 34.9319 42.6888 34.9319 43.3554V43.4308H33.9697H29.9934H29.9297V43.367C29.9297 42.712 29.9297 42.1295 29.9471 41.6281V41.6136L30.6252 40.55C30.6994 40.4249 30.7817 40.3049 30.8716 40.1906C30.859 40.2294 30.8415 40.2664 30.8194 40.3007L30.6542 40.5906L30.0398 41.6658V41.6397C30.0398 42.1324 30.0398 42.7149 30.0543 43.3786L29.9905 43.3149H33.9668H34.8566L34.7812 43.3902C34.7812 42.7236 34.7812 42.086 34.7812 41.5006L34.7957 41.5412L33.8393 40.2515L33.8886 40.2747L31.7034 40.2457H31.0948C31.0214 40.2301 30.9496 40.2078 30.8803 40.179Z" fill="#313131"/>
<path d="M34.8657 41.5556C34.7286 41.5925 34.5874 41.6119 34.4454 41.6135C34.1788 41.6367 33.7962 41.6628 33.3412 41.6918L33.4021 41.628C33.3911 41.8702 33.3117 42.1043 33.1731 42.3033C33.0975 42.4126 32.9985 42.5037 32.8833 42.5699C32.7559 42.6289 32.6179 42.6614 32.4776 42.6656C32.3282 42.6717 32.1792 42.6448 32.0414 42.5867C31.9037 42.5286 31.7804 42.4407 31.6806 42.3294C31.5144 42.1304 31.4026 41.8918 31.356 41.6367L31.4197 41.6889C30.9966 41.6889 30.643 41.6744 30.3967 41.6628C30.2671 41.6672 30.1375 41.6546 30.0112 41.6251C30.1378 41.5975 30.2672 41.5848 30.3967 41.5874L31.4197 41.5614H31.4603V41.6164C31.5096 41.8432 31.6141 42.0542 31.7646 42.2308C31.8501 42.3267 31.9558 42.4024 32.0741 42.4525C32.1924 42.5026 32.3203 42.5259 32.4486 42.5207C32.567 42.5202 32.6838 42.4935 32.7906 42.4424C32.8911 42.3904 32.9784 42.3161 33.0456 42.225C33.1686 42.0496 33.2427 41.8445 33.2601 41.6309V41.5701H33.3151C33.7731 41.5701 34.1556 41.5469 34.4251 41.544C34.5719 41.5291 34.7199 41.533 34.8657 41.5556Z" fill="#313131"/>
<path d="M45.7581 40.3293C45.8389 40.311 45.9217 40.3032 46.0044 40.3061V40.3524C45.4248 40.3814 43.6308 40.4046 41.5268 40.4046C40.2226 40.4046 39.0401 40.4046 38.1852 40.3814L37.1737 40.3582C37.0494 40.3624 36.9249 40.3527 36.8027 40.3293C36.9249 40.3058 37.0494 40.2961 37.1737 40.3003L38.1852 40.2771C39.0401 40.2626 40.2139 40.2539 41.5268 40.2539C43.6308 40.2539 45.4132 40.2771 46.0044 40.3061V40.3524C45.9217 40.3553 45.8389 40.3475 45.7581 40.3293Z" fill="#313131"/>
<path d="M45.7581 42.2276C45.8386 42.2075 45.9216 42.1997 46.0044 42.2044V42.245C45.4248 42.274 43.6308 42.2972 41.5268 42.2972C40.2226 42.2972 39.0401 42.2972 38.1852 42.274L37.1737 42.2508C37.0494 42.2531 36.9252 42.2434 36.8027 42.2218C36.9249 42.1981 37.0493 42.1874 37.1737 42.19L38.1852 42.1668C39.0401 42.1523 40.2139 42.1465 41.5268 42.1465C43.6308 42.1465 45.4132 42.1668 46.0044 42.1986V42.245C45.9219 42.2479 45.8394 42.242 45.7581 42.2276Z" fill="#313131"/>
<path d="M45.7581 44.1232C45.8389 44.105 45.9217 44.0972 46.0044 44.1V44.1464C45.4248 44.1783 43.6308 44.1986 41.5268 44.1986C40.2226 44.1986 39.0401 44.1986 38.1852 44.1783L37.1737 44.1522C37.0494 44.1564 36.9249 44.1466 36.8027 44.1232C36.9252 44.1016 37.0494 44.0919 37.1737 44.0942L38.1852 44.071C39.0401 44.0565 40.2139 44.0479 41.5268 44.0479C43.6308 44.0479 45.4132 44.071 46.0044 44.1V44.1464C45.9216 44.1512 45.8386 44.1433 45.7581 44.1232Z" fill="#313131"/>
<path d="M30.8803 53.7542C30.948 53.7406 31.017 53.7348 31.0861 53.7368L31.6889 53.7223L33.8973 53.6934H33.9263L33.9437 53.7165L34.9174 54.9975L34.9319 55.0178V55.041C34.9319 55.6206 34.9319 56.264 34.9319 56.9306V57.006H33.9697H29.9934H29.9297V56.9422C29.9297 56.2872 29.9297 55.7047 29.9471 55.2033L30.6252 54.1397C30.6994 54.0146 30.7817 53.8946 30.8716 53.7803C30.859 53.8191 30.8415 53.8561 30.8194 53.8904L30.6542 54.1803L30.0282 55.2497V55.2236C30.0282 55.7163 30.0282 56.2988 30.0427 56.9625L29.979 56.8987H33.9553H34.845L34.7696 56.9741C34.7696 56.3075 34.7696 55.6699 34.7696 55.0845L34.7841 55.1251L33.8277 53.8354L33.877 53.8586L31.6918 53.8296H31.0832C31.0134 53.8105 30.9455 53.7853 30.8803 53.7542Z" fill="#313131"/>
<path d="M34.8657 55.1308C34.7286 55.1677 34.5874 55.1871 34.4454 55.1887C34.1788 55.2119 33.7962 55.238 33.3412 55.267L33.4021 55.2032C33.3911 55.4454 33.3117 55.6795 33.1731 55.8785C33.0975 55.9878 32.9985 56.0789 32.8833 56.1451C32.7562 56.2045 32.6179 56.2361 32.4776 56.2379C32.3283 56.2452 32.1792 56.2191 32.0413 56.1614C31.9034 56.1038 31.7802 56.016 31.6806 55.9046C31.5144 55.7056 31.4026 55.467 31.356 55.2119L31.4197 55.2641C30.9966 55.2641 30.643 55.2641 30.3967 55.238C30.2671 55.2424 30.1375 55.2298 30.0112 55.2003C30.1378 55.1727 30.2672 55.16 30.3967 55.1626L31.4197 55.1366H31.4603V55.1916C31.5096 55.4184 31.6141 55.6294 31.7646 55.806C31.8501 55.9019 31.9558 55.9776 32.0741 56.0277C32.1924 56.0778 32.3203 56.1011 32.4486 56.0959C32.567 56.0954 32.6838 56.0687 32.7906 56.0176C32.8911 55.9656 32.9784 55.8913 33.0456 55.8002C33.1686 55.6248 33.2427 55.4197 33.2601 55.2061V55.1452H33.3151C33.7731 55.1279 34.1556 55.1221 34.4251 55.1192C34.5719 55.1043 34.7199 55.1082 34.8657 55.1308Z" fill="#313131"/>
<path d="M45.7581 53.9045C45.8389 53.8862 45.9217 53.8784 46.0044 53.8813V53.9276C45.4248 53.9566 43.6308 53.9798 41.5268 53.9798C40.2226 53.9798 39.0401 53.9798 38.1852 53.9566L37.1737 53.9334C37.0494 53.9376 36.9249 53.9279 36.8027 53.9045C36.9249 53.881 37.0494 53.8713 37.1737 53.8755L38.1852 53.8523C39.0401 53.8378 40.2139 53.8291 41.5268 53.8291C43.6308 53.8291 45.4132 53.8523 46.0044 53.8813V53.9276C45.9217 53.9305 45.8389 53.9227 45.7581 53.9045Z" fill="#313131"/>
<path d="M45.7581 55.8029C45.8386 55.7827 45.9216 55.7749 46.0044 55.7797V55.8261C45.4248 55.8551 43.6308 55.8782 41.5268 55.8782C40.2226 55.8782 39.0401 55.8782 38.1852 55.8551L37.1737 55.8319C37.0494 55.8342 36.9252 55.8245 36.8027 55.8029C36.9249 55.7792 37.0493 55.7685 37.1737 55.771L38.1852 55.7478C39.0401 55.7333 40.2139 55.7275 41.5268 55.7275C43.6308 55.7275 45.4132 55.7478 46.0044 55.7797V55.8261C45.9217 55.827 45.8392 55.8192 45.7581 55.8029Z" fill="#313131"/>
<path d="M45.7581 57.6984C45.8389 57.6802 45.9217 57.6724 46.0044 57.6752V57.7216C45.4248 57.7535 43.6308 57.7738 41.5268 57.7738C40.2226 57.7738 39.0401 57.7738 38.1852 57.7535L37.1737 57.7274C37.0494 57.7316 36.9249 57.7218 36.8027 57.6984C36.9252 57.6768 37.0494 57.6671 37.1737 57.6694L38.1852 57.6462C39.0401 57.6462 40.2139 57.623 41.5268 57.623C43.6308 57.623 45.4132 57.6462 46.0044 57.6752V57.7216C45.9216 57.7264 45.8386 57.7185 45.7581 57.6984Z" fill="#313131"/>
<path d="M103.369 45.013H101.16C101.045 45.0149 100.93 44.9939 100.823 44.951C100.716 44.9082 100.618 44.8445 100.536 44.7635C100.454 44.6826 100.389 44.5861 100.344 44.4797C100.299 44.3732 100.276 44.259 100.276 44.1436V40.4629H100.566V44.132C100.566 44.2093 100.582 44.2859 100.612 44.3572C100.642 44.4285 100.686 44.493 100.741 44.5471C100.796 44.6011 100.862 44.6435 100.934 44.6717C101.006 44.7 101.083 44.7135 101.16 44.7116H103.369C103.522 44.7116 103.67 44.6505 103.779 44.5418C103.887 44.4331 103.948 44.2857 103.948 44.132V40.5904H104.238V44.132C104.24 44.2471 104.218 44.3614 104.175 44.4683C104.132 44.5751 104.069 44.6723 103.988 44.7543C103.907 44.8362 103.81 44.9013 103.704 44.9457C103.598 44.9902 103.484 45.013 103.369 45.013Z" fill="#E25D41"/>
<path d="M104.615 40.4834H99.9141V40.7732H104.615V40.4834Z" fill="#E25D41"/>
<path d="M101.408 40.6279H101.119V40.3062C101.119 40.1525 101.18 40.005 101.288 39.8963C101.397 39.7876 101.545 39.7266 101.698 39.7266H102.858C103.011 39.7266 103.159 39.7876 103.267 39.8963C103.376 40.005 103.437 40.1525 103.437 40.3062V40.5641H103.147V40.3062C103.147 40.2293 103.117 40.1556 103.062 40.1013C103.008 40.0469 102.934 40.0164 102.858 40.0164H101.698C101.621 40.0164 101.548 40.0469 101.493 40.1013C101.439 40.1556 101.408 40.2293 101.408 40.3062V40.6279Z" fill="#E25D41"/>
<path d="M101.596 43.929C101.522 43.518 101.496 43.0997 101.521 42.6828C101.496 42.2668 101.522 41.8494 101.596 41.4395C101.672 41.8492 101.697 42.2668 101.671 42.6828C101.697 43.0997 101.672 43.5182 101.596 43.929Z" fill="#E25D41"/>
<path d="M102.276 43.929C102.202 43.518 102.177 43.0997 102.201 42.6828C102.177 42.2668 102.202 41.8494 102.276 41.4395C102.352 41.8492 102.378 42.2668 102.352 42.6828C102.378 43.0997 102.352 43.5182 102.276 43.929Z" fill="#E25D41"/>
<path d="M102.964 43.929C102.889 43.518 102.864 43.0997 102.888 42.6828C102.864 42.2668 102.889 41.8494 102.964 41.4395C103.04 41.8492 103.065 42.2668 103.039 42.6828C103.065 43.0997 103.04 43.5182 102.964 43.929Z" fill="#E25D41"/>
<path d="M103.369 56.8958H101.16C100.926 56.895 100.702 56.8017 100.536 56.6361C100.37 56.4705 100.277 56.2461 100.276 56.0119V52.3428H100.566V56.0119C100.566 56.1694 100.629 56.3206 100.74 56.432C100.852 56.5434 101.003 56.606 101.16 56.606H103.369C103.524 56.6022 103.671 56.5379 103.779 56.4269C103.888 56.3159 103.948 56.167 103.948 56.0119V52.4703H104.238V56.0119C104.24 56.1273 104.219 56.2419 104.176 56.349C104.133 56.4562 104.07 56.5538 103.989 56.636C103.908 56.7183 103.811 56.7837 103.705 56.8283C103.598 56.8729 103.484 56.8958 103.369 56.8958Z" fill="#E25D41"/>
<path d="M104.615 52.3623H99.9141V52.6521H104.615V52.3623Z" fill="#E25D41"/>
<path d="M101.408 52.5078H101.119V52.1861C101.119 52.0324 101.18 51.8849 101.288 51.7762C101.397 51.6675 101.545 51.6064 101.698 51.6064H102.858C103.011 51.6064 103.159 51.6675 103.267 51.7762C103.376 51.8849 103.437 52.0324 103.437 52.1861V52.444H103.147V52.1861C103.147 52.1092 103.117 52.0355 103.062 51.9811C103.008 51.9268 102.934 51.8963 102.858 51.8963H101.698C101.621 51.8963 101.548 51.9268 101.493 51.9811C101.439 52.0355 101.408 52.1092 101.408 52.1861V52.5078Z" fill="#E25D41"/>
<path d="M101.595 55.8089C101.495 54.9821 101.495 54.1461 101.595 53.3193C101.696 54.1461 101.696 54.9821 101.595 55.8089Z" fill="#E25D41"/>
<path d="M102.276 55.8089C102.176 54.9821 102.176 54.1461 102.276 53.3193C102.376 54.1461 102.376 54.9821 102.276 55.8089Z" fill="#E25D41"/>
<path d="M102.963 55.8089C102.863 54.9821 102.863 54.1461 102.963 53.3193C103.063 54.1461 103.063 54.9821 102.963 55.8089Z" fill="#E25D41"/>
<path d="M103.369 83.0112H101.16C101.045 83.0131 100.93 82.992 100.823 82.9492C100.716 82.9064 100.618 82.8427 100.536 82.7617C100.454 82.6808 100.389 82.5843 100.344 82.4779C100.299 82.3714 100.276 82.2572 100.276 82.1417V78.4727H100.566V82.1417C100.566 82.2191 100.582 82.2957 100.612 82.367C100.642 82.4383 100.686 82.5028 100.741 82.5568C100.796 82.6108 100.862 82.6532 100.934 82.6815C101.006 82.7097 101.083 82.7233 101.16 82.7214H103.369C103.522 82.7214 103.67 82.6603 103.779 82.5516C103.887 82.4429 103.948 82.2955 103.948 82.1417V78.5886H104.238V82.1302C104.24 82.2453 104.218 82.3596 104.175 82.4664C104.132 82.5733 104.069 82.6705 103.988 82.7525C103.907 82.8344 103.81 82.8995 103.704 82.9439C103.598 82.9883 103.484 83.0112 103.369 83.0112Z" fill="#E25D41"/>
<path d="M104.615 78.4814H99.9141V78.7713H104.615V78.4814Z" fill="#E25D41"/>
<path d="M101.408 78.6259H101.119V78.3013C101.119 78.1476 101.18 78.0002 101.288 77.8915C101.397 77.7827 101.545 77.7217 101.698 77.7217H102.858C103.011 77.7217 103.159 77.7827 103.267 77.8915C103.376 78.0002 103.437 78.1476 103.437 78.3013V78.5621H103.147V78.3013C103.147 78.2245 103.117 78.1507 103.062 78.0964C103.008 78.042 102.934 78.0115 102.858 78.0115H101.698C101.621 78.0115 101.548 78.042 101.493 78.0964C101.439 78.1507 101.408 78.2245 101.408 78.3013V78.6259Z" fill="#E25D41"/>
<path d="M101.595 81.927C101.495 81.1002 101.495 80.2643 101.595 79.4375C101.696 80.2643 101.696 81.1002 101.595 81.927Z" fill="#E25D41"/>
<path d="M102.276 81.927C102.176 81.1002 102.176 80.2643 102.276 79.4375C102.376 80.2643 102.376 81.1002 102.276 81.927Z" fill="#E25D41"/>
<path d="M102.963 81.927C102.863 81.1002 102.863 80.2643 102.963 79.4375C103.063 80.2643 103.063 81.1002 102.963 81.927Z" fill="#E25D41"/>
<path d="M104.567 31.3186C104.557 31.2291 104.552 31.1391 104.553 31.049C104.553 30.8606 104.553 30.6172 104.553 30.31C104.553 29.6637 104.533 28.7653 104.521 27.6785L104.582 27.7393L99.2754 27.7538L99.3507 27.6785V28.6319C99.3507 28.9479 99.3507 29.258 99.3507 29.5623C99.3507 30.1709 99.3507 30.7563 99.3507 31.3012L99.2812 31.2316L103.078 31.2664L104.176 31.2838H104.466H104.573C104.449 31.2902 104.324 31.2902 104.199 31.2838L103.118 31.3041L99.2754 31.3388H99.2058V31.2693C99.2058 30.7157 99.2058 30.1303 99.2058 29.5304V27.6466C99.1392 27.7132 99.2986 27.5538 99.2812 27.5683L104.579 27.5857H104.64V27.6437C104.64 28.745 104.617 29.6579 104.611 30.3129C104.611 30.6027 104.611 30.8549 104.594 31.0374C104.592 31.1317 104.583 31.2256 104.567 31.3186Z" fill="#313131"/>
<path d="M104.568 27.6787C104.515 27.7583 104.452 27.8304 104.38 27.8932C104.249 28.0236 104.061 28.2091 103.826 28.4351C103.357 28.8872 102.702 29.5017 101.968 30.174H101.864L101.847 30.1566L101.815 30.1248L101.745 30.0639L101.612 29.9393L101.348 29.6958L100.855 29.235L100.024 28.4467C99.7889 28.2207 99.6006 28.0352 99.473 27.9048C99.401 27.842 99.3376 27.7699 99.2847 27.6903C99.367 27.7388 99.4437 27.7962 99.5136 27.8613C99.6527 27.9801 99.8527 28.1511 100.093 28.3685L100.945 29.1307L101.447 29.5857L101.71 29.8292L101.844 29.9509L101.913 30.0146L101.948 30.0465H101.965C101.919 30.0465 102.07 30.0465 101.864 30.0465C102.594 29.3712 103.264 28.7684 103.751 28.3366C103.997 28.1192 104.197 27.9482 104.33 27.8294C104.403 27.7692 104.483 27.7186 104.568 27.6787Z" fill="#313131"/>
<path d="M101.036 29.3076C100.797 29.6876 100.518 30.0412 100.204 30.3626C99.9279 30.719 99.6119 31.0428 99.2622 31.3276C99.4971 30.9427 99.7751 30.5858 100.091 30.264C100.369 29.9103 100.686 29.5895 101.036 29.3076Z" fill="#313131"/>
<path d="M104.601 31.3597C104.26 31.0544 103.953 30.7134 103.685 30.3424C103.379 30.0015 103.112 29.6283 102.888 29.2295C103.229 29.5347 103.536 29.8758 103.804 30.2468C104.11 30.5868 104.377 30.9601 104.601 31.3597Z" fill="#313131"/>
<path d="M107.638 23.6593C107.638 23.6999 94.9961 23.7347 79.4039 23.7347C63.8117 23.7347 51.167 23.697 51.167 23.6593C51.167 23.6217 63.8059 23.584 79.401 23.584C94.9961 23.584 107.638 23.6188 107.638 23.6593Z" fill="#313131"/>
<path d="M107.638 36.2463C107.638 36.2868 94.9961 36.3216 79.4039 36.3216C63.8117 36.3216 51.167 36.2868 51.167 36.2463C51.167 36.2057 63.8059 36.1709 79.401 36.1709C94.9961 36.1709 107.638 36.2028 107.638 36.2463Z" fill="#313131"/>
<path d="M107.638 61.1584C107.638 61.1989 94.9961 61.2337 79.4039 61.2337C63.8117 61.2337 51.167 61.1989 51.167 61.1584C51.167 61.1178 63.8059 61.083 79.401 61.083C94.9961 61.083 107.638 61.1149 107.638 61.1584Z" fill="#313131"/>
<path d="M107.638 73.9103C107.638 73.9538 94.9966 73.9857 79.4044 73.9857C63.8123 73.9857 51.1704 73.9538 51.1704 73.9103C51.1704 73.8668 63.8094 73.835 79.4044 73.835C94.9995 73.835 107.638 73.8697 107.638 73.9103Z" fill="#313131"/>
<path d="M58.4937 32.3916C58.4937 32.3916 58.5574 32.3916 58.6675 32.351C58.8271 32.3003 58.9604 32.1889 59.0385 32.0409C59.1515 31.8525 59.0936 31.5714 59.1023 31.2526C59.111 30.9338 59.1023 30.5715 59.1023 30.1745C59.1023 29.7774 59.1023 29.334 59.1023 28.8674C59.1023 28.7485 59.1023 28.6297 59.1023 28.508C59.1123 28.3922 59.1025 28.2756 59.0733 28.1631C59.0368 28.0525 58.9677 27.9554 58.8752 27.8845C58.7826 27.8137 58.6709 27.7724 58.5545 27.7661H55.097C54.9626 27.7671 54.8328 27.8148 54.7297 27.901C54.6266 27.9871 54.5567 28.1064 54.5318 28.2385C54.5116 28.5051 54.5318 28.8181 54.5318 29.1079C54.5318 29.6876 54.5318 30.2382 54.5318 30.7686C54.5318 31.0323 54.5318 31.2902 54.5318 31.5424C54.524 31.6596 54.5298 31.7772 54.5492 31.8931C54.574 32.0028 54.6293 32.1032 54.7086 32.1829C54.7851 32.2556 54.8789 32.3075 54.9811 32.3336C55.0854 32.3513 55.1913 32.3572 55.297 32.351H55.9259L57.8184 32.3742L58.3343 32.3887C58.3945 32.3872 58.4547 32.3921 58.5139 32.4031C58.4543 32.4113 58.3939 32.4113 58.3343 32.4031L57.8184 32.4176L55.9259 32.4437H55.297C55.1817 32.4519 55.0659 32.4461 54.9521 32.4263C54.8254 32.3978 54.7091 32.3347 54.616 32.2442C54.5229 32.1537 54.4567 32.0392 54.4246 31.9134C54.4 31.7874 54.3922 31.6588 54.4014 31.5308C54.4014 31.2787 54.4014 31.0207 54.4014 30.757C54.4014 30.2266 54.4014 29.6731 54.4014 29.0963V28.6616C54.3916 28.5101 54.3916 28.3581 54.4014 28.2066C54.4354 28.0427 54.5249 27.8955 54.6548 27.79C54.7847 27.6844 54.947 27.6268 55.1144 27.627H58.5574C58.7001 27.6369 58.8367 27.6891 58.9497 27.7768C59.0627 27.8645 59.1471 27.9839 59.1921 28.1196C59.2255 28.2462 59.2373 28.3775 59.2269 28.508C59.2269 28.6297 59.2269 28.7485 59.2269 28.8674C59.2269 29.334 59.2269 29.7716 59.2269 30.1745C59.2269 30.5773 59.2269 30.9338 59.2269 31.2526C59.2269 31.412 59.2269 31.5598 59.2269 31.696C59.2306 31.8264 59.1996 31.9554 59.137 32.0699C59.0457 32.2248 58.8967 32.3374 58.7226 32.3829C58.6486 32.4069 58.5693 32.4099 58.4937 32.3916Z" fill="#313131"/>
<path d="M58.4937 70.0007C58.4937 70.0007 58.5574 70.0007 58.6675 69.9602C58.8271 69.9095 58.9604 69.7981 59.0385 69.6501C59.1515 69.4617 59.0936 69.1806 59.1023 68.8618C59.111 68.543 59.1023 68.1807 59.1023 67.7836C59.1023 67.3866 59.1023 66.9432 59.1023 66.4766C59.1023 66.3577 59.1023 66.2389 59.1023 66.1172C59.1123 66.0014 59.1025 65.8848 59.0733 65.7723C59.0368 65.6616 58.9677 65.5646 58.8752 65.4937C58.7826 65.4229 58.6709 65.3816 58.5545 65.3753H55.097C54.963 65.3762 54.8336 65.4234 54.7305 65.509C54.6275 65.5946 54.5573 65.7133 54.5318 65.8448C54.5116 66.1143 54.5318 66.4244 54.5318 66.7142C54.5318 67.2938 54.5318 67.8445 54.5318 68.3749C54.5318 68.6386 54.5318 68.8965 54.5318 69.1458C54.5239 69.2639 54.5298 69.3826 54.5492 69.4994C54.5731 69.6094 54.6285 69.7101 54.7086 69.7892C54.784 69.8633 54.8782 69.9154 54.9811 69.9399C55.0851 69.9601 55.1912 69.9669 55.297 69.9602H55.9259L57.8184 69.9834L58.3343 69.9978C58.394 69.9916 58.4542 69.9916 58.5139 69.9978C58.455 70.0108 58.3945 70.0157 58.3343 70.0123L57.8184 70.0268L55.9259 70.05H55.297C55.1817 70.0582 55.0659 70.0524 54.9521 70.0326C54.8254 70.0041 54.7091 69.941 54.616 69.8505C54.5229 69.76 54.4567 69.6455 54.4246 69.5196C54.3997 69.3928 54.3919 69.2631 54.4014 69.1342C54.4014 68.8849 54.4014 68.627 54.4014 68.3633C54.4014 67.8329 54.4014 67.2794 54.4014 66.7026V66.2679C54.3916 66.1164 54.3916 65.9644 54.4014 65.8129C54.4325 65.6463 54.5207 65.4958 54.6509 65.3874C54.781 65.2789 54.945 65.2193 55.1144 65.2188H58.5574C58.7001 65.2287 58.8367 65.2809 58.9497 65.3686C59.0627 65.4563 59.1471 65.5757 59.1921 65.7114C59.2255 65.838 59.2373 65.9693 59.2269 66.0998C59.2269 66.2215 59.2269 66.3403 59.2269 66.4592C59.2269 66.9258 59.2269 67.3634 59.2269 67.7662C59.2269 68.1691 59.2269 68.5256 59.2269 68.8444C59.2269 69.0038 59.2269 69.1516 59.2269 69.2878C59.2306 69.4182 59.1996 69.5472 59.137 69.6617C59.0923 69.7385 59.0325 69.8055 58.9613 69.8588C58.8901 69.912 58.8089 69.9505 58.7226 69.9718C58.65 70.0007 58.5712 70.0107 58.4937 70.0007Z" fill="#313131"/>
<path d="M50.7485 84.848C50.7485 84.848 50.7485 84.7872 50.7485 84.6712C50.7485 84.5553 50.7485 84.3814 50.7485 84.1525C50.7485 83.6888 50.7485 83.0164 50.7485 82.1556C50.7485 80.4167 50.7485 77.9098 50.7485 74.8145C50.7485 68.6182 50.8239 60.057 50.9108 50.6003C50.9978 41.1435 51.0644 32.5852 51.1195 26.3831C51.1398 23.2879 51.1543 20.781 51.1659 19.042C51.1659 18.1726 51.1659 17.5089 51.1833 17.0481C51.1833 16.822 51.1833 16.651 51.1833 16.5293C51.1833 16.4076 51.1833 16.3525 51.1833 16.3525C51.1833 16.3525 51.1833 16.4105 51.1833 16.5293C51.1833 16.6482 51.1833 16.8191 51.1833 17.0481C51.1833 17.5089 51.1833 18.1813 51.1833 19.042C51.1833 20.781 51.1833 23.2879 51.1833 26.3831C51.1688 32.5794 51.1079 41.1435 51.0181 50.6003C50.9282 60.057 50.8645 68.6124 50.8123 74.8145C50.792 77.9098 50.7775 80.4167 50.7659 82.1556C50.7659 83.0251 50.7659 83.6888 50.7485 84.1525C50.7485 84.3756 50.7485 84.5466 50.7485 84.6712C50.7485 84.7959 50.7485 84.848 50.7485 84.848Z" fill="#313131"/>
<path d="M83.0199 41.2941C83.0199 41.3347 78.6727 41.3695 73.2937 41.3695C67.9146 41.3695 63.5674 41.3347 63.5674 41.2941C63.5674 41.2535 67.9146 41.2188 73.2937 41.2188C78.6727 41.2188 83.0199 41.2506 83.0199 41.2941Z" fill="#313131"/>
<path d="M95.1778 43.4396C95.1778 43.4831 88.1004 43.515 79.374 43.515C70.6476 43.515 63.5674 43.4831 63.5674 43.4396C63.5674 43.3961 70.6447 43.3643 79.374 43.3643C88.1033 43.3643 95.1778 43.4048 95.1778 43.4396Z" fill="#313131"/>
<path d="M83.0199 66.5402C83.0199 66.5808 78.6727 66.6155 73.2937 66.6155C67.9146 66.6155 63.5674 66.5808 63.5674 66.5402C63.5674 66.4996 67.9146 66.4648 73.2937 66.4648C78.6727 66.4648 83.0199 66.4967 83.0199 66.5402Z" fill="#313131"/>
<path d="M95.1778 68.6847C95.1778 68.7253 88.1004 68.7601 79.374 68.7601C70.6476 68.7601 63.5674 68.7253 63.5674 68.6847C63.5674 68.6442 70.6447 68.6094 79.374 68.6094C88.1033 68.6094 95.1778 68.6442 95.1778 68.6847Z" fill="#313131"/>
<path d="M83.0199 29.1632C83.0199 29.2067 78.6727 29.2415 73.2937 29.2415C67.9146 29.2415 63.5674 29.2067 63.5674 29.1632C63.5674 29.1198 67.9146 29.0879 73.2937 29.0879C78.6727 29.0879 83.0199 29.1227 83.0199 29.1632Z" fill="#313131"/>
<path d="M95.1778 31.3107C95.1778 31.3513 88.1004 31.3861 79.374 31.3861C70.6476 31.3861 63.5674 31.3513 63.5674 31.3107C63.5674 31.2701 70.6447 31.2354 79.374 31.2354C88.1033 31.2354 95.1778 31.2701 95.1778 31.3107Z" fill="#313131"/>
<path d="M83.0199 53.6642C83.0199 53.7048 78.6727 53.7396 73.2937 53.7396C67.9146 53.7396 63.5674 53.7048 63.5674 53.6642C63.5674 53.6236 67.9146 53.5889 73.2937 53.5889C78.6727 53.5889 83.0199 53.6236 83.0199 53.6642Z" fill="#313131"/>
<path d="M95.1778 55.8088C95.1778 55.8522 88.1004 55.8841 79.374 55.8841C70.6476 55.8841 63.5674 55.8522 63.5674 55.8088C63.5674 55.7653 70.6447 55.7334 79.374 55.7334C88.1033 55.7334 95.1778 55.7682 95.1778 55.8088Z" fill="#313131"/>
<path d="M83.0199 78.5187C83.0199 78.5593 78.6727 78.5941 73.2937 78.5941C67.9146 78.5941 63.5674 78.5593 63.5674 78.5187C63.5674 78.4781 67.9146 78.4434 73.2937 78.4434C78.6727 78.4434 83.0199 78.4723 83.0199 78.5187Z" fill="#313131"/>
<path d="M95.1778 80.6632C95.1778 80.7038 88.1004 80.7386 79.374 80.7386C70.6476 80.7386 63.5674 80.7038 63.5674 80.6632C63.5674 80.6227 70.6447 80.5879 79.374 80.5879C88.1033 80.5879 95.1778 80.6227 95.1778 80.6632Z" fill="#313131"/>
<path d="M105.093 17.9209H101.265V21.7494H105.093V17.9209Z" fill="#E0E0E0"/>
<path d="M98.8597 17.9209H95.0312V21.7494H98.8597V17.9209Z" fill="#E0E0E0"/>
<path d="M92.6263 17.9209H88.7979V21.7494H92.6263V17.9209Z" fill="#E0E0E0"/>
<path d="M23.1382 27.9453L24.7641 30.0668L26.1552 27.9453H23.1382Z" fill="#313131"/>
<path d="M19.6147 55.4634C23.3823 50.4901 27.3702 51.1915 30.1322 52.3942C31.5097 53.0218 32.6681 54.0471 33.4583 55.3382C34.2485 56.6294 34.6344 58.1274 34.5664 59.6396C34.52 60.4337 34.349 61.2684 34.6736 61.9959C35.1924 63.1551 36.7024 63.4942 37.5718 64.4274C38.7688 65.7055 38.505 67.7255 38.0993 69.4297C37.6935 71.1338 37.2704 73.0756 38.2703 74.5102C39.189 75.823 40.9366 76.1766 42.3799 76.878C43.3375 77.3352 44.1878 77.9895 44.875 78.7981C45.5622 79.6067 46.0709 80.5513 46.3678 81.5701C46.6482 82.5953 46.6702 83.6739 46.432 84.7096C46.1938 85.7453 45.7028 86.706 45.0027 87.5056C43.6 89.03 41.4959 89.7082 39.4469 90.0096C36.451 90.4517 33.3942 90.2236 30.4971 89.3416C27.5999 88.4596 24.9346 86.9458 22.6932 84.9093C20.4518 82.8727 18.6902 80.3643 17.5354 77.5647C16.3806 74.7651 15.8614 71.7441 16.0152 68.7196" fill="#313131"/>
<path d="M30.3285 52.6055C29.88 52.603 29.4319 52.6282 28.9866 52.6809C27.9219 52.8874 26.8782 53.1901 25.8682 53.5851C24.6654 54.0053 23.5033 54.2401 22.657 54.185C22.3242 54.1727 21.9941 54.1192 21.6745 54.0256C21.5549 53.9958 21.4399 53.95 21.3325 53.8894C21.7674 53.9978 22.2121 54.0619 22.6599 54.0807C23.7424 54.0487 24.8115 53.8331 25.8218 53.4431C27.0187 53.0228 28.1403 52.6606 28.9721 52.5736C29.3029 52.5334 29.6367 52.5247 29.9691 52.5475C30.0909 52.5509 30.2118 52.5704 30.3285 52.6055Z" fill="#455A64"/>
<path d="M39.0127 92.1631C39.1576 92.5978 42.163 106.799 42.163 106.799L65.0267 115.589L63.7399 118.925L44.1367 117.2C32.6947 115.493 32.06 109.88 32.7497 103.605L33.9351 92.85L39.0127 92.1631Z" fill="#FFBE9D"/>
<path d="M6.1499 84.5056C8.50612 80.9379 12.0825 78.8802 15.3574 77.7412L27.3848 78.6107C28.7298 78.4943 30.0839 78.6763 31.3504 79.1437C32.6169 79.6111 33.7645 80.3524 34.7114 81.3147L35.8301 111.117L38.5921 118.942H9.97839L6.1499 84.5056Z" fill="#E25D41"/>
<path d="M35.1519 93.5421C35.1519 93.5421 35.1258 93.5277 35.0823 93.4958L34.8882 93.3509C34.7871 93.2671 34.6816 93.1888 34.5723 93.1161L34.1231 92.8263C33.9434 92.7307 33.7463 92.6234 33.5289 92.5162C32.6972 92.1353 31.806 91.901 30.8945 91.8235C30.113 91.7549 29.3256 91.8037 28.5586 91.9684C27.6777 92.1535 26.8405 92.5057 26.0922 93.006C25.249 93.532 24.5749 94.2896 24.1504 95.1883C23.9383 95.6618 23.8476 96.1808 23.8867 96.6983C23.9383 97.231 24.1392 97.7383 24.4663 98.1618C24.7868 98.5869 25.2614 98.8689 25.7879 98.9472C26.0358 98.9927 26.2916 98.9638 26.5231 98.8643C26.7546 98.7648 26.9516 98.599 27.0892 98.3879C27.1966 98.1673 27.2544 97.9258 27.2584 97.6804C27.2624 97.435 27.2126 97.1918 27.1124 96.9678C27.0275 96.7409 26.9125 96.5264 26.7704 96.3302C26.6277 96.1407 26.4666 95.966 26.2893 95.8085C25.6147 95.2136 24.7966 94.805 23.9157 94.6232C23.1491 94.4542 22.3603 94.4102 21.5797 94.4927C20.4448 94.6309 19.3289 94.8953 18.2526 95.281L17.3687 95.5709L17.1397 95.6462C17.1141 95.6577 17.0866 95.6646 17.0586 95.6665L17.1339 95.6317L17.36 95.5419C17.5571 95.4665 17.8527 95.3535 18.2295 95.2173C19.3029 94.8099 20.4206 94.5308 21.5595 94.3855C22.3516 94.2954 23.1531 94.3336 23.9331 94.4985C24.8361 94.683 25.6758 95.0984 26.3704 95.7042C26.4632 95.7853 26.5501 95.8723 26.6342 95.9621C26.7212 96.0528 26.8016 96.1497 26.8747 96.2519C27.0242 96.4573 27.146 96.6814 27.237 96.9185C27.345 97.1632 27.3981 97.4285 27.3926 97.6959C27.3871 97.9632 27.3231 98.2261 27.2051 98.4661C27.0633 98.709 26.8438 98.8968 26.582 98.9994C26.3204 99.1015 26.0372 99.1355 25.7589 99.0979C25.1921 99.017 24.6804 98.7148 24.3359 98.2575C23.9937 97.8109 23.7856 97.2761 23.736 96.7156C23.6971 96.1722 23.7969 95.6277 24.0258 95.1332C24.4621 94.209 25.1566 93.431 26.0255 92.893C26.7913 92.3879 27.6459 92.0329 28.5441 91.8467C29.3235 91.686 30.1226 91.643 30.9148 91.7192C31.5681 91.7764 32.2111 91.9186 32.8276 92.1423C33.0799 92.2331 33.3276 92.3366 33.5695 92.4524C33.7898 92.5655 33.9868 92.6785 34.1491 92.777L34.5955 93.0813C34.7029 93.1592 34.8064 93.2423 34.9056 93.3306L35.0881 93.4871L35.1519 93.5421Z" fill="#FAFAFA"/>
<path d="M34.7123 81.3008L41.8128 94.0701L33.9355 96.4901L34.7123 81.3008Z" fill="#E25D41"/>
<path d="M35.6646 111.201C35.6507 111.128 35.6429 111.053 35.6414 110.978C35.6414 110.819 35.6211 110.607 35.6038 110.34C35.5777 109.761 35.5429 108.967 35.4965 107.981C35.4154 105.993 35.3139 103.243 35.2241 100.206C35.1342 97.1682 35.0792 94.4092 35.0618 92.421C35.0618 91.424 35.0618 90.6183 35.0618 90.0619C35.0618 89.7953 35.0618 89.5808 35.0618 89.4214C35.0603 89.3467 35.0651 89.2721 35.0763 89.1982C35.0896 89.2718 35.0954 89.3466 35.0937 89.4214L35.1111 90.0619C35.1111 90.6415 35.14 91.4356 35.1632 92.4181C35.2154 94.4236 35.2878 97.1682 35.369 100.2C35.4501 103.231 35.54 105.973 35.598 107.978C35.6211 108.961 35.6414 109.764 35.6559 110.338C35.6559 110.604 35.6559 110.819 35.6559 110.978C35.6664 111.052 35.6694 111.127 35.6646 111.201Z" fill="#313131"/>
<path d="M36.8074 85.1904C36.7581 85.2345 36.7036 85.2725 36.6451 85.3034C36.4849 85.4048 36.3184 85.4958 36.1466 85.5758C35.3439 85.9285 34.4657 86.0747 33.5921 86.0013C32.7184 85.9279 31.877 85.6372 31.1444 85.1556C30.888 84.995 30.655 84.8 30.4517 84.576C30.2278 84.3336 30.0789 84.0316 30.0228 83.7065C29.9911 83.5366 29.9978 83.3618 30.0424 83.1948C30.0871 83.0278 30.1685 82.8729 30.2807 82.7414C30.4051 82.6118 30.5611 82.5168 30.7334 82.466C30.9058 82.4152 31.0884 82.4102 31.2632 82.4516C31.4372 82.484 31.6026 82.5523 31.7488 82.6521C31.895 82.7519 32.0188 82.881 32.1123 83.0312C32.2792 83.332 32.3337 83.6823 32.2659 84.0195C32.2059 84.3383 32.0675 84.6371 31.8631 84.889C31.6666 85.1268 31.4254 85.3237 31.153 85.4686C30.6503 85.7196 30.1045 85.873 29.5446 85.9207C29.0634 85.9754 28.5779 85.9812 28.0955 85.9381C27.3988 85.8756 26.7152 85.7106 26.0668 85.4483C25.8906 85.3775 25.7184 85.2972 25.5509 85.2078C25.4897 85.1816 25.4322 85.1475 25.3799 85.1063C25.4421 85.128 25.5031 85.1532 25.5625 85.1817C25.6813 85.2339 25.8523 85.3092 26.087 85.3933C26.7398 85.6323 27.4225 85.7796 28.1158 85.8309C28.591 85.8662 29.0687 85.8546 29.5417 85.7961C30.0839 85.7448 30.6118 85.5924 31.098 85.3469C31.3529 85.2095 31.5792 85.0245 31.7646 84.802C31.9513 84.5676 32.0777 84.291 32.1326 83.9963C32.1922 83.6945 32.1429 83.3813 31.9935 83.1124C31.9117 82.9796 31.8028 82.8656 31.674 82.7777C31.5452 82.6898 31.3993 82.63 31.2458 82.6023C31.0967 82.5655 30.9405 82.5681 30.7927 82.6097C30.6449 82.6514 30.5104 82.7307 30.4024 82.84C30.3053 82.9553 30.2352 83.0909 30.1971 83.2368C30.159 83.3827 30.1539 83.5352 30.1822 83.6833C30.234 83.9777 30.3687 84.2512 30.5705 84.4716C30.7644 84.6941 30.9877 84.8891 31.2342 85.0513C32.0851 85.6244 33.0891 85.9274 34.115 85.9207C34.8101 85.9248 35.4993 85.7929 36.1437 85.5324C36.5726 85.3295 36.7987 85.1759 36.8074 85.1904Z" fill="#FAFAFA"/>
<path d="M35.2946 110.952L35.2134 110.897L34.9816 110.729C34.6793 110.518 34.3626 110.329 34.0339 110.164C32.8185 109.563 31.4764 109.265 30.1213 109.294C28.4143 109.294 26.3943 109.874 24.438 110.998C23.9362 111.282 23.4659 111.618 23.0353 112.001C22.5829 112.392 22.2074 112.863 21.9282 113.392C21.6442 113.938 21.5513 114.564 21.6645 115.169C21.7324 115.47 21.8877 115.744 22.1108 115.957C22.2201 116.061 22.3546 116.134 22.5009 116.17C22.6472 116.206 22.8004 116.204 22.9455 116.163C23.2351 116.063 23.475 115.856 23.6149 115.583C23.7625 115.31 23.8448 115.006 23.8555 114.696C23.8504 114.075 23.6586 113.469 23.3048 112.957C22.9682 112.463 22.5307 112.045 22.0209 111.731C21.5305 111.433 20.9922 111.223 20.4298 111.108C19.3771 110.912 18.2983 110.901 17.2418 111.076C16.3175 111.208 15.404 111.408 14.5089 111.673C13.2125 112.069 11.9606 112.597 10.7731 113.25C10.3529 113.479 10.0341 113.67 9.81672 113.801L9.57327 113.951L9.48633 113.998C9.48633 113.998 9.50951 113.975 9.56458 113.937L9.80223 113.775C10.0109 113.636 10.3297 113.438 10.747 113.195C11.931 112.529 13.1835 111.992 14.4828 111.595C15.3815 111.32 16.3 111.113 17.2303 110.978C18.299 110.793 19.3921 110.798 20.4588 110.995C21.0378 111.11 21.592 111.326 22.0963 111.633C22.6246 111.955 23.0781 112.385 23.4265 112.896C23.7972 113.428 23.9992 114.06 24.0062 114.708C23.995 115.043 23.9057 115.37 23.7453 115.664C23.5889 115.976 23.3163 116.215 22.986 116.328C22.8166 116.376 22.6375 116.379 22.4664 116.338C22.2952 116.296 22.1378 116.211 22.0093 116.09C21.7646 115.855 21.5944 115.552 21.5196 115.221C21.401 114.58 21.5031 113.918 21.8094 113.343C22.0969 112.797 22.4842 112.311 22.9512 111.908C23.3921 111.521 23.8719 111.18 24.3829 110.891C26.3595 109.755 28.4056 109.201 30.1358 109.201C31.5049 109.179 32.8584 109.493 34.0773 110.117C34.5182 110.34 34.9275 110.621 35.2946 110.952Z" fill="#FAFAFA"/>
<path d="M14.8763 87.8046C14.0068 83.3501 7.70328 83.1849 6.59908 87.5872C6.58169 87.6539 6.5643 87.7234 6.54981 87.793C4.92393 94.7283 10.416 115.221 11.8911 116.404C13.3663 117.586 14.8299 118.925 17.3513 117.879C18.8265 117.267 34.1433 103.73 34.1433 103.73C34.1433 103.73 37.6849 107.124 38.8674 106.828C40.0498 106.533 42.3046 103.061 42.3046 103.061C42.3046 103.061 44.4956 106.344 44.7709 106.393C44.9205 106.418 45.0739 106.401 45.2142 106.343C45.3546 106.286 45.4764 106.192 45.5663 106.07C45.6562 105.948 45.7107 105.803 45.7238 105.652C45.7369 105.501 45.708 105.35 45.6404 105.214C45.3506 104.77 42.5567 98.664 42.5567 98.664C42.5567 98.664 44.7565 98.4264 44.313 97.6874C44.313 97.6874 44.258 97.0092 42.7712 97.1396C41.2844 97.27 41.3134 95.5717 38.5457 95.734C35.7779 95.8963 30.0627 96.6034 22.0261 102.771L18.3019 105.397L14.8763 87.8046Z" fill="#FFBE9D"/>
<path d="M22.0161 102.77L22.1088 102.695L22.3987 102.483L23.4855 101.669C24.8664 100.681 26.3044 99.7748 27.7922 98.9562C30.0677 97.6956 32.5056 96.7535 35.0376 96.1565C35.7679 96.0029 36.5244 95.8667 37.3098 95.7769C37.7039 95.7334 38.101 95.6986 38.5067 95.6697C38.9199 95.639 39.3354 95.6574 39.7442 95.7247C40.1658 95.7988 40.5686 95.9554 40.9296 96.1855C41.2977 96.4087 41.6078 96.7188 41.9787 96.9101C42.1582 97.0034 42.3562 97.0559 42.5584 97.0637C42.7641 97.0637 42.9902 97.0376 43.2162 97.0463C43.4463 97.0464 43.6746 97.0856 43.8915 97.1622C44.0119 97.1962 44.1213 97.2613 44.2088 97.3508C44.2963 97.4403 44.3588 97.5511 44.39 97.6723V97.6433C44.449 97.7362 44.4698 97.8484 44.448 97.9563C44.416 98.0595 44.352 98.1498 44.2654 98.2143C44.1057 98.332 43.9274 98.4221 43.7379 98.4809C43.3604 98.6004 42.9721 98.6829 42.5786 98.7272L42.6395 98.6258L44.6045 102.877C44.9494 103.602 45.2913 104.347 45.6652 105.068C45.7255 105.158 45.7732 105.256 45.8072 105.358C45.8275 105.469 45.8275 105.583 45.8072 105.694C45.77 105.921 45.6528 106.127 45.4768 106.274C45.3897 106.348 45.2885 106.403 45.1794 106.436C45.0703 106.47 44.9555 106.481 44.8421 106.468H44.7581C44.7369 106.465 44.7164 106.458 44.6972 106.448L44.6566 106.419C44.6133 106.382 44.5726 106.343 44.5349 106.3C44.4625 106.222 44.3929 106.141 44.3291 106.057C43.5727 105.089 42.9032 104.086 42.2367 103.101H42.3613C41.8372 103.899 41.2682 104.668 40.6572 105.402C40.3579 105.765 40.0314 106.105 39.6805 106.419C39.5906 106.494 39.495 106.564 39.4051 106.639C39.3061 106.706 39.2036 106.767 39.0979 106.822C38.9891 106.88 38.8693 106.916 38.7461 106.926C38.6229 106.936 38.499 106.92 38.3821 106.88C37.9429 106.74 37.5268 106.536 37.1475 106.274C36.7678 106.028 36.4084 105.764 36.0578 105.492C35.3622 104.944 34.7101 104.373 34.0899 103.787H34.1826C29.3253 108.059 25.1664 111.647 22.1929 114.134C20.7061 115.377 19.515 116.342 18.6803 116.98C18.263 117.299 17.9355 117.536 17.7065 117.684C17.5933 117.764 17.4719 117.831 17.3442 117.884C17.3442 117.884 17.4718 117.82 17.6949 117.664C17.9181 117.507 18.2427 117.27 18.6542 116.945C19.4773 116.299 20.6597 115.322 22.132 114.07C25.0911 111.566 29.2383 107.964 34.087 103.683L34.1334 103.643L34.1797 103.686C34.7941 104.266 35.4491 104.845 36.1418 105.376C36.4867 105.645 36.8461 105.909 37.2199 106.149C37.5863 106.4 37.9876 106.596 38.4111 106.729C38.8458 106.891 39.2342 106.584 39.5703 106.297C39.914 105.988 40.2346 105.654 40.5296 105.297C41.1362 104.567 41.7012 103.804 42.2222 103.011L42.283 102.915L42.3468 103.008C43.0105 103.99 43.6857 104.996 44.4306 105.955C44.4963 106.036 44.5629 106.115 44.6306 106.19C44.6653 106.225 44.7001 106.262 44.7349 106.291L44.7581 106.309C44.7581 106.309 44.7581 106.309 44.7581 106.335C44.7581 106.361 44.7581 106.381 44.7581 106.312H44.8276C44.9218 106.323 45.0172 106.314 45.1079 106.287C45.1986 106.259 45.2828 106.214 45.3551 106.152C45.5059 106.034 45.6051 105.862 45.6322 105.673C45.6592 105.483 45.6118 105.291 45.5 105.135C45.1145 104.396 44.7784 103.66 44.4335 102.932L42.4714 98.6751L42.4308 98.5852H42.5294C42.912 98.5414 43.2896 98.4609 43.6568 98.3447C43.8303 98.2933 43.994 98.213 44.1408 98.107C44.2028 98.0612 44.2494 97.9975 44.2741 97.9244C44.2867 97.8532 44.2722 97.7798 44.2335 97.7187V97.6984C44.2031 97.6045 44.1498 97.5196 44.0785 97.4513C44.0072 97.383 43.92 97.3335 43.8249 97.3071C43.6236 97.2371 43.4119 97.2018 43.1989 97.2028C42.9815 97.2028 42.7728 97.2231 42.541 97.2202C42.3125 97.2112 42.0888 97.1518 41.886 97.0463C41.486 96.8405 41.1817 96.5304 40.8282 96.313C40.4815 96.0935 40.0958 95.9429 39.6921 95.8696C38.8893 95.7247 38.0749 95.8493 37.2953 95.9189C36.5157 95.9885 35.7621 96.1392 35.0347 96.2899C32.5054 96.8762 30.0679 97.8044 27.7893 99.0489C26.3007 99.8593 24.8581 100.751 23.4681 101.721L22.3726 102.518L22.0828 102.721L22.0161 102.77Z" fill="#E25D41"/>
<path d="M16.926 110.381C16.926 110.381 16.8941 110.305 16.8651 110.166C16.8253 109.966 16.8011 109.764 16.7927 109.56C16.7175 108.205 17.0914 106.862 17.8563 105.741C17.9708 105.572 18.0966 105.411 18.2331 105.259C18.3316 105.155 18.3896 105.1 18.3954 105.106C18.4012 105.112 18.2128 105.367 17.9461 105.799C17.2455 106.929 16.8816 108.236 16.897 109.566C16.9028 110.062 16.9521 110.378 16.926 110.381Z" fill="#E25D41"/>
<path d="M10.5936 80.0977C10.4516 80.1933 5.35085 81.7177 4.54806 86.946C3.74526 92.1744 4.21766 101.28 4.21766 101.28L18.0536 100.33L14.086 81.9496L10.5936 80.0977Z" fill="#E25D41"/>
<path d="M39.9918 106.106C39.9686 106.106 40.0063 105.917 39.9918 105.631C39.9772 105.255 39.8782 104.887 39.702 104.555C39.525 104.223 39.2766 103.934 38.9745 103.709C38.7427 103.541 38.5717 103.471 38.5804 103.445C38.7446 103.465 38.9012 103.525 39.0354 103.622C39.3745 103.836 39.6506 104.136 39.8353 104.492C40.0252 104.847 40.1144 105.248 40.0932 105.651C40.0967 105.808 40.0618 105.965 39.9918 106.106Z" fill="#E25D41"/>
<path d="M41.2634 104.556C41.1973 104.108 41.0371 103.679 40.7933 103.297C40.5496 102.916 40.2278 102.59 39.8491 102.342C39.9859 102.365 40.1145 102.423 40.223 102.51C40.5021 102.694 40.7391 102.935 40.9185 103.217C41.1005 103.499 41.2201 103.816 41.2692 104.147C41.3028 104.282 41.3008 104.423 41.2634 104.556Z" fill="#E25D41"/>
<path d="M41.2646 101.251C41.2646 101.237 41.3951 101.295 41.5545 101.437C41.7598 101.626 41.924 101.855 42.0367 102.11C42.1494 102.366 42.2082 102.641 42.2095 102.921C42.2095 103.132 42.1718 103.26 42.1544 103.257C42.1125 102.885 42.0259 102.52 41.8964 102.17C41.7224 101.84 41.5103 101.532 41.2646 101.251Z" fill="#E25D41"/>
<path d="M16.3661 91.6501C16.3421 91.6546 16.3176 91.6546 16.2936 91.6501L16.085 91.6269C15.8176 91.5939 15.5486 91.5755 15.2793 91.5719C14.2876 91.5616 13.3034 91.7437 12.3811 92.108C11.0101 92.6432 9.83168 93.5782 8.99893 94.7917C8.50345 95.4929 8.24918 96.3361 8.27438 97.1943C8.29403 97.6454 8.42764 98.0841 8.66274 98.4695C8.90852 98.8601 9.2841 99.1515 9.72347 99.2926C10.1603 99.4378 10.6356 99.415 11.0566 99.2288C11.2548 99.1341 11.43 98.9974 11.5701 98.8283C11.7102 98.6591 11.8119 98.4616 11.8681 98.2492C11.9641 97.8261 11.9461 97.3851 11.816 96.9711C11.6976 96.5704 11.5114 96.193 11.2653 95.8554C10.8278 95.2696 10.2786 94.7764 9.64929 94.4043C9.02 94.0322 8.32316 93.7886 7.59911 93.6875C6.6157 93.5587 5.61572 93.6927 4.70093 94.0759C4.4531 94.1815 4.21209 94.3025 3.97929 94.4381L3.7996 94.5483L3.73584 94.5802C4.02378 94.3538 4.34052 94.1667 4.67775 94.0237C5.59696 93.6122 6.61117 93.4599 7.6107 93.5832C8.35301 93.6778 9.06885 93.9202 9.71595 94.296C10.363 94.6718 10.9283 95.1734 11.3783 95.7713C11.6379 96.1208 11.8341 96.5132 11.958 96.9306C12.0968 97.3697 12.1158 97.838 12.013 98.2869C11.952 98.5205 11.8408 98.738 11.6871 98.9242C11.5335 99.1104 11.341 99.2608 11.1233 99.365C10.6657 99.567 10.1496 99.5928 9.6742 99.4375C9.20291 99.28 8.80186 98.962 8.54101 98.5391C8.28898 98.1368 8.14337 97.677 8.11788 97.203C8.09773 96.3101 8.36942 95.435 8.89169 94.7106C9.74426 93.4792 10.9511 92.5361 12.3521 92.0066C13.2861 91.6482 14.2824 91.4807 15.2822 91.5139C15.6471 91.5233 16.0102 91.5689 16.3661 91.6501Z" fill="#FAFAFA"/>
<path d="M15.8942 84.1436C15.7834 84.2099 15.6658 84.2643 15.5436 84.3059C15.4044 84.3671 15.261 84.4185 15.1146 84.4595C14.9249 84.5255 14.7314 84.5797 14.535 84.6218C14.2992 84.681 14.0602 84.7264 13.8191 84.758C13.5583 84.8015 13.2801 84.816 12.9845 84.8363C12.3441 84.8565 11.7033 84.8128 11.0717 84.7058C10.4423 84.5871 9.82663 84.4045 9.23422 84.161C8.96469 84.0393 8.70676 83.9291 8.4807 83.7987C8.265 83.6852 8.05599 83.5594 7.85469 83.4219C7.68607 83.3131 7.52353 83.195 7.3678 83.0684C7.24638 82.9797 7.13116 82.8829 7.02292 82.7786C6.92287 82.6975 6.83156 82.6062 6.75049 82.5061C6.77078 82.48 7.16783 82.8655 7.90976 83.335C8.11356 83.4646 8.32449 83.5827 8.54156 83.6886C8.78482 83.817 9.03437 83.933 9.28929 84.0364C10.4604 84.5122 11.718 84.7382 12.9816 84.7C13.2714 84.6827 13.5612 84.674 13.8046 84.6363C14.0481 84.5986 14.2973 84.5638 14.5147 84.5204C15.3755 84.3378 15.8826 84.1146 15.8942 84.1436Z" fill="#FAFAFA"/>
<path d="M17.0345 93.0088C17.0493 93.0541 17.06 93.1007 17.0663 93.1479C17.0837 93.2522 17.1069 93.3856 17.133 93.5507C17.191 93.9217 17.2692 94.4202 17.3648 95.0665C17.5532 96.3794 17.817 98.2023 18.1213 100.318V100.396H18.0459L14.8115 100.622L7.31107 101.115L5.0389 101.248L4.41869 101.277H4.21582C4.28582 101.258 4.3578 101.248 4.43029 101.245L5.0447 101.19L7.31687 101.011L14.8144 100.472L18.0459 100.254L17.9793 100.335C17.6894 98.2168 17.4518 96.391 17.2779 95.0781C17.1967 94.4405 17.133 93.9188 17.0866 93.5565C17.0663 93.3884 17.0518 93.2667 17.0402 93.1479C17.0316 93.1021 17.0297 93.0552 17.0345 93.0088Z" fill="#313131"/>
<g opacity="0.2">
<path d="M10.3247 79.953C10.1856 80.4428 10.5739 80.9007 10.8261 81.3412C11.313 82.1875 11.339 83.2105 11.3825 84.1872C11.415 85.9822 11.6909 87.7644 12.2027 89.4851C12.7591 91.1834 13.7155 92.7919 15.1299 93.8874C16.5442 94.9829 18.4425 95.5191 20.1727 95.0699C21.9029 94.6207 23.3607 93.0846 23.5085 91.3022C23.6563 89.5199 22.5811 87.9317 21.9666 86.2681C21.4913 84.9871 21.2798 83.625 21.0074 82.2831C20.7349 80.9413 20.3871 79.5936 19.6771 78.4257C18.967 77.2577 17.8396 76.281 16.4891 76.0347C15.1385 75.7883 13.6083 76.4259 13.0635 77.6779" fill="black"/>
</g>
<path d="M17.0106 56.5529V58.0919L16.9092 81.1642C16.9092 83.8421 19.1929 85.9868 22.0592 85.9781C24.9574 85.9781 27.3484 83.7697 27.4035 81.0512C27.4643 78.211 27.5774 75.223 27.5774 75.223C27.5774 75.223 31.2465 74.681 32.0898 69.9193C32.5101 67.5544 32.4579 63.6592 32.3159 60.4742C32.2856 59.7945 32.1181 59.1281 31.8234 58.5149C31.5287 57.9018 31.113 57.3546 30.6012 56.9064C30.0894 56.4583 29.4921 56.1184 28.8454 55.9072C28.1987 55.696 27.516 55.6179 26.8383 55.6777L17.0106 56.5529Z" fill="#FFBE9D"/>
<path d="M31.1962 63.4018C31.1947 63.5617 31.1309 63.7148 31.0183 63.8285C30.9057 63.9421 30.7533 64.0074 30.5934 64.0104C30.5151 64.0159 30.4365 64.0055 30.3624 63.9797C30.2883 63.954 30.2202 63.9135 30.1622 63.8606C30.1042 63.8078 30.0576 63.7437 30.0251 63.6723C29.9926 63.6009 29.9749 63.5237 29.9731 63.4453C29.9746 63.2861 30.0381 63.1337 30.1502 63.0206C30.2622 62.9075 30.4139 62.8426 30.5731 62.8395C30.6513 62.8336 30.73 62.8437 30.8042 62.869C30.8785 62.8944 30.9468 62.9346 31.0051 62.9872C31.0633 63.0398 31.1103 63.1036 31.1432 63.1749C31.176 63.2461 31.194 63.3233 31.1962 63.4018Z" fill="#313131"/>
<path d="M31.4361 62.4969C31.3579 62.5751 30.9029 62.2215 30.2421 62.2071C29.5813 62.1926 29.0828 62.5172 29.0249 62.436C28.9901 62.3983 29.0712 62.2563 29.2828 62.1085C29.5705 61.913 29.9118 61.8117 30.2595 61.8187C30.6016 61.8246 30.9332 61.9382 31.2072 62.1433C31.4072 62.3143 31.4738 62.4592 31.4361 62.4969Z" fill="#313131"/>
<path d="M24.9574 63.2797C24.9559 63.4394 24.892 63.5921 24.7794 63.7053C24.6667 63.8185 24.5143 63.8831 24.3546 63.8854C24.2766 63.8909 24.1982 63.8806 24.1243 63.855C24.0504 63.8294 23.9824 63.7892 23.9245 63.7366C23.8665 63.6841 23.8198 63.6204 23.7872 63.5493C23.7545 63.4783 23.7365 63.4013 23.7344 63.3231C23.7358 63.1637 23.7992 63.011 23.9112 62.8975C24.0231 62.7839 24.1749 62.7183 24.3343 62.7145C24.4128 62.7086 24.4917 62.7187 24.5661 62.7443C24.6406 62.7698 24.709 62.8103 24.7673 62.8632C24.8256 62.9161 24.8725 62.9803 24.9052 63.0519C24.9379 63.1235 24.9557 63.201 24.9574 63.2797Z" fill="#313131"/>
<path d="M24.9591 62.5026C24.8808 62.5808 24.4229 62.2301 23.765 62.2127C23.1072 62.1954 22.6058 62.5229 22.5478 62.4417C22.513 62.404 22.5942 62.262 22.8058 62.1113C23.0941 61.9172 23.4349 61.8161 23.7824 61.8215C24.1259 61.8252 24.459 61.939 24.733 62.1461C24.9301 62.3229 24.9968 62.4678 24.9591 62.5026Z" fill="#313131"/>
<path d="M27.2644 67.4328C27.6132 67.3296 27.9734 67.2702 28.3368 67.256C28.5078 67.256 28.6672 67.2125 28.6961 67.0995C28.7134 66.926 28.678 66.7513 28.5947 66.5981C28.4411 66.1866 28.2846 65.7576 28.1194 65.3084C27.4615 63.471 26.9862 61.9639 27.0616 61.9378C27.1369 61.9118 27.7281 63.3869 28.386 65.2157L28.841 66.5112C28.9431 66.7167 28.9698 66.9516 28.9164 67.1748C28.8898 67.2345 28.8498 67.2872 28.7995 67.3289C28.7493 67.3706 28.6901 67.4002 28.6266 67.4154C28.5315 67.4372 28.4343 67.4489 28.3368 67.4502C27.9799 67.4869 27.6199 67.481 27.2644 67.4328Z" fill="#313131"/>
<path d="M27.5791 75.2351C25.326 75.2324 23.1181 74.6022 21.2031 73.415C21.2031 73.415 22.6957 76.7219 27.4806 76.3596L27.5791 75.2351Z" fill="#E25D41"/>
<path d="M26.9568 69.0151C26.8348 68.8548 26.6739 68.7283 26.4892 68.6477C26.3046 68.5671 26.1024 68.5349 25.9019 68.5543C25.7562 68.5649 25.6141 68.6047 25.4841 68.6715C25.3542 68.7382 25.239 68.8304 25.1455 68.9427C25.0557 69.0507 25.0012 69.1836 24.9893 69.3235C24.9774 69.4634 25.0086 69.6036 25.0788 69.7252C25.1829 69.8478 25.3218 69.9358 25.4771 69.9777C25.6323 70.0197 25.7966 70.0135 25.9483 69.96C26.2613 69.8548 26.5508 69.6894 26.8003 69.4731C26.8752 69.4214 26.94 69.3566 26.9916 69.2818C27.0151 69.245 27.0276 69.2022 27.0276 69.1586C27.0276 69.115 27.0151 69.0722 26.9916 69.0354" fill="#E25D41"/>
<path d="M25.3158 67.8527C25.423 67.8527 25.4114 68.5627 26.0171 69.0815C26.6229 69.6003 27.3822 69.5336 27.3851 69.6351C27.3851 69.6785 27.2141 69.7713 26.8924 69.7742C26.4727 69.7732 26.067 69.6233 25.7476 69.351C25.4402 69.0919 25.2467 68.7225 25.2086 68.3222C25.1854 68.0382 25.2694 67.8469 25.3158 67.8527Z" fill="#313131"/>
<path d="M25.1758 59.9233C25.1063 60.1 24.4513 60.0044 23.6775 60.0827C22.9037 60.1609 22.2719 60.3725 22.1733 60.1986C22.1298 60.1203 22.24 59.9551 22.495 59.787C22.8326 59.5752 23.2164 59.448 23.6137 59.4161C24.0073 59.378 24.4043 59.4326 24.773 59.5755C25.0628 59.6972 25.2048 59.8392 25.1758 59.9233Z" fill="#313131"/>
<path d="M31.2269 60.5845C31.1081 60.7323 30.6473 60.57 30.1111 60.5526C29.5749 60.5352 29.1025 60.6337 28.9982 60.4772C28.9547 60.399 29.0301 60.2512 29.233 60.1121C29.5074 59.9467 29.825 59.8669 30.1451 59.8829C30.4652 59.8989 30.7732 60.01 31.0298 60.2019C31.2182 60.3584 31.2791 60.5033 31.2269 60.5845Z" fill="#313131"/>
<path d="M22.9934 54.997C24.286 56.6809 22.9934 59.0921 21.5269 60.6398C20.0604 62.1874 18.3013 63.9785 18.7215 66.0565C19.2113 68.4677 22.5297 69.9835 22.0631 72.3977C21.8921 73.2671 21.1936 74.0351 21.211 74.9336C21.211 76.5536 23.3267 77.3217 23.944 78.8171C24.7903 80.8719 22.5384 82.9499 22.5239 85.1699C22.5239 86.4306 23.2426 87.5986 23.2948 88.8593C23.3962 91.4416 20.3619 93.3602 17.852 92.7515C15.3422 92.1429 13.6004 89.6969 13.0324 87.1668C12.4643 84.6367 12.8382 82.0196 13.2178 79.4663C12.9773 80.556 11.3253 80.7763 10.511 80.0141C9.69657 79.2518 9.58644 77.9853 9.75743 76.8869C10.1864 74.1192 11.9774 71.763 12.815 69.0937C13.5482 66.7578 13.528 64.2654 13.8352 61.8483C14.1424 59.4312 14.8669 56.8866 16.7044 55.2694C18.5418 53.6523 21.7414 53.4233 23.2571 55.3448" fill="#313131"/>
<path d="M16.4495 91.8036C16.4681 91.7707 16.4884 91.7388 16.5104 91.708C16.5538 91.6413 16.6147 91.5486 16.6929 91.4355C17.2729 90.5151 17.597 89.4566 17.6319 88.3693C17.6674 87.492 17.507 86.6178 17.1624 85.8102C16.7828 84.9117 16.1133 84.0713 15.4061 83.1555C15.0328 82.688 14.691 82.1961 14.3831 81.6832C14.0626 81.1367 13.8335 80.5415 13.7049 79.9211C13.5637 79.2539 13.6201 78.5599 13.8672 77.9242C14.0049 77.601 14.2014 77.3062 14.4469 77.0548C14.7014 76.8087 14.9757 76.5838 15.267 76.3824C15.8467 75.9709 16.4263 75.5564 16.7538 74.913C17.0459 74.2465 17.0931 73.4982 16.8871 72.8003C16.5393 71.3512 15.5308 70.2209 14.8845 68.9602C14.5412 68.3442 14.3364 67.6608 14.2846 66.9575C14.2552 66.2806 14.3832 65.606 14.6584 64.9868C15.189 63.8699 15.9553 62.8811 16.9045 62.0886C17.774 61.3148 18.6144 60.6569 19.3129 59.9729C19.9582 59.3771 20.4955 58.674 20.9011 57.895C21.2051 57.3049 21.3902 56.6609 21.4459 55.9996C21.4787 55.582 21.4365 55.1619 21.3213 54.7591C21.2402 54.4693 21.1706 54.3476 21.1822 54.3418C21.2513 54.4723 21.3076 54.6091 21.3503 54.7504C21.4797 55.1544 21.5318 55.5792 21.5039 56.0024C21.461 56.6741 21.2815 57.3299 20.9764 57.9297C20.5739 58.7227 20.0365 59.4395 19.3882 60.0483C18.6898 60.7439 17.8406 61.4075 16.9886 62.1814C16.0569 62.9709 15.3058 63.9513 14.7859 65.0563C14.522 65.6562 14.3991 66.3086 14.4266 66.9634C14.4781 67.6447 14.6758 68.307 15.0062 68.9051C15.3308 69.5253 15.7336 70.1195 16.1162 70.7426C16.5238 71.3671 16.8308 72.0516 17.0262 72.7713C17.2407 73.5043 17.1894 74.2895 16.8813 74.9884C16.5422 75.6753 15.9075 76.1042 15.3453 76.5099C15.0604 76.7061 14.7919 76.9252 14.5425 77.1649C14.3069 77.402 14.1164 77.6799 13.9802 77.9851C13.7444 78.5952 13.69 79.2605 13.8237 79.9008C13.9475 80.5118 14.1687 81.0989 14.4787 81.6397C14.784 82.1442 15.1219 82.6283 15.4902 83.0888C16.1887 83.9988 16.861 84.8596 17.2436 85.7783C17.5898 86.6024 17.7454 87.494 17.6986 88.3867C17.6552 89.4847 17.3102 90.5495 16.7016 91.4645C16.6176 91.5833 16.548 91.6674 16.5046 91.7283C16.4883 91.7548 16.4698 91.78 16.4495 91.8036Z" fill="#455A64"/>
<path d="M51.9898 97.2809L41.0057 116.461L25.4512 117V118.71H70.8917L83.2582 98.4518C83.3591 98.2771 83.4126 98.0792 83.4136 97.8775C83.4146 97.6758 83.3629 97.4773 83.2637 97.3017C83.1644 97.1261 83.0211 96.9794 82.8478 96.8761C82.6746 96.7729 82.4774 96.7166 82.2757 96.7129H52.9867C52.7856 96.7129 52.5878 96.7653 52.413 96.8649C52.2382 96.9645 52.0924 97.1079 51.9898 97.2809Z" fill="#313131"/>
<path d="M65.749 107.521C65.0592 108.593 64.0101 109.141 63.3783 108.741C62.7465 108.341 62.8131 107.15 63.5029 106.078C64.1926 105.005 65.2418 104.457 65.8736 104.857C66.5054 105.257 66.4387 106.449 65.749 107.521Z" fill="#E0E0E0"/>
<path d="M120.549 110.062C120.532 110.011 120.511 109.961 120.485 109.914L120.285 109.485C120.045 108.931 119.852 108.358 119.706 107.772C119.317 106.248 119.181 103.918 119.758 101.153C120.069 99.6457 120.478 98.1606 120.984 96.707C121.506 95.1275 122.108 93.4524 122.601 91.6439C123.158 89.7552 123.427 87.7933 123.398 85.8244C123.326 83.7667 122.714 81.7119 122.045 79.6658C121.375 77.6196 120.685 75.6083 120.477 73.5999C120.247 71.6606 120.638 69.6984 121.592 67.9948C122.479 66.3602 123.595 64.9633 124.43 63.5142C125.21 62.1719 125.786 60.7202 126.137 59.2075C126.64 57.0178 126.677 54.7466 126.244 52.5417C126.092 51.7341 125.859 50.9438 125.548 50.1826C125.558 50.2357 125.572 50.288 125.589 50.3391C125.624 50.4521 125.67 50.6029 125.731 50.7912C125.905 51.3717 126.05 51.9608 126.163 52.5562C126.562 54.7521 126.503 57.0067 125.989 59.1786C125.632 60.6724 125.056 62.1051 124.279 63.4302C123.444 64.8619 122.323 66.253 121.419 67.9079C120.438 69.6426 120.032 71.6434 120.259 73.6231C120.468 75.6721 121.164 77.6805 121.83 79.7353C122.497 81.7901 123.102 83.8101 123.181 85.836C123.209 87.7836 122.946 89.7246 122.401 91.5946C121.917 93.3973 121.32 95.0724 120.807 96.6549C120.306 98.1173 119.903 99.6112 119.599 101.127C119.036 103.912 119.196 106.265 119.616 107.793C119.773 108.381 119.984 108.953 120.248 109.502L120.468 109.923C120.489 109.972 120.517 110.019 120.549 110.062Z" fill="#313131"/>
<path d="M123.282 64.9435C123.282 64.9435 124.978 59.521 121.935 56.3446C121.911 56.3184 121.881 56.2993 121.848 56.2896C121.814 56.2798 121.778 56.2798 121.745 56.2895C121.711 56.2992 121.681 56.3182 121.657 56.3444C121.634 56.3705 121.619 56.4028 121.613 56.4373C121.451 57.3329 121.248 60.06 123.282 64.9435Z" fill="#E25D41"/>
<path d="M122.266 58.1494C122.27 58.4867 122.309 58.8227 122.382 59.1522C122.492 59.839 122.622 60.6505 122.767 61.5432C122.912 62.4358 123.037 63.2473 123.147 63.9371C123.175 64.2714 123.235 64.6023 123.326 64.9253C123.359 64.5893 123.349 64.2505 123.297 63.9168C123.239 63.2966 123.132 62.4445 122.976 61.5084C122.819 60.5723 122.66 59.7318 122.529 59.1232C122.478 58.7898 122.389 58.4632 122.266 58.1494Z" fill="#313131"/>
<path d="M121.305 77.7357C121.305 77.7357 120.267 72.148 116.088 70.7801C116.055 70.768 116.02 70.7653 115.986 70.7725C115.952 70.7796 115.92 70.7963 115.895 70.8205C115.87 70.8447 115.852 70.8755 115.844 70.9094C115.835 70.9432 115.837 70.9788 115.848 71.0119C116.114 71.864 117.21 74.3709 121.305 77.7357Z" fill="#E25D41"/>
<path d="M117.214 72.209C117.38 72.5036 117.574 72.7812 117.794 73.0379C118.214 73.5972 118.707 74.2493 119.243 74.9709L120.692 76.9098C120.875 77.1919 121.084 77.4568 121.315 77.701C121.185 77.3922 121.017 77.1002 120.817 76.8316C120.478 76.3099 119.982 75.6085 119.408 74.8521C118.834 74.0957 118.298 73.4291 117.895 72.9538C117.699 72.6795 117.47 72.4294 117.214 72.209Z" fill="#313131"/>
<path d="M122.419 91.7542C122.419 91.7542 123.048 86.1057 119.454 83.5698C119.426 83.5519 119.394 83.5417 119.361 83.5402C119.328 83.5387 119.295 83.546 119.265 83.5613C119.236 83.5766 119.211 83.5993 119.193 83.6273C119.176 83.6552 119.165 83.6874 119.164 83.7205C119.167 84.6334 119.489 87.349 122.419 91.7542Z" fill="#E25D41"/>
<path d="M120.124 85.2793C120.194 85.6088 120.298 85.9302 120.434 86.2386C120.674 86.8965 120.955 87.6645 121.268 88.5137C121.581 89.3628 121.848 90.1337 122.097 90.7916C122.191 91.114 122.313 91.4273 122.462 91.7277C122.43 91.3924 122.356 91.0623 122.242 90.7453C122.068 90.1453 121.799 89.331 121.468 88.4267C121.138 87.5225 120.819 86.74 120.573 86.169C120.457 85.8566 120.306 85.5582 120.124 85.2793Z" fill="#313131"/>
<path d="M119.275 105.854C119.275 105.854 119.703 100.185 116.023 97.7797C115.994 97.7613 115.961 97.7511 115.927 97.7501C115.893 97.7491 115.859 97.7574 115.829 97.774C115.8 97.7907 115.775 97.8151 115.758 97.8447C115.741 97.8742 115.732 97.9079 115.733 97.942C115.771 98.852 116.188 101.556 119.275 105.854Z" fill="#E25D41"/>
<path d="M116.75 99.4658C116.828 99.7929 116.94 100.111 117.086 100.414L118.002 102.657C118.344 103.497 118.651 104.257 118.912 104.903C119.017 105.222 119.151 105.532 119.312 105.827C119.266 105.493 119.179 105.165 119.054 104.851C118.86 104.271 118.561 103.454 118.199 102.576C117.837 101.697 117.489 100.915 117.225 100.356C117.1 100.042 116.941 99.7441 116.75 99.4658Z" fill="#313131"/>
<path d="M125.719 60.178C125.719 60.178 130.756 57.5465 130.855 53.15C130.855 53.1159 130.847 53.0823 130.83 53.0527C130.813 53.0231 130.788 52.9987 130.759 52.982C130.729 52.9654 130.695 52.9571 130.661 52.9581C130.627 52.9591 130.594 52.9693 130.565 52.9877C129.811 53.5035 127.739 55.2859 125.719 60.178Z" fill="#E25D41"/>
<path d="M129.81 54.6602C129.575 54.9006 129.365 55.1648 129.184 55.4485C128.772 56.0136 128.294 56.6773 127.764 57.4105C127.233 58.1438 126.749 58.8074 126.338 59.3697C126.12 59.6267 125.926 59.9032 125.758 60.1957C126.019 59.9812 126.252 59.7349 126.451 59.4624C126.848 58.9842 127.375 58.3032 127.929 57.5351C128.483 56.7671 128.964 56.0571 129.3 55.5325C129.503 55.2624 129.674 54.9697 129.81 54.6602Z" fill="#313131"/>
<path d="M120.309 71.8257C120.309 71.8257 125.497 69.5072 125.865 65.1222C125.869 65.0867 125.863 65.0508 125.847 65.0185C125.832 64.9863 125.807 64.9592 125.777 64.9404C125.747 64.9215 125.711 64.9117 125.676 64.9121C125.64 64.9125 125.605 64.9231 125.575 64.9426C124.801 65.4295 122.622 67.0698 120.309 71.8257Z" fill="#E25D41"/>
<path d="M124.728 66.5693C124.477 66.7937 124.25 67.0444 124.053 67.3171L122.516 69.1893L120.975 71.0586C120.742 71.302 120.534 71.5669 120.352 71.8498C120.623 71.6483 120.87 71.4159 121.088 71.1572C121.514 70.705 122.082 70.0587 122.682 69.3255C123.282 68.5923 123.803 67.9112 124.171 67.4098C124.388 67.1512 124.574 66.8693 124.728 66.5693Z" fill="#313131"/>
<path d="M123.295 84.8189C123.295 84.8189 126.857 80.3905 125.187 76.3244C125.175 76.2923 125.153 76.2644 125.125 76.2436C125.098 76.2229 125.065 76.2102 125.03 76.2069C124.996 76.2036 124.961 76.2099 124.93 76.225C124.899 76.2401 124.873 76.2634 124.854 76.2925C124.376 77.0663 123.188 79.5327 123.295 84.8189Z" fill="#E25D41"/>
<path d="M124.832 78.127C124.714 78.4423 124.627 78.7684 124.572 79.1007C124.424 79.7818 124.25 80.5817 124.059 81.4685C123.867 82.3554 123.688 83.1524 123.537 83.8335C123.443 84.1555 123.378 84.4853 123.343 84.8188C123.494 84.518 123.608 84.1997 123.682 83.8711C123.856 83.2741 124.067 82.4394 124.261 81.512C124.456 80.5846 124.615 79.7412 124.714 79.1268C124.79 78.799 124.83 78.4636 124.832 78.127Z" fill="#313131"/>
<path d="M119.768 100.11C119.768 100.11 124.915 97.7042 125.208 93.3164C125.211 93.2811 125.205 93.2455 125.189 93.2138C125.173 93.182 125.149 93.1554 125.119 93.1369C125.088 93.1185 125.053 93.1089 125.018 93.1094C124.983 93.1099 124.948 93.1203 124.918 93.1396C124.15 93.6236 122 95.3161 119.768 100.11Z" fill="#E25D41"/>
<path d="M124.098 94.7764C123.852 95.0067 123.63 95.2611 123.434 95.5357L121.93 97.4369L120.435 99.3381C120.207 99.5862 120.004 99.8549 119.826 100.141C120.094 99.9355 120.336 99.6991 120.548 99.4366C120.968 98.9787 121.525 98.3208 122.113 97.576C122.701 96.8312 123.211 96.1443 123.562 95.6371C123.771 95.3704 123.951 95.0818 124.098 94.7764Z" fill="#313131"/>
<path d="M109.513 77.7676C109.513 77.7676 109.513 77.8082 109.513 77.8922C109.513 77.9762 109.513 78.1096 109.513 78.2545C109.527 78.5965 109.547 79.0573 109.574 79.634C109.637 80.8454 109.73 82.5322 109.843 84.5609C110.211 86.6157 111.257 88.9082 112.666 91.1079C113.698 92.7395 114.779 94.2205 115.712 95.6C116.56 96.8015 117.323 98.0604 117.996 99.3677C118.438 100.256 118.796 101.183 119.065 102.138C119.155 102.477 119.222 102.741 119.262 102.924C119.278 103.017 119.303 103.108 119.338 103.196C119.334 103.099 119.323 103.002 119.303 102.906C119.28 102.721 119.224 102.451 119.143 102.106C118.902 101.137 118.564 100.194 118.132 99.2923C117.474 97.9652 116.72 96.6885 115.874 95.4725C114.947 94.0843 113.872 92.6004 112.846 90.9775C111.446 88.7748 110.402 86.5317 110.023 84.5087C109.881 82.48 109.765 80.802 109.678 79.5818C109.632 79.0022 109.594 78.5501 109.568 78.2081C109.568 78.0632 109.542 77.9444 109.53 77.8458C109.526 77.8193 109.521 77.7932 109.513 77.7676Z" fill="#313131"/>
<path d="M112.576 90.6907C112.576 90.6907 110.397 85.445 113.138 81.9961C113.16 81.9685 113.188 81.9474 113.221 81.935C113.254 81.9227 113.289 81.9197 113.323 81.9263C113.358 81.9329 113.389 81.9489 113.415 81.9725C113.441 81.9961 113.459 82.0263 113.469 82.0599C113.712 82.9467 114.161 85.6449 112.576 90.6907Z" fill="#E25D41"/>
<path d="M112.974 83.833C112.88 84.1569 112.823 84.4904 112.803 84.8271C112.725 85.4444 112.638 86.2994 112.571 87.2442C112.505 88.189 112.473 89.0497 112.473 89.6699C112.451 90.0073 112.471 90.3462 112.534 90.6785C112.593 90.3475 112.622 90.0119 112.621 89.6757C112.667 88.9802 112.722 88.1629 112.783 87.2587C112.844 86.3544 112.905 85.5371 112.951 84.8416C112.994 84.5071 113.002 84.1691 112.974 83.833Z" fill="#313131"/>
<g opacity="0.3">
<path d="M112.579 90.6907C112.579 90.6907 110.399 85.445 113.141 81.9961C113.162 81.9685 113.191 81.9474 113.223 81.935C113.256 81.9227 113.291 81.9197 113.326 81.9263C113.36 81.9329 113.392 81.9489 113.417 81.9725C113.443 81.9961 113.462 82.0263 113.471 82.0599C113.715 82.9467 114.164 85.6449 112.579 90.6907Z" fill="black"/>
</g>
<path d="M119.333 103.338C119.333 103.338 117.594 97.9296 120.597 94.7271C120.62 94.7012 120.651 94.6823 120.684 94.6725C120.718 94.6628 120.753 94.6625 120.787 94.6719C120.821 94.6812 120.851 94.6997 120.875 94.7253C120.899 94.7509 120.915 94.7827 120.922 94.817C121.093 95.7096 121.319 98.4368 119.333 103.338Z" fill="#E25D41"/>
<path d="M120.284 96.5361C120.163 96.851 120.078 97.1787 120.032 97.5128C119.904 98.1214 119.742 98.9619 119.606 99.9009C119.47 100.84 119.359 101.692 119.316 102.312C119.269 102.646 119.262 102.985 119.296 103.321C119.384 102.997 119.441 102.665 119.467 102.33C119.568 101.64 119.69 100.828 119.823 99.9357C119.956 99.0431 120.084 98.2287 120.188 97.5389C120.253 97.2086 120.285 96.8727 120.284 96.5361Z" fill="#313131"/>
<g opacity="0.3">
<path d="M119.331 103.338C119.331 103.338 117.592 97.9296 120.595 94.7271C120.618 94.7012 120.649 94.6823 120.682 94.6725C120.716 94.6628 120.751 94.6625 120.785 94.6719C120.819 94.6812 120.849 94.6997 120.873 94.7253C120.897 94.7509 120.913 94.7827 120.92 94.817C121.091 95.7096 121.317 98.4368 119.331 103.338Z" fill="black"/>
</g>
<path d="M109.799 84.2681C109.799 84.2681 105.145 81.0105 105.614 76.6372C105.617 76.6023 105.63 76.569 105.651 76.5409C105.672 76.5129 105.7 76.4911 105.732 76.4782C105.765 76.4653 105.8 76.4616 105.835 76.4677C105.869 76.4738 105.901 76.4893 105.927 76.5126C106.603 77.1328 108.428 79.1702 109.799 84.2681Z" fill="#E25D41"/>
<g opacity="0.3">
<path d="M109.8 84.2681C109.8 84.2681 105.145 81.0105 105.615 76.6372C105.618 76.6023 105.63 76.569 105.651 76.5409C105.672 76.5129 105.7 76.4911 105.733 76.4782C105.765 76.4653 105.801 76.4616 105.835 76.4677C105.87 76.4738 105.902 76.4893 105.928 76.5126C106.603 77.1328 108.429 79.1702 109.8 84.2681Z" fill="black"/>
</g>
<path d="M106.459 78.2773C106.551 78.6013 106.68 78.9135 106.844 79.2077C107.111 79.7699 107.497 80.5379 107.946 81.3726C108.395 82.2073 108.815 82.9492 109.163 83.4738C109.328 83.769 109.527 84.0434 109.757 84.2911C109.63 83.9799 109.475 83.6811 109.293 83.3984L108.134 81.2712L106.975 79.141C106.832 78.8367 106.659 78.5473 106.459 78.2773Z" fill="#313131"/>
<path d="M117.455 97.9767C117.455 97.9767 111.838 97.1073 110.334 92.9687C110.322 92.9362 110.32 92.9012 110.326 92.8674C110.333 92.8336 110.349 92.8022 110.372 92.7768C110.396 92.7514 110.426 92.7329 110.459 92.7233C110.492 92.7137 110.527 92.7133 110.56 92.7223C111.45 92.9629 113.974 93.9946 117.455 97.9767Z" fill="#E25D41"/>
<g opacity="0.3">
<path d="M117.453 97.9767C117.453 97.9767 111.836 97.1073 110.332 92.9687C110.32 92.9362 110.318 92.9012 110.324 92.8674C110.331 92.8336 110.347 92.8022 110.37 92.7768C110.394 92.7514 110.424 92.7329 110.457 92.7233C110.49 92.7137 110.525 92.7133 110.558 92.7223C111.448 92.9629 113.972 93.9946 117.453 97.9767Z" fill="black"/>
</g>
<path d="M111.81 94.0635C112.037 94.3122 112.292 94.5348 112.569 94.7272C113.053 95.1155 113.728 95.6343 114.511 96.1762C115.293 96.7182 115.997 97.2022 116.539 97.5268C116.816 97.7214 117.116 97.8802 117.432 97.9992C117.18 97.777 116.91 97.5772 116.623 97.4022L114.638 96.014L112.665 94.6083C112.399 94.3983 112.112 94.2157 111.81 94.0635Z" fill="#313131"/>
<path d="M124.098 108.312L122.489 118.875L116.055 118.864L113.89 108.312H124.098Z" fill="#455A64"/>
<path d="M114.833 112.381C114.833 112.381 114.847 112.398 114.885 112.421C114.922 112.444 114.977 112.479 115.056 112.517C115.282 112.627 115.525 112.7 115.774 112.731C116.172 112.785 116.576 112.747 116.957 112.621C117.47 112.459 117.916 112.134 118.229 111.697C118.402 111.432 118.502 111.128 118.519 110.813C118.537 110.636 118.505 110.457 118.428 110.297C118.351 110.137 118.231 110.002 118.081 109.905C117.911 109.821 117.72 109.784 117.53 109.799C117.34 109.815 117.158 109.881 117.003 109.992C116.683 110.227 116.464 110.574 116.389 110.963C116.304 111.355 116.276 111.758 116.308 112.157C116.329 112.575 116.417 112.987 116.569 113.377C116.727 113.787 116.982 114.152 117.313 114.441C117.657 114.746 118.092 114.927 118.551 114.957C119.009 114.967 119.459 114.837 119.841 114.583C120.207 114.349 120.531 114.055 120.8 113.714C121.076 113.386 121.246 112.981 121.287 112.554C121.303 112.345 121.27 112.135 121.191 111.941C121.111 111.746 120.987 111.573 120.829 111.436C120.666 111.315 120.472 111.244 120.27 111.232C120.067 111.22 119.866 111.266 119.69 111.366C119.521 111.45 119.373 111.573 119.259 111.724C119.145 111.875 119.067 112.05 119.032 112.236C118.984 112.564 119.036 112.899 119.181 113.197C119.326 113.496 119.558 113.743 119.846 113.908C120.321 114.165 120.872 114.245 121.4 114.134C121.79 114.053 122.163 113.906 122.504 113.699C122.719 113.573 122.926 113.434 123.124 113.282C123.197 113.233 123.264 113.175 123.324 113.111C123.248 113.153 123.174 113.201 123.104 113.253C122.962 113.346 122.753 113.488 122.472 113.641C122.133 113.831 121.765 113.965 121.382 114.035C120.879 114.133 120.358 114.05 119.91 113.801C119.649 113.647 119.44 113.418 119.309 113.144C119.179 112.871 119.132 112.565 119.177 112.265C119.209 112.103 119.278 111.951 119.378 111.821C119.479 111.691 119.608 111.586 119.757 111.514C119.905 111.426 120.077 111.385 120.249 111.395C120.422 111.406 120.587 111.467 120.725 111.572C120.861 111.694 120.968 111.847 121.036 112.017C121.104 112.188 121.131 112.372 121.116 112.554C121.076 112.947 120.917 113.318 120.661 113.618C120.404 113.943 120.095 114.222 119.745 114.444C119.393 114.676 118.979 114.797 118.557 114.792C118.138 114.761 117.741 114.594 117.426 114.316C117.115 114.048 116.874 113.706 116.725 113.322C116.581 112.951 116.496 112.56 116.473 112.163C116.442 111.78 116.465 111.395 116.542 111.018C116.609 110.671 116.803 110.36 117.087 110.149C117.218 110.052 117.372 109.992 117.534 109.976C117.696 109.96 117.859 109.989 118.006 110.059C118.134 110.141 118.236 110.257 118.302 110.393C118.368 110.53 118.395 110.682 118.38 110.833C118.364 111.126 118.272 111.409 118.113 111.656C117.819 112.075 117.399 112.39 116.913 112.554C116.554 112.673 116.174 112.712 115.798 112.67C115.462 112.628 115.136 112.53 114.833 112.381Z" fill="#313131"/>
</svg>
