<svg width="14" height="16" viewBox="0 0 14 16" fill="none" xmlns="http://www.w3.org/2000/svg">
<path d="M0.44457 5.79867H12.9178C13.112 5.79867 13.2709 5.95752 13.2709 6.15168V13.8004C13.2709 14.58 12.6384 15.2125 11.8588 15.2125H1.50362C0.724042 15.2125 0.0915527 14.58 0.0915527 13.8004V6.15168C0.0915527 5.95752 0.250411 5.79867 0.44457 5.79867ZM13.2709 4.50427V3.44522C13.2709 2.66564 12.6384 2.03315 11.8588 2.03315H10.4467V0.503408C10.4467 0.309248 10.2879 0.150391 10.0937 0.150391H8.91698C8.72283 0.150391 8.56397 0.309248 8.56397 0.503408V2.03315H4.79845V0.503408C4.79845 0.309248 4.63959 0.150391 4.44543 0.150391H3.26871C3.07455 0.150391 2.91569 0.309248 2.91569 0.503408V2.03315H1.50362C0.724042 2.03315 0.0915527 2.66564 0.0915527 3.44522V4.50427C0.0915527 4.69843 0.250411 4.85729 0.44457 4.85729H12.9178C13.112 4.85729 13.2709 4.69843 13.2709 4.50427Z" fill="black"/>
</svg>
