<svg width="22" height="17" viewBox="0 0 22 17" fill="none" xmlns="http://www.w3.org/2000/svg">
<path d="M6.582 8.40654C8.70401 8.40654 10.4215 6.68905 10.4215 4.56704C10.4215 2.44503 8.70401 0.727539 6.582 0.727539C4.45999 0.727539 2.7425 2.44503 2.7425 4.56704C2.7425 6.68905 4.45999 8.40654 6.582 8.40654ZM9.2148 9.50354H8.93027C8.21722 9.84635 7.42532 10.052 6.582 10.052C5.73868 10.052 4.95021 9.84635 4.23373 9.50354H3.9492C1.76891 9.50354 0 11.2725 0 13.4527V14.44C0 15.3485 0.737047 16.0855 1.6455 16.0855H11.5185C12.427 16.0855 13.164 15.3485 13.164 14.44V13.4527C13.164 11.2725 11.3951 9.50354 9.2148 9.50354ZM16.455 8.40654C18.2719 8.40654 19.746 6.93245 19.746 5.11554C19.746 3.29863 18.2719 1.82454 16.455 1.82454C14.6381 1.82454 13.164 3.29863 13.164 5.11554C13.164 6.93245 14.6381 8.40654 16.455 8.40654ZM18.1005 9.50354H17.9702C17.4937 9.66809 16.9898 9.77779 16.455 9.77779C15.9202 9.77779 15.4163 9.66809 14.9398 9.50354H14.8095C14.1102 9.50354 13.4657 9.7058 12.9 10.0315C13.7365 10.9331 14.261 12.1295 14.261 13.4527V14.7691C14.261 14.8446 14.2439 14.9165 14.2404 14.9885H20.2945C21.203 14.9885 21.94 14.2515 21.94 13.343C21.94 11.221 20.2225 9.50354 18.1005 9.50354Z" fill="black"/>
</svg>
