<svg width="36" height="36" viewBox="0 0 36 36" fill="none" xmlns="http://www.w3.org/2000/svg">
<rect width="36" height="36" rx="5" fill="#E25D41"/>
<path d="M16.75 10H19.25C19.6656 10 20 10.3344 20 10.75V16H22.7406C23.2969 16 23.575 16.6719 23.1812 17.0656L18.4281 21.8219C18.1938 22.0562 17.8094 22.0562 17.575 21.8219L12.8156 17.0656C12.4219 16.6719 12.7 16 13.2562 16H16V10.75C16 10.3344 16.3344 10 16.75 10ZM26 21.75V25.25C26 25.6656 25.6656 26 25.25 26H10.75C10.3344 26 10 25.6656 10 25.25V21.75C10 21.3344 10.3344 21 10.75 21H15.3344L16.8656 22.5312C17.4938 23.1594 18.5062 23.1594 19.1344 22.5312L20.6656 21H25.25C25.6656 21 26 21.3344 26 21.75ZM22.125 24.5C22.125 24.1562 21.8438 23.875 21.5 23.875C21.1562 23.875 20.875 24.1562 20.875 24.5C20.875 24.8438 21.1562 25.125 21.5 25.125C21.8438 25.125 22.125 24.8438 22.125 24.5ZM24.125 24.5C24.125 24.1562 23.8438 23.875 23.5 23.875C23.1562 23.875 22.875 24.1562 22.875 24.5C22.875 24.8438 23.1562 25.125 23.5 25.125C23.8438 25.125 24.125 24.8438 24.125 24.5Z" fill="white"/>
</svg>
