<svg width="22" height="20" viewBox="0 0 22 20" fill="none" xmlns="http://www.w3.org/2000/svg">
<path d="M19.7634 4.74955H3.42817C3.04936 4.74955 2.74254 4.44273 2.74254 4.06391C2.74254 3.6851 3.04936 3.37828 3.42817 3.37828H19.8834C20.2622 3.37828 20.569 3.07146 20.569 2.69265C20.569 1.55663 19.6481 0.635742 18.5121 0.635742H2.74254C1.22771 0.635742 0 1.86346 0 3.37828V17.091C0 18.6058 1.22771 19.8335 2.74254 19.8335H19.7634C20.9641 19.8335 21.9403 18.9109 21.9403 17.7766V6.80645C21.9403 5.67215 20.9641 4.74955 19.7634 4.74955ZM17.8265 13.6628C17.0693 13.6628 16.4552 13.0487 16.4552 12.2915C16.4552 11.5343 17.0693 10.9203 17.8265 10.9203C18.5837 10.9203 19.1978 11.5343 19.1978 12.2915C19.1978 13.0487 18.5837 13.6628 17.8265 13.6628Z" fill="black"/>
</svg>
