<svg width="44" height="44" viewBox="0 0 44 44" fill="none" xmlns="http://www.w3.org/2000/svg">
<circle cx="22" cy="22" r="22" fill="#E25D41"/>
<path d="M21.6625 25.3537C21.6534 25.5462 21.58 25.7067 21.4425 25.835C21.305 25.9633 21.14 26.0229 20.9475 26.0138C20.755 26.0046 20.5946 25.9312 20.4663 25.7937C20.338 25.6562 20.2784 25.4912 20.2875 25.2987C20.3242 25.0237 20.338 23.9283 20.3288 22.0125C20.3196 20.0967 20.315 19.0012 20.315 18.7262C19.6092 19.6429 18.7934 20.8162 17.8675 22.2462C17.7667 22.4112 17.62 22.5121 17.4275 22.5487C17.2442 22.5854 17.0746 22.5533 16.9188 22.4525C16.9096 22.4433 16.9005 22.4387 16.8913 22.4387C16.8088 22.3837 16.74 22.3196 16.685 22.2462C16.3 21.7054 15.6492 20.885 14.7325 19.785L13.8388 18.7125C13.8663 19.4 13.88 20.1883 13.88 21.0775C13.88 21.5175 13.8709 22.2096 13.8525 23.1537C13.8434 24.0979 13.8388 24.8129 13.8388 25.2987C13.8388 25.4912 13.77 25.6562 13.6325 25.7937C13.5042 25.9221 13.3438 25.9862 13.1513 25.9862C12.9588 25.9862 12.7938 25.9221 12.6563 25.7937C12.528 25.6562 12.4638 25.4912 12.4638 25.2987C12.4638 24.8129 12.4684 24.0979 12.4775 23.1537C12.4959 22.2096 12.505 21.5129 12.505 21.0637C12.505 19.3496 12.45 17.97 12.34 16.925C12.3217 16.7325 12.3721 16.5629 12.4913 16.4162C12.6105 16.2696 12.7663 16.1871 12.9588 16.1687C13.0505 16.1596 13.1375 16.1687 13.22 16.1962C13.4309 16.2054 13.605 16.2925 13.7425 16.4575L15.7913 18.8912C16.3688 19.5787 16.8546 20.1792 17.2488 20.6925C18.4771 18.8225 19.545 17.3971 20.4525 16.4162C20.4892 16.3796 20.5259 16.3475 20.5625 16.32C20.7092 16.1825 20.8788 16.1183 21.0713 16.1275C21.2638 16.1367 21.4242 16.21 21.5525 16.3475C21.6809 16.485 21.7405 16.65 21.7313 16.8425C21.6946 17.805 21.6809 19.235 21.69 21.1325C21.7084 23.0208 21.6992 24.4279 21.6625 25.3537ZM29.1877 21.3112L27.7577 22.4937C27.7668 23.5662 27.7897 24.4967 27.8264 25.285C27.8356 25.4775 27.776 25.6471 27.6477 25.7937C27.5285 25.9312 27.3727 26.0046 27.1802 26.0138C26.9877 26.0229 26.8181 25.9679 26.6714 25.8487C26.5339 25.7204 26.4606 25.56 26.4514 25.3675C26.4239 24.8175 26.4056 24.2767 26.3964 23.745C26.3872 23.085 26.3827 22.4112 26.3827 21.7237C26.3827 21.0362 26.3781 20.5 26.3689 20.115C26.3689 19.8767 26.3506 19.3862 26.3139 18.6437C26.2772 17.8921 26.2635 17.2917 26.2727 16.8425C26.2727 16.65 26.3414 16.4896 26.4789 16.3612C26.6164 16.2329 26.7814 16.1687 26.9739 16.1687C27.1664 16.1687 27.3268 16.2375 27.4552 16.375C27.5835 16.5125 27.6477 16.6775 27.6477 16.87C27.6385 17.31 27.6522 17.8967 27.6889 18.63C27.7256 19.3633 27.7439 19.8492 27.7439 20.0875C27.7439 20.2892 27.7485 20.5046 27.7577 20.7337C29.1968 19.5329 30.691 18.0892 32.2402 16.4025C32.3685 16.265 32.5289 16.1917 32.7214 16.1825C32.9139 16.1733 33.0789 16.2329 33.2164 16.3612C33.3539 16.4896 33.4272 16.65 33.4364 16.8425C33.4456 17.035 33.386 17.2 33.2577 17.3375C32.231 18.4742 31.2181 19.4962 30.2189 20.4037L33.7527 24.9C33.8718 25.0467 33.9177 25.2162 33.8902 25.4087C33.8718 25.5921 33.7893 25.7433 33.6427 25.8625C33.496 25.9817 33.3264 26.0275 33.1339 26C32.9506 25.9817 32.7993 25.8992 32.6802 25.7525L29.1877 21.3112Z" fill="white"/>
</svg>
