<svg width="23" height="20" viewBox="0 0 23 20" fill="none" xmlns="http://www.w3.org/2000/svg">
<path d="M21.4493 9.98617L17.3098 8.43493V3.78547C17.3098 3.14269 16.9112 2.56847 16.307 2.34135L12.0218 0.734397C11.6747 0.601555 11.289 0.601555 10.9376 0.734397L6.65243 2.34135C6.04822 2.56847 5.64969 3.14269 5.64969 3.78547V8.43493L1.51017 9.98617C0.910244 10.2133 0.511719 10.7875 0.511719 11.4303V16.1483C0.511719 16.7311 0.84168 17.2668 1.36448 17.5282L5.64969 19.6708C6.0825 19.8893 6.59672 19.8893 7.02953 19.6708L11.4819 17.4424L15.9342 19.6708C16.367 19.8893 16.8812 19.8893 17.314 19.6708L21.5993 17.5282C22.1221 17.2668 22.452 16.7311 22.452 16.1483V11.4303C22.452 10.7875 22.0535 10.2133 21.4493 9.98617ZM15.8528 8.46921L12.2104 9.83619V6.91368L15.8528 5.32815V8.46921ZM7.11095 3.72548L11.4819 2.08852L15.8528 3.72548V3.75119L11.4819 5.52527L7.11095 3.75119V3.72548ZM10.7105 16.1997L7.0681 18.021V14.6313L10.7105 12.9687V16.1997ZM10.7105 11.4003L6.33961 13.1744L1.96869 11.4003V11.3746L6.33961 9.73763L10.7105 11.3746V11.4003ZM20.995 16.1997L17.3526 18.021V14.6313L20.995 12.9687V16.1997ZM20.995 11.4003L16.6241 13.1744L12.2532 11.4003V11.3746L16.6241 9.73763L20.995 11.3746V11.4003Z" fill="black"/>
</svg>
