<svg width="23" height="14" viewBox="0 0 23 14" fill="none" xmlns="http://www.w3.org/2000/svg">
<path d="M12.5789 8.33145H12.0304V5.31466C12.0304 5.16313 11.9076 5.0404 11.7561 5.0404H11.2906C11.1281 5.0404 10.9694 5.0884 10.8343 5.17856L10.3087 5.52892C10.2788 5.54887 10.253 5.57454 10.233 5.60445C10.2129 5.63436 10.199 5.66793 10.1919 5.70324C10.1848 5.73855 10.1848 5.7749 10.1918 5.81022C10.1988 5.84555 10.2127 5.87915 10.2326 5.9091L10.5371 6.36539C10.557 6.39536 10.5827 6.42111 10.6126 6.44116C10.6425 6.46121 10.6761 6.47516 10.7114 6.48223C10.7467 6.4893 10.783 6.48934 10.8184 6.48235C10.8537 6.47536 10.8873 6.46148 10.9172 6.4415L10.9334 6.43087V8.33145H10.3849C10.2333 8.33145 10.1106 8.45418 10.1106 8.6057V9.15421C10.1106 9.30573 10.2333 9.42846 10.3849 9.42846H12.5789C12.7304 9.42846 12.8531 9.30573 12.8531 9.15421V8.6057C12.8531 8.45418 12.7304 8.33145 12.5789 8.33145ZM21.355 0.652344H1.60873C1.00298 0.652344 0.511719 1.1436 0.511719 1.74936V12.7195C0.511719 13.3253 1.00298 13.8165 1.60873 13.8165H21.355C21.9608 13.8165 22.452 13.3253 22.452 12.7195V1.74936C22.452 1.1436 21.9608 0.652344 21.355 0.652344ZM2.15724 12.171V9.97697C3.3691 9.97697 4.35127 10.9591 4.35127 12.171H2.15724ZM2.15724 4.4919V2.29787H4.35127C4.35127 3.50972 3.3691 4.4919 2.15724 4.4919ZM11.4819 11.074C9.66425 11.074 8.19082 9.35476 8.19082 7.23443C8.19082 5.11377 9.66425 3.39488 11.4819 3.39488C13.2995 3.39488 14.7729 5.11377 14.7729 7.23443C14.7729 9.35544 13.2988 11.074 11.4819 11.074ZM20.8065 12.171H18.6125C18.6125 10.9591 19.5946 9.97697 20.8065 9.97697V12.171ZM20.8065 4.4919C19.5946 4.4919 18.6125 3.50972 18.6125 2.29787H20.8065V4.4919Z" fill="black" fill-opacity="0.6"/>
</svg>
