<svg width="17" height="23" viewBox="0 0 17 23" fill="none" xmlns="http://www.w3.org/2000/svg">
<path d="M16.4092 4.76412L12.2139 0.564613C12.0211 0.371779 11.7597 0.264648 11.4855 0.264648H11.2241V5.74972H16.7091V5.48833C16.7091 5.21836 16.602 4.95696 16.4092 4.76412ZM9.85279 6.09254V0.264648H1.28236C0.712424 0.264648 0.253906 0.723166 0.253906 1.2931V21.1765C0.253906 21.7464 0.712424 22.2049 1.28236 22.2049H15.6807C16.2506 22.2049 16.7091 21.7464 16.7091 21.1765V7.12099H10.8812C10.3156 7.12099 9.85279 6.65819 9.85279 6.09254ZM2.99644 3.35C2.99644 3.1606 3.14985 3.00719 3.33926 3.00719H6.76743C6.95684 3.00719 7.11025 3.1606 7.11025 3.35V4.03564C7.11025 4.22504 6.95684 4.37845 6.76743 4.37845H3.33926C3.14985 4.37845 2.99644 4.22504 2.99644 4.03564V3.35ZM2.99644 6.77817V6.09254C2.99644 5.90313 3.14985 5.74972 3.33926 5.74972H6.76743C6.95684 5.74972 7.11025 5.90313 7.11025 6.09254V6.77817C7.11025 6.96758 6.95684 7.12099 6.76743 7.12099H3.33926C3.14985 7.12099 2.99644 6.96758 2.99644 6.77817ZM9.16715 18.086V19.1196C9.16715 19.309 9.01374 19.4624 8.82434 19.4624H8.1387C7.94929 19.4624 7.79588 19.309 7.79588 19.1196V18.0787C7.31208 18.0539 6.84157 17.885 6.45161 17.5923C6.28449 17.4668 6.27592 17.2165 6.42719 17.0721L6.9307 16.5917C7.0494 16.4786 7.22595 16.4735 7.36479 16.5605C7.53063 16.6642 7.71875 16.7199 7.91416 16.7199H9.11873C9.39727 16.7199 9.62438 16.4662 9.62438 16.1547C9.62438 15.8997 9.46969 15.6751 9.24857 15.6091L7.32022 15.0306C6.5236 14.7915 5.96695 14.027 5.96695 13.1713C5.96695 12.1206 6.78329 11.2669 7.79546 11.2399V10.2063C7.79546 10.0169 7.94887 9.86353 8.13827 9.86353H8.82391C9.01331 9.86353 9.16672 10.0169 9.16672 10.2063V11.2472C9.65053 11.2721 10.121 11.4405 10.511 11.7336C10.6781 11.8592 10.6867 12.1094 10.5354 12.2538L10.0319 12.7342C9.91321 12.8473 9.73666 12.8525 9.59782 12.7655C9.43198 12.6613 9.24386 12.6061 9.04845 12.6061H7.84388C7.56534 12.6061 7.33822 12.8598 7.33822 13.1713C7.33822 13.4263 7.49292 13.6508 7.71404 13.7168L9.64238 14.2953C10.439 14.5344 10.9957 15.2989 10.9957 16.1547C10.9957 17.2058 10.1793 18.059 9.16715 18.086Z" fill="black" fill-opacity="0.6"/>
</svg>
