<svg width="36" height="36" viewBox="0 0 36 36" fill="none" xmlns="http://www.w3.org/2000/svg">
<rect width="36" height="36" rx="5" fill="#E25D41"/>
<path d="M22.5714 20C21.764 20 21.0219 20.2443 20.4361 20.653L16.7759 18.6513C16.8843 18.2223 16.8843 17.7777 16.7759 17.3487L20.4361 15.347C21.0219 15.7557 21.764 16 22.5714 16C24.465 16 26 14.6568 26 13C26 11.3432 24.465 10 22.5714 10C20.6779 10 19.1429 11.3432 19.1429 13C19.1429 13.2237 19.1711 13.4416 19.2241 13.6513L15.5639 15.653C14.9781 15.2443 14.236 15 13.4286 15C11.535 15 10 16.3432 10 18C10 19.6568 11.535 21 13.4286 21C14.236 21 14.9781 20.7557 15.5639 20.347L19.2241 22.3487C19.17 22.5626 19.1428 22.781 19.1429 23C19.1429 24.6568 20.6779 26 22.5714 26C24.465 26 26 24.6568 26 23C26 21.3432 24.465 20 22.5714 20Z" fill="white"/>
</svg>
