<svg width="19" height="19" viewBox="0 0 19 19" fill="none" xmlns="http://www.w3.org/2000/svg">
<path d="M9.48164 10.6126C12.3206 10.6126 14.6239 8.30934 14.6239 5.47038C14.6239 2.63143 12.3206 0.328125 9.48164 0.328125C6.64268 0.328125 4.33938 2.63143 4.33938 5.47038C4.33938 8.30934 6.64268 10.6126 9.48164 10.6126ZM14.0525 11.7554H12.0849C11.2921 12.1196 10.4101 12.3267 9.48164 12.3267C8.55317 12.3267 7.6747 12.1196 6.87837 11.7554H4.91074C2.38603 11.7554 0.339844 13.8016 0.339844 16.3263V16.8976C0.339844 17.8439 1.10761 18.6117 2.05393 18.6117H16.9093C17.8557 18.6117 18.6234 17.8439 18.6234 16.8976V16.3263C18.6234 13.8016 16.5772 11.7554 14.0525 11.7554Z" fill="black"/>
</svg>
